<mxfile host="app.diagrams.net" agent="Mozilla/5.0 (Windows NT 10.0; Win64; x64) AppleWebKit/537.36 (KHTML, like Gecko) Chrome/129.0.0.0 Safari/537.36" version="24.7.16">
  <diagram id="C5RBs43oDa-KdzZeNtuy" name="Page-1">
    <mxGraphModel grid="1" page="1" gridSize="10" guides="1" tooltips="1" connect="1" arrows="1" fold="1" pageScale="1" pageWidth="827" pageHeight="1169" math="0" shadow="0">
      <root>
        <mxCell id="WIyWlLk6GJQsqaUBKTNV-0" />
        <mxCell id="WIyWlLk6GJQsqaUBKTNV-1" parent="WIyWlLk6GJQsqaUBKTNV-0" />
        <mxCell id="T340YZ7VDrdOijKoR2L3-0" value="START" style="strokeWidth=2;html=1;shape=mxgraph.flowchart.terminator;whiteSpace=wrap;" vertex="1" parent="WIyWlLk6GJQsqaUBKTNV-1">
          <mxGeometry x="-145" y="260" width="100" height="40" as="geometry" />
        </mxCell>
        <mxCell id="ONeuCPQr-5bv9tZjdtYM-15" style="edgeStyle=orthogonalEdgeStyle;rounded=0;orthogonalLoop=1;jettySize=auto;html=1;entryX=0.5;entryY=0;entryDx=0;entryDy=0;entryPerimeter=0;" edge="1" parent="WIyWlLk6GJQsqaUBKTNV-1" source="T340YZ7VDrdOijKoR2L3-4" target="ONeuCPQr-5bv9tZjdtYM-1">
          <mxGeometry relative="1" as="geometry">
            <mxPoint x="-95" y="938" as="targetPoint" />
          </mxGeometry>
        </mxCell>
        <mxCell id="T340YZ7VDrdOijKoR2L3-4" value="User Input:&lt;div&gt;What action to perform?&lt;/div&gt;" style="shape=parallelogram;html=1;strokeWidth=2;perimeter=parallelogramPerimeter;whiteSpace=wrap;rounded=1;arcSize=12;size=0.23;" vertex="1" parent="WIyWlLk6GJQsqaUBKTNV-1">
          <mxGeometry x="-155" y="838" width="120" height="60" as="geometry" />
        </mxCell>
        <mxCell id="ONeuCPQr-5bv9tZjdtYM-5" style="edgeStyle=orthogonalEdgeStyle;rounded=0;orthogonalLoop=1;jettySize=auto;html=1;entryX=0.5;entryY=0;entryDx=0;entryDy=0;exitX=0.5;exitY=1;exitDx=0;exitDy=0;exitPerimeter=0;" edge="1" parent="WIyWlLk6GJQsqaUBKTNV-1" source="T340YZ7VDrdOijKoR2L3-6" target="T340YZ7VDrdOijKoR2L3-4">
          <mxGeometry relative="1" as="geometry">
            <mxPoint x="-95" y="770" as="targetPoint" />
            <mxPoint x="-95" y="750" as="sourcePoint" />
          </mxGeometry>
        </mxCell>
        <mxCell id="T340YZ7VDrdOijKoR2L3-6" value="PRINT: room_name, room_desc, input options, (and item_desc IF map.item_collected==false)" style="strokeWidth=2;html=1;shape=mxgraph.flowchart.display;whiteSpace=wrap;fontSize=10;" vertex="1" parent="WIyWlLk6GJQsqaUBKTNV-1">
          <mxGeometry x="-180.01" y="557" width="170" height="104" as="geometry" />
        </mxCell>
        <mxCell id="ONeuCPQr-5bv9tZjdtYM-1" value="IF INPUT in map.direction" style="strokeWidth=2;html=1;shape=mxgraph.flowchart.decision;whiteSpace=wrap;fontSize=12;" vertex="1" parent="WIyWlLk6GJQsqaUBKTNV-1">
          <mxGeometry x="-156.25" y="964" width="122.5" height="80" as="geometry" />
        </mxCell>
        <mxCell id="ONeuCPQr-5bv9tZjdtYM-3" value="NO" style="text;html=1;align=center;verticalAlign=middle;whiteSpace=wrap;rounded=0;" vertex="1" parent="WIyWlLk6GJQsqaUBKTNV-1">
          <mxGeometry x="-45" y="1011.5" width="37" height="30" as="geometry" />
        </mxCell>
        <mxCell id="ONeuCPQr-5bv9tZjdtYM-9" value="PRINT: this action&lt;div&gt;cannot be performed&lt;/div&gt;" style="strokeWidth=2;html=1;shape=mxgraph.flowchart.display;whiteSpace=wrap;fontSize=11;" vertex="1" parent="WIyWlLk6GJQsqaUBKTNV-1">
          <mxGeometry x="28.75" y="831.5" width="130" height="73" as="geometry" />
        </mxCell>
        <mxCell id="ONeuCPQr-5bv9tZjdtYM-86" style="edgeStyle=orthogonalEdgeStyle;rounded=0;orthogonalLoop=1;jettySize=auto;html=1;exitX=0.5;exitY=1;exitDx=0;exitDy=0;exitPerimeter=0;entryX=0.5;entryY=0;entryDx=0;entryDy=0;" edge="1" parent="WIyWlLk6GJQsqaUBKTNV-1" source="ONeuCPQr-5bv9tZjdtYM-19" target="ONeuCPQr-5bv9tZjdtYM-85">
          <mxGeometry relative="1" as="geometry" />
        </mxCell>
        <mxCell id="ONeuCPQr-5bv9tZjdtYM-19" value="Initialize variables:&lt;div&gt;&lt;span style=&quot;background-color: initial;&quot;&gt;current_room: string&lt;/span&gt;&lt;br&gt;&lt;/div&gt;&lt;div&gt;map: Dictionary of Dictionaries&lt;/div&gt;&lt;div&gt;item_count: int&lt;/div&gt;" style="strokeWidth=2;html=1;shape=mxgraph.flowchart.stored_data;whiteSpace=wrap;" vertex="1" parent="WIyWlLk6GJQsqaUBKTNV-1">
          <mxGeometry x="-172.5" y="330" width="155" height="97" as="geometry" />
        </mxCell>
        <mxCell id="ONeuCPQr-5bv9tZjdtYM-20" style="edgeStyle=orthogonalEdgeStyle;rounded=0;orthogonalLoop=1;jettySize=auto;html=1;exitX=0.5;exitY=1;exitDx=0;exitDy=0;exitPerimeter=0;entryX=0.5;entryY=0;entryDx=0;entryDy=0;entryPerimeter=0;" edge="1" parent="WIyWlLk6GJQsqaUBKTNV-1" source="T340YZ7VDrdOijKoR2L3-0" target="ONeuCPQr-5bv9tZjdtYM-19">
          <mxGeometry relative="1" as="geometry" />
        </mxCell>
        <mxCell id="ONeuCPQr-5bv9tZjdtYM-26" value="PRINT: there&#39;s&lt;div style=&quot;font-size: 12px;&quot;&gt;nothing to pick up&lt;/div&gt;" style="strokeWidth=2;html=1;shape=mxgraph.flowchart.display;whiteSpace=wrap;fontSize=12;" vertex="1" parent="WIyWlLk6GJQsqaUBKTNV-1">
          <mxGeometry x="443" y="970" width="130" height="68" as="geometry" />
        </mxCell>
        <mxCell id="ONeuCPQr-5bv9tZjdtYM-33" value="" style="strokeWidth=2;html=1;shape=mxgraph.flowchart.annotation_2;align=left;labelPosition=right;pointerEvents=1;rotation=-180;" vertex="1" parent="WIyWlLk6GJQsqaUBKTNV-1">
          <mxGeometry x="-3" y="317.75" width="50" height="121.5" as="geometry" />
        </mxCell>
        <mxCell id="ONeuCPQr-5bv9tZjdtYM-34" value="map =&amp;nbsp;&lt;span style=&quot;background-color: initial;&quot;&gt;[&#39;room_name&#39;, &#39;room_desc&#39;,&amp;nbsp;&lt;/span&gt;&lt;span style=&quot;background-color: initial;&quot;&gt;&#39;directions&#39;, &#39;item&#39;, &#39;item_desc&#39;, bool: item_collected]&lt;/span&gt;" style="text;html=1;align=left;verticalAlign=middle;whiteSpace=wrap;rounded=0;" vertex="1" parent="WIyWlLk6GJQsqaUBKTNV-1">
          <mxGeometry x="55.5" y="363.5" width="464.5" height="30" as="geometry" />
        </mxCell>
        <mxCell id="ONeuCPQr-5bv9tZjdtYM-42" value="&lt;span style=&quot;text-wrap: wrap;&quot;&gt;YES&lt;/span&gt;" style="text;html=1;align=left;verticalAlign=middle;resizable=0;points=[];autosize=1;strokeColor=none;fillColor=none;" vertex="1" parent="WIyWlLk6GJQsqaUBKTNV-1">
          <mxGeometry x="136" y="1014" width="50" height="30" as="geometry" />
        </mxCell>
        <mxCell id="ONeuCPQr-5bv9tZjdtYM-58" value="IF INPUT ==&#39;P&#39;" style="strokeWidth=2;html=1;shape=mxgraph.flowchart.decision;whiteSpace=wrap;fontSize=12;" vertex="1" parent="WIyWlLk6GJQsqaUBKTNV-1">
          <mxGeometry x="32.5" y="964" width="122.5" height="80" as="geometry" />
        </mxCell>
        <mxCell id="ONeuCPQr-5bv9tZjdtYM-59" style="edgeStyle=orthogonalEdgeStyle;rounded=0;orthogonalLoop=1;jettySize=auto;html=1;exitX=1;exitY=0.5;exitDx=0;exitDy=0;exitPerimeter=0;entryX=0;entryY=0.5;entryDx=0;entryDy=0;entryPerimeter=0;" edge="1" parent="WIyWlLk6GJQsqaUBKTNV-1" source="ONeuCPQr-5bv9tZjdtYM-1" target="ONeuCPQr-5bv9tZjdtYM-58">
          <mxGeometry relative="1" as="geometry" />
        </mxCell>
        <mxCell id="ONeuCPQr-5bv9tZjdtYM-105" style="edgeStyle=orthogonalEdgeStyle;rounded=0;orthogonalLoop=1;jettySize=auto;html=1;exitX=0.5;exitY=0;exitDx=0;exitDy=0;exitPerimeter=0;entryX=0.5;entryY=1;entryDx=0;entryDy=0;" edge="1" parent="WIyWlLk6GJQsqaUBKTNV-1" source="ONeuCPQr-5bv9tZjdtYM-61" target="ONeuCPQr-5bv9tZjdtYM-75">
          <mxGeometry relative="1" as="geometry" />
        </mxCell>
        <mxCell id="ONeuCPQr-5bv9tZjdtYM-61" value="IF &lt;span style=&quot;background-color: initial;&quot;&gt;map.items_collected == true&lt;/span&gt;" style="strokeWidth=2;html=1;shape=mxgraph.flowchart.decision;whiteSpace=wrap;fontSize=12;" vertex="1" parent="WIyWlLk6GJQsqaUBKTNV-1">
          <mxGeometry x="189" y="958" width="220" height="92" as="geometry" />
        </mxCell>
        <mxCell id="ONeuCPQr-5bv9tZjdtYM-68" value="NO" style="text;html=1;align=center;verticalAlign=middle;whiteSpace=wrap;rounded=0;" vertex="1" parent="WIyWlLk6GJQsqaUBKTNV-1">
          <mxGeometry x="99" y="940" width="37" height="30" as="geometry" />
        </mxCell>
        <mxCell id="ONeuCPQr-5bv9tZjdtYM-69" style="edgeStyle=orthogonalEdgeStyle;rounded=0;orthogonalLoop=1;jettySize=auto;html=1;exitX=0.5;exitY=0;exitDx=0;exitDy=0;exitPerimeter=0;entryX=0.5;entryY=1;entryDx=0;entryDy=0;entryPerimeter=0;" edge="1" parent="WIyWlLk6GJQsqaUBKTNV-1" source="ONeuCPQr-5bv9tZjdtYM-58" target="ONeuCPQr-5bv9tZjdtYM-9">
          <mxGeometry relative="1" as="geometry" />
        </mxCell>
        <mxCell id="ONeuCPQr-5bv9tZjdtYM-70" style="edgeStyle=orthogonalEdgeStyle;rounded=0;orthogonalLoop=1;jettySize=auto;html=1;exitX=1;exitY=0.5;exitDx=0;exitDy=0;exitPerimeter=0;entryX=0;entryY=0.5;entryDx=0;entryDy=0;entryPerimeter=0;" edge="1" parent="WIyWlLk6GJQsqaUBKTNV-1" source="ONeuCPQr-5bv9tZjdtYM-58" target="ONeuCPQr-5bv9tZjdtYM-61">
          <mxGeometry relative="1" as="geometry" />
        </mxCell>
        <mxCell id="ONeuCPQr-5bv9tZjdtYM-71" value="&lt;span style=&quot;text-wrap: wrap;&quot;&gt;YES&lt;/span&gt;" style="text;html=1;align=left;verticalAlign=middle;resizable=0;points=[];autosize=1;strokeColor=none;fillColor=none;" vertex="1" parent="WIyWlLk6GJQsqaUBKTNV-1">
          <mxGeometry x="354" y="1011.5" width="50" height="30" as="geometry" />
        </mxCell>
        <mxCell id="ONeuCPQr-5bv9tZjdtYM-72" value="PRINT: you picked up that item" style="strokeWidth=2;html=1;shape=mxgraph.flowchart.display;whiteSpace=wrap;fontSize=12;" vertex="1" parent="WIyWlLk6GJQsqaUBKTNV-1">
          <mxGeometry x="244" y="680" width="110" height="85" as="geometry" />
        </mxCell>
        <mxCell id="ONeuCPQr-5bv9tZjdtYM-75" value="map.item_collected = true&lt;div&gt;item_count += 1&lt;/div&gt;" style="rounded=1;whiteSpace=wrap;html=1;absoluteArcSize=1;arcSize=14;strokeWidth=2;" vertex="1" parent="WIyWlLk6GJQsqaUBKTNV-1">
          <mxGeometry x="209" y="835" width="180" height="66" as="geometry" />
        </mxCell>
        <mxCell id="ONeuCPQr-5bv9tZjdtYM-77" value="NO" style="text;html=1;align=center;verticalAlign=middle;whiteSpace=wrap;rounded=0;" vertex="1" parent="WIyWlLk6GJQsqaUBKTNV-1">
          <mxGeometry x="315" y="940" width="37" height="30" as="geometry" />
        </mxCell>
        <mxCell id="ONeuCPQr-5bv9tZjdtYM-85" value="current_room=&#39;cryo&#39;" style="rounded=1;whiteSpace=wrap;html=1;absoluteArcSize=1;arcSize=14;strokeWidth=2;" vertex="1" parent="WIyWlLk6GJQsqaUBKTNV-1">
          <mxGeometry x="-190" y="479" width="190" height="40" as="geometry" />
        </mxCell>
        <mxCell id="ONeuCPQr-5bv9tZjdtYM-90" value="&lt;span style=&quot;text-wrap: wrap;&quot;&gt;YES&lt;/span&gt;" style="text;html=1;align=left;verticalAlign=middle;resizable=0;points=[];autosize=1;strokeColor=none;fillColor=none;" vertex="1" parent="WIyWlLk6GJQsqaUBKTNV-1">
          <mxGeometry x="-127" y="1044" width="50" height="30" as="geometry" />
        </mxCell>
        <mxCell id="ONeuCPQr-5bv9tZjdtYM-91" value="IF INPUT==&#39;N&#39;" style="strokeWidth=2;html=1;shape=mxgraph.flowchart.decision;whiteSpace=wrap;fontSize=12;" vertex="1" parent="WIyWlLk6GJQsqaUBKTNV-1">
          <mxGeometry x="-156.25" y="1120" width="122.5" height="80" as="geometry" />
        </mxCell>
        <mxCell id="ONeuCPQr-5bv9tZjdtYM-92" value="IF INPUT==&#39;E&#39;" style="strokeWidth=2;html=1;shape=mxgraph.flowchart.decision;whiteSpace=wrap;fontSize=12;" vertex="1" parent="WIyWlLk6GJQsqaUBKTNV-1">
          <mxGeometry x="83.87" y="1120" width="122.5" height="80" as="geometry" />
        </mxCell>
        <mxCell id="ONeuCPQr-5bv9tZjdtYM-93" value="IF INPUT==&#39;W&#39;" style="strokeWidth=2;html=1;shape=mxgraph.flowchart.decision;whiteSpace=wrap;fontSize=12;" vertex="1" parent="WIyWlLk6GJQsqaUBKTNV-1">
          <mxGeometry x="580.75" y="1120" width="122.5" height="80" as="geometry" />
        </mxCell>
        <mxCell id="ONeuCPQr-5bv9tZjdtYM-95" value="NO" style="text;html=1;align=center;verticalAlign=middle;whiteSpace=wrap;rounded=0;" vertex="1" parent="WIyWlLk6GJQsqaUBKTNV-1">
          <mxGeometry x="-45" y="1130" width="37" height="30" as="geometry" />
        </mxCell>
        <mxCell id="ONeuCPQr-5bv9tZjdtYM-96" value="NO" style="text;html=1;align=center;verticalAlign=middle;whiteSpace=wrap;rounded=0;" vertex="1" parent="WIyWlLk6GJQsqaUBKTNV-1">
          <mxGeometry x="196.62" y="1130" width="37" height="30" as="geometry" />
        </mxCell>
        <mxCell id="ONeuCPQr-5bv9tZjdtYM-97" value="NO" style="text;html=1;align=center;verticalAlign=middle;whiteSpace=wrap;rounded=0;" vertex="1" parent="WIyWlLk6GJQsqaUBKTNV-1">
          <mxGeometry x="703.25" y="1130" width="37" height="30" as="geometry" />
        </mxCell>
        <mxCell id="ONeuCPQr-5bv9tZjdtYM-99" style="edgeStyle=orthogonalEdgeStyle;rounded=0;orthogonalLoop=1;jettySize=auto;html=1;exitX=0.5;exitY=1;exitDx=0;exitDy=0;exitPerimeter=0;entryX=0.5;entryY=0;entryDx=0;entryDy=0;entryPerimeter=0;" edge="1" parent="WIyWlLk6GJQsqaUBKTNV-1" source="ONeuCPQr-5bv9tZjdtYM-1" target="ONeuCPQr-5bv9tZjdtYM-91">
          <mxGeometry relative="1" as="geometry" />
        </mxCell>
        <mxCell id="ONeuCPQr-5bv9tZjdtYM-100" style="edgeStyle=orthogonalEdgeStyle;rounded=0;orthogonalLoop=1;jettySize=auto;html=1;exitX=1;exitY=0.5;exitDx=0;exitDy=0;exitPerimeter=0;entryX=0;entryY=0.5;entryDx=0;entryDy=0;entryPerimeter=0;" edge="1" parent="WIyWlLk6GJQsqaUBKTNV-1" source="ONeuCPQr-5bv9tZjdtYM-91" target="ONeuCPQr-5bv9tZjdtYM-92">
          <mxGeometry relative="1" as="geometry" />
        </mxCell>
        <mxCell id="ONeuCPQr-5bv9tZjdtYM-101" style="edgeStyle=orthogonalEdgeStyle;rounded=0;orthogonalLoop=1;jettySize=auto;html=1;exitX=1;exitY=0.5;exitDx=0;exitDy=0;exitPerimeter=0;entryX=0;entryY=0.5;entryDx=0;entryDy=0;entryPerimeter=0;" edge="1" parent="WIyWlLk6GJQsqaUBKTNV-1" source="ONeuCPQr-5bv9tZjdtYM-92" target="ONeuCPQr-5bv9tZjdtYM-93">
          <mxGeometry relative="1" as="geometry" />
        </mxCell>
        <mxCell id="ONeuCPQr-5bv9tZjdtYM-103" style="edgeStyle=orthogonalEdgeStyle;rounded=0;orthogonalLoop=1;jettySize=auto;html=1;exitX=0.5;exitY=0;exitDx=0;exitDy=0;entryX=0.5;entryY=1;entryDx=0;entryDy=0;entryPerimeter=0;" edge="1" parent="WIyWlLk6GJQsqaUBKTNV-1" source="ONeuCPQr-5bv9tZjdtYM-75" target="ONeuCPQr-5bv9tZjdtYM-72">
          <mxGeometry relative="1" as="geometry" />
        </mxCell>
        <mxCell id="ONeuCPQr-5bv9tZjdtYM-106" style="edgeStyle=orthogonalEdgeStyle;rounded=0;orthogonalLoop=1;jettySize=auto;html=1;exitX=1;exitY=0.5;exitDx=0;exitDy=0;exitPerimeter=0;entryX=0;entryY=0.5;entryDx=0;entryDy=0;entryPerimeter=0;" edge="1" parent="WIyWlLk6GJQsqaUBKTNV-1" source="ONeuCPQr-5bv9tZjdtYM-61" target="ONeuCPQr-5bv9tZjdtYM-26">
          <mxGeometry relative="1" as="geometry" />
        </mxCell>
        <mxCell id="9ndEdKU9HdRyCCjR_hsN-221" style="edgeStyle=orthogonalEdgeStyle;rounded=0;orthogonalLoop=1;jettySize=auto;html=1;exitX=0.75;exitY=1;exitDx=0;exitDy=0;entryX=0.75;entryY=0;entryDx=0;entryDy=0;" edge="1" parent="WIyWlLk6GJQsqaUBKTNV-1" source="2Dw2_LjVEhzsJSwFTi1O-0" target="2Dw2_LjVEhzsJSwFTi1O-1">
          <mxGeometry relative="1" as="geometry" />
        </mxCell>
        <mxCell id="2Dw2_LjVEhzsJSwFTi1O-0" value="Bridge&lt;div&gt;Fan&lt;/div&gt;" style="whiteSpace=wrap;html=1;aspect=fixed;" vertex="1" parent="WIyWlLk6GJQsqaUBKTNV-1">
          <mxGeometry x="-990" y="449.25" width="100" height="100" as="geometry" />
        </mxCell>
        <mxCell id="9ndEdKU9HdRyCCjR_hsN-215" style="edgeStyle=orthogonalEdgeStyle;rounded=0;orthogonalLoop=1;jettySize=auto;html=1;exitX=0;exitY=0.75;exitDx=0;exitDy=0;entryX=1;entryY=0.75;entryDx=0;entryDy=0;" edge="1" parent="WIyWlLk6GJQsqaUBKTNV-1" source="2Dw2_LjVEhzsJSwFTi1O-1" target="2Dw2_LjVEhzsJSwFTi1O-4">
          <mxGeometry relative="1" as="geometry" />
        </mxCell>
        <mxCell id="9ndEdKU9HdRyCCjR_hsN-216" style="edgeStyle=orthogonalEdgeStyle;rounded=0;orthogonalLoop=1;jettySize=auto;html=1;exitX=1;exitY=0.25;exitDx=0;exitDy=0;entryX=0;entryY=0.25;entryDx=0;entryDy=0;" edge="1" parent="WIyWlLk6GJQsqaUBKTNV-1" source="2Dw2_LjVEhzsJSwFTi1O-1" target="2Dw2_LjVEhzsJSwFTi1O-2">
          <mxGeometry relative="1" as="geometry" />
        </mxCell>
        <mxCell id="9ndEdKU9HdRyCCjR_hsN-219" style="edgeStyle=orthogonalEdgeStyle;rounded=0;orthogonalLoop=1;jettySize=auto;html=1;exitX=0.25;exitY=0;exitDx=0;exitDy=0;entryX=0.25;entryY=1;entryDx=0;entryDy=0;" edge="1" parent="WIyWlLk6GJQsqaUBKTNV-1" source="2Dw2_LjVEhzsJSwFTi1O-1" target="2Dw2_LjVEhzsJSwFTi1O-0">
          <mxGeometry relative="1" as="geometry" />
        </mxCell>
        <mxCell id="9ndEdKU9HdRyCCjR_hsN-225" style="edgeStyle=orthogonalEdgeStyle;rounded=0;orthogonalLoop=1;jettySize=auto;html=1;exitX=0.75;exitY=1;exitDx=0;exitDy=0;entryX=0.75;entryY=0;entryDx=0;entryDy=0;" edge="1" parent="WIyWlLk6GJQsqaUBKTNV-1" source="2Dw2_LjVEhzsJSwFTi1O-1" target="2Dw2_LjVEhzsJSwFTi1O-3">
          <mxGeometry relative="1" as="geometry" />
        </mxCell>
        <mxCell id="2Dw2_LjVEhzsJSwFTi1O-1" value="Galley&lt;div&gt;Hand sanitizer&lt;/div&gt;" style="whiteSpace=wrap;html=1;aspect=fixed;" vertex="1" parent="WIyWlLk6GJQsqaUBKTNV-1">
          <mxGeometry x="-990" y="600" width="100" height="100" as="geometry" />
        </mxCell>
        <mxCell id="9ndEdKU9HdRyCCjR_hsN-218" style="edgeStyle=orthogonalEdgeStyle;rounded=0;orthogonalLoop=1;jettySize=auto;html=1;exitX=0;exitY=0.75;exitDx=0;exitDy=0;entryX=1;entryY=0.75;entryDx=0;entryDy=0;" edge="1" parent="WIyWlLk6GJQsqaUBKTNV-1" source="2Dw2_LjVEhzsJSwFTi1O-2" target="2Dw2_LjVEhzsJSwFTi1O-1">
          <mxGeometry relative="1" as="geometry" />
        </mxCell>
        <mxCell id="9ndEdKU9HdRyCCjR_hsN-231" style="edgeStyle=orthogonalEdgeStyle;rounded=0;orthogonalLoop=1;jettySize=auto;html=1;exitX=0.75;exitY=1;exitDx=0;exitDy=0;entryX=0.75;entryY=0;entryDx=0;entryDy=0;" edge="1" parent="WIyWlLk6GJQsqaUBKTNV-1" source="2Dw2_LjVEhzsJSwFTi1O-2" target="2Dw2_LjVEhzsJSwFTi1O-7">
          <mxGeometry relative="1" as="geometry" />
        </mxCell>
        <mxCell id="2Dw2_LjVEhzsJSwFTi1O-2" value="Medical&lt;div&gt;Laser scalpel&lt;/div&gt;" style="whiteSpace=wrap;html=1;aspect=fixed;" vertex="1" parent="WIyWlLk6GJQsqaUBKTNV-1">
          <mxGeometry x="-840" y="600" width="100" height="100" as="geometry" />
        </mxCell>
        <mxCell id="9ndEdKU9HdRyCCjR_hsN-224" style="edgeStyle=orthogonalEdgeStyle;rounded=0;orthogonalLoop=1;jettySize=auto;html=1;exitX=0.25;exitY=0;exitDx=0;exitDy=0;entryX=0.25;entryY=1;entryDx=0;entryDy=0;" edge="1" parent="WIyWlLk6GJQsqaUBKTNV-1" source="2Dw2_LjVEhzsJSwFTi1O-3" target="2Dw2_LjVEhzsJSwFTi1O-1">
          <mxGeometry relative="1" as="geometry" />
        </mxCell>
        <mxCell id="2Dw2_LjVEhzsJSwFTi1O-3" value="Core&lt;div&gt;[end: alien]&lt;/div&gt;" style="whiteSpace=wrap;html=1;aspect=fixed;" vertex="1" parent="WIyWlLk6GJQsqaUBKTNV-1">
          <mxGeometry x="-990" y="744.75" width="100" height="100" as="geometry" />
        </mxCell>
        <mxCell id="9ndEdKU9HdRyCCjR_hsN-214" style="edgeStyle=orthogonalEdgeStyle;rounded=0;orthogonalLoop=1;jettySize=auto;html=1;exitX=1;exitY=0.25;exitDx=0;exitDy=0;entryX=0;entryY=0.25;entryDx=0;entryDy=0;" edge="1" parent="WIyWlLk6GJQsqaUBKTNV-1" source="2Dw2_LjVEhzsJSwFTi1O-4" target="2Dw2_LjVEhzsJSwFTi1O-1">
          <mxGeometry relative="1" as="geometry" />
        </mxCell>
        <mxCell id="9ndEdKU9HdRyCCjR_hsN-223" style="edgeStyle=orthogonalEdgeStyle;rounded=0;orthogonalLoop=1;jettySize=auto;html=1;exitX=0.75;exitY=1;exitDx=0;exitDy=0;entryX=0.75;entryY=0;entryDx=0;entryDy=0;" edge="1" parent="WIyWlLk6GJQsqaUBKTNV-1" source="2Dw2_LjVEhzsJSwFTi1O-4" target="2Dw2_LjVEhzsJSwFTi1O-6">
          <mxGeometry relative="1" as="geometry" />
        </mxCell>
        <mxCell id="2Dw2_LjVEhzsJSwFTi1O-4" value="Cabin&lt;div&gt;Whiskey&lt;/div&gt;" style="whiteSpace=wrap;html=1;aspect=fixed;" vertex="1" parent="WIyWlLk6GJQsqaUBKTNV-1">
          <mxGeometry x="-1140" y="600" width="100" height="100" as="geometry" />
        </mxCell>
        <mxCell id="9ndEdKU9HdRyCCjR_hsN-227" style="edgeStyle=orthogonalEdgeStyle;rounded=0;orthogonalLoop=1;jettySize=auto;html=1;exitX=0;exitY=0.75;exitDx=0;exitDy=0;entryX=1;entryY=0.75;entryDx=0;entryDy=0;" edge="1" parent="WIyWlLk6GJQsqaUBKTNV-1" source="2Dw2_LjVEhzsJSwFTi1O-5" target="2Dw2_LjVEhzsJSwFTi1O-6">
          <mxGeometry relative="1" as="geometry" />
        </mxCell>
        <mxCell id="9ndEdKU9HdRyCCjR_hsN-228" style="edgeStyle=orthogonalEdgeStyle;rounded=0;orthogonalLoop=1;jettySize=auto;html=1;exitX=1;exitY=0.25;exitDx=0;exitDy=0;entryX=0;entryY=0.25;entryDx=0;entryDy=0;" edge="1" parent="WIyWlLk6GJQsqaUBKTNV-1" source="2Dw2_LjVEhzsJSwFTi1O-5" target="2Dw2_LjVEhzsJSwFTi1O-7">
          <mxGeometry relative="1" as="geometry" />
        </mxCell>
        <mxCell id="2Dw2_LjVEhzsJSwFTi1O-5" value="Cryochamber&lt;div&gt;[start]&lt;/div&gt;" style="whiteSpace=wrap;html=1;aspect=fixed;" vertex="1" parent="WIyWlLk6GJQsqaUBKTNV-1">
          <mxGeometry x="-990" y="887.75" width="100" height="100" as="geometry" />
        </mxCell>
        <mxCell id="9ndEdKU9HdRyCCjR_hsN-222" style="edgeStyle=orthogonalEdgeStyle;rounded=0;orthogonalLoop=1;jettySize=auto;html=1;exitX=0.25;exitY=0;exitDx=0;exitDy=0;entryX=0.25;entryY=1;entryDx=0;entryDy=0;" edge="1" parent="WIyWlLk6GJQsqaUBKTNV-1" source="2Dw2_LjVEhzsJSwFTi1O-6" target="2Dw2_LjVEhzsJSwFTi1O-4">
          <mxGeometry relative="1" as="geometry" />
        </mxCell>
        <mxCell id="9ndEdKU9HdRyCCjR_hsN-226" style="edgeStyle=orthogonalEdgeStyle;rounded=0;orthogonalLoop=1;jettySize=auto;html=1;exitX=1;exitY=0.25;exitDx=0;exitDy=0;entryX=0;entryY=0.25;entryDx=0;entryDy=0;" edge="1" parent="WIyWlLk6GJQsqaUBKTNV-1" source="2Dw2_LjVEhzsJSwFTi1O-6" target="2Dw2_LjVEhzsJSwFTi1O-5">
          <mxGeometry relative="1" as="geometry" />
        </mxCell>
        <mxCell id="2Dw2_LjVEhzsJSwFTi1O-6" value="Engineering&lt;div&gt;Foam sprayer&lt;/div&gt;" style="whiteSpace=wrap;html=1;aspect=fixed;" vertex="1" parent="WIyWlLk6GJQsqaUBKTNV-1">
          <mxGeometry x="-1140" y="887.75" width="100" height="100" as="geometry" />
        </mxCell>
        <mxCell id="9ndEdKU9HdRyCCjR_hsN-229" style="edgeStyle=orthogonalEdgeStyle;rounded=0;orthogonalLoop=1;jettySize=auto;html=1;exitX=0;exitY=0.75;exitDx=0;exitDy=0;entryX=1;entryY=0.75;entryDx=0;entryDy=0;" edge="1" parent="WIyWlLk6GJQsqaUBKTNV-1" source="2Dw2_LjVEhzsJSwFTi1O-7" target="2Dw2_LjVEhzsJSwFTi1O-5">
          <mxGeometry relative="1" as="geometry" />
        </mxCell>
        <mxCell id="9ndEdKU9HdRyCCjR_hsN-230" style="edgeStyle=orthogonalEdgeStyle;rounded=0;orthogonalLoop=1;jettySize=auto;html=1;exitX=0.25;exitY=0;exitDx=0;exitDy=0;entryX=0.25;entryY=1;entryDx=0;entryDy=0;" edge="1" parent="WIyWlLk6GJQsqaUBKTNV-1" source="2Dw2_LjVEhzsJSwFTi1O-7" target="2Dw2_LjVEhzsJSwFTi1O-2">
          <mxGeometry relative="1" as="geometry" />
        </mxCell>
        <mxCell id="2Dw2_LjVEhzsJSwFTi1O-7" value="Cargo&lt;div&gt;Duct tape&lt;/div&gt;" style="whiteSpace=wrap;html=1;aspect=fixed;" vertex="1" parent="WIyWlLk6GJQsqaUBKTNV-1">
          <mxGeometry x="-840" y="887.75" width="100" height="100" as="geometry" />
        </mxCell>
        <mxCell id="2Dw2_LjVEhzsJSwFTi1O-18" value="MAP" style="text;html=1;align=center;verticalAlign=middle;whiteSpace=wrap;rounded=0;fontSize=24;" vertex="1" parent="WIyWlLk6GJQsqaUBKTNV-1">
          <mxGeometry x="-970" y="389.25" width="60" height="30" as="geometry" />
        </mxCell>
        <mxCell id="2Dw2_LjVEhzsJSwFTi1O-29" style="edgeStyle=orthogonalEdgeStyle;rounded=0;orthogonalLoop=1;jettySize=auto;html=1;exitX=0.5;exitY=0;exitDx=0;exitDy=0;exitPerimeter=0;entryX=0.5;entryY=1;entryDx=0;entryDy=0;entryPerimeter=0;" edge="1" parent="WIyWlLk6GJQsqaUBKTNV-1" source="ONeuCPQr-5bv9tZjdtYM-26" target="n5li9rgPJ2HlH9Pd9VCV-91">
          <mxGeometry relative="1" as="geometry" />
        </mxCell>
        <mxCell id="n5li9rgPJ2HlH9Pd9VCV-10" style="edgeStyle=orthogonalEdgeStyle;rounded=0;orthogonalLoop=1;jettySize=auto;html=1;exitX=0;exitY=0.5;exitDx=0;exitDy=0;exitPerimeter=0;entryX=1;entryY=0.5;entryDx=0;entryDy=0;" edge="1" parent="WIyWlLk6GJQsqaUBKTNV-1" source="2Dw2_LjVEhzsJSwFTi1O-30" target="n5li9rgPJ2HlH9Pd9VCV-6">
          <mxGeometry relative="1" as="geometry" />
        </mxCell>
        <mxCell id="2Dw2_LjVEhzsJSwFTi1O-30" value="IF current_room==&#39;galley&#39;" style="strokeWidth=2;html=1;shape=mxgraph.flowchart.decision;whiteSpace=wrap;fontSize=12;" vertex="1" parent="WIyWlLk6GJQsqaUBKTNV-1">
          <mxGeometry x="-193.13" y="1320" width="196.25" height="60" as="geometry" />
        </mxCell>
        <mxCell id="2Dw2_LjVEhzsJSwFTi1O-31" style="edgeStyle=orthogonalEdgeStyle;rounded=0;orthogonalLoop=1;jettySize=auto;html=1;exitX=0.5;exitY=1;exitDx=0;exitDy=0;exitPerimeter=0;entryX=0.5;entryY=0;entryDx=0;entryDy=0;entryPerimeter=0;" edge="1" parent="WIyWlLk6GJQsqaUBKTNV-1" source="ONeuCPQr-5bv9tZjdtYM-91" target="2Dw2_LjVEhzsJSwFTi1O-30">
          <mxGeometry relative="1" as="geometry" />
        </mxCell>
        <mxCell id="n5li9rgPJ2HlH9Pd9VCV-9" style="edgeStyle=orthogonalEdgeStyle;rounded=0;orthogonalLoop=1;jettySize=auto;html=1;exitX=0;exitY=0.5;exitDx=0;exitDy=0;exitPerimeter=0;entryX=1;entryY=0.5;entryDx=0;entryDy=0;" edge="1" parent="WIyWlLk6GJQsqaUBKTNV-1" source="n5li9rgPJ2HlH9Pd9VCV-0" target="n5li9rgPJ2HlH9Pd9VCV-7">
          <mxGeometry relative="1" as="geometry" />
        </mxCell>
        <mxCell id="n5li9rgPJ2HlH9Pd9VCV-0" value="IF current_room==&#39;cargo&#39;" style="strokeWidth=2;html=1;shape=mxgraph.flowchart.decision;whiteSpace=wrap;fontSize=12;" vertex="1" parent="WIyWlLk6GJQsqaUBKTNV-1">
          <mxGeometry x="-193.12" y="1410" width="196.25" height="60" as="geometry" />
        </mxCell>
        <mxCell id="n5li9rgPJ2HlH9Pd9VCV-2" style="edgeStyle=orthogonalEdgeStyle;rounded=0;orthogonalLoop=1;jettySize=auto;html=1;exitX=0.5;exitY=1;exitDx=0;exitDy=0;exitPerimeter=0;entryX=0.5;entryY=0;entryDx=0;entryDy=0;entryPerimeter=0;" edge="1" parent="WIyWlLk6GJQsqaUBKTNV-1" source="2Dw2_LjVEhzsJSwFTi1O-30" target="n5li9rgPJ2HlH9Pd9VCV-0">
          <mxGeometry relative="1" as="geometry" />
        </mxCell>
        <mxCell id="n5li9rgPJ2HlH9Pd9VCV-3" style="edgeStyle=orthogonalEdgeStyle;rounded=0;orthogonalLoop=1;jettySize=auto;html=1;exitX=0.5;exitY=1;exitDx=0;exitDy=0;exitPerimeter=0;entryX=1;entryY=0.5;entryDx=0;entryDy=0;" edge="1" parent="WIyWlLk6GJQsqaUBKTNV-1" source="n5li9rgPJ2HlH9Pd9VCV-0" target="n5li9rgPJ2HlH9Pd9VCV-8">
          <mxGeometry relative="1" as="geometry">
            <mxPoint x="-94.99499999999966" y="1500" as="targetPoint" />
          </mxGeometry>
        </mxCell>
        <mxCell id="n5li9rgPJ2HlH9Pd9VCV-4" value="NO" style="text;html=1;align=center;verticalAlign=middle;whiteSpace=wrap;rounded=0;" vertex="1" parent="WIyWlLk6GJQsqaUBKTNV-1">
          <mxGeometry x="-130" y="1380" width="37" height="30" as="geometry" />
        </mxCell>
        <mxCell id="n5li9rgPJ2HlH9Pd9VCV-5" value="NO" style="text;html=1;align=center;verticalAlign=middle;whiteSpace=wrap;rounded=0;" vertex="1" parent="WIyWlLk6GJQsqaUBKTNV-1">
          <mxGeometry x="-130" y="1470" width="37" height="30" as="geometry" />
        </mxCell>
        <mxCell id="n5li9rgPJ2HlH9Pd9VCV-6" value="current_room=&#39;bridge&#39;" style="rounded=1;whiteSpace=wrap;html=1;absoluteArcSize=1;arcSize=14;strokeWidth=2;" vertex="1" parent="WIyWlLk6GJQsqaUBKTNV-1">
          <mxGeometry x="-400" y="1330" width="150" height="40" as="geometry" />
        </mxCell>
        <mxCell id="n5li9rgPJ2HlH9Pd9VCV-7" value="current_room=&#39;med&#39;" style="rounded=1;whiteSpace=wrap;html=1;absoluteArcSize=1;arcSize=14;strokeWidth=2;" vertex="1" parent="WIyWlLk6GJQsqaUBKTNV-1">
          <mxGeometry x="-400" y="1420" width="150" height="40" as="geometry" />
        </mxCell>
        <mxCell id="n5li9rgPJ2HlH9Pd9VCV-8" value="current_room=&#39;cabin&#39;" style="rounded=1;whiteSpace=wrap;html=1;absoluteArcSize=1;arcSize=14;strokeWidth=2;" vertex="1" parent="WIyWlLk6GJQsqaUBKTNV-1">
          <mxGeometry x="-400" y="1510" width="150" height="40" as="geometry" />
        </mxCell>
        <mxCell id="n5li9rgPJ2HlH9Pd9VCV-22" style="edgeStyle=orthogonalEdgeStyle;rounded=0;orthogonalLoop=1;jettySize=auto;html=1;entryX=0;entryY=0.5;entryDx=0;entryDy=0;" edge="1" parent="WIyWlLk6GJQsqaUBKTNV-1" source="n5li9rgPJ2HlH9Pd9VCV-11" target="n5li9rgPJ2HlH9Pd9VCV-15">
          <mxGeometry relative="1" as="geometry" />
        </mxCell>
        <mxCell id="n5li9rgPJ2HlH9Pd9VCV-11" value="IF current_room==&#39;eng&#39;" style="strokeWidth=2;html=1;shape=mxgraph.flowchart.decision;whiteSpace=wrap;fontSize=12;" vertex="1" parent="WIyWlLk6GJQsqaUBKTNV-1">
          <mxGeometry x="47" y="1320" width="196.25" height="60" as="geometry" />
        </mxCell>
        <mxCell id="n5li9rgPJ2HlH9Pd9VCV-12" style="edgeStyle=orthogonalEdgeStyle;rounded=0;orthogonalLoop=1;jettySize=auto;html=1;exitX=0.5;exitY=1;exitDx=0;exitDy=0;exitPerimeter=0;entryX=0.5;entryY=0;entryDx=0;entryDy=0;entryPerimeter=0;" edge="1" parent="WIyWlLk6GJQsqaUBKTNV-1" source="ONeuCPQr-5bv9tZjdtYM-92" target="n5li9rgPJ2HlH9Pd9VCV-11">
          <mxGeometry relative="1" as="geometry" />
        </mxCell>
        <mxCell id="n5li9rgPJ2HlH9Pd9VCV-13" value="IF current_room==&#39;cabin&#39;" style="strokeWidth=2;html=1;shape=mxgraph.flowchart.decision;whiteSpace=wrap;fontSize=12;" vertex="1" parent="WIyWlLk6GJQsqaUBKTNV-1">
          <mxGeometry x="47" y="1410" width="196.25" height="60" as="geometry" />
        </mxCell>
        <mxCell id="n5li9rgPJ2HlH9Pd9VCV-24" style="edgeStyle=orthogonalEdgeStyle;rounded=0;orthogonalLoop=1;jettySize=auto;html=1;exitX=1;exitY=0.5;exitDx=0;exitDy=0;exitPerimeter=0;entryX=0;entryY=0.5;entryDx=0;entryDy=0;" edge="1" parent="WIyWlLk6GJQsqaUBKTNV-1" source="n5li9rgPJ2HlH9Pd9VCV-14" target="n5li9rgPJ2HlH9Pd9VCV-17">
          <mxGeometry relative="1" as="geometry" />
        </mxCell>
        <mxCell id="n5li9rgPJ2HlH9Pd9VCV-25" style="edgeStyle=orthogonalEdgeStyle;rounded=0;orthogonalLoop=1;jettySize=auto;html=1;exitX=0.5;exitY=1;exitDx=0;exitDy=0;exitPerimeter=0;entryX=0;entryY=0.5;entryDx=0;entryDy=0;" edge="1" parent="WIyWlLk6GJQsqaUBKTNV-1" source="n5li9rgPJ2HlH9Pd9VCV-14" target="n5li9rgPJ2HlH9Pd9VCV-18">
          <mxGeometry relative="1" as="geometry" />
        </mxCell>
        <mxCell id="n5li9rgPJ2HlH9Pd9VCV-14" value="IF current_room==&#39;galley&#39;" style="strokeWidth=2;html=1;shape=mxgraph.flowchart.decision;whiteSpace=wrap;fontSize=12;" vertex="1" parent="WIyWlLk6GJQsqaUBKTNV-1">
          <mxGeometry x="47" y="1500" width="196.25" height="60" as="geometry" />
        </mxCell>
        <mxCell id="n5li9rgPJ2HlH9Pd9VCV-15" value="current_room=&#39;cryo&#39;" style="rounded=1;whiteSpace=wrap;html=1;absoluteArcSize=1;arcSize=14;strokeWidth=2;" vertex="1" parent="WIyWlLk6GJQsqaUBKTNV-1">
          <mxGeometry x="276.87" y="1330" width="150" height="40" as="geometry" />
        </mxCell>
        <mxCell id="n5li9rgPJ2HlH9Pd9VCV-16" value="current_room=&#39;galley&#39;" style="rounded=1;whiteSpace=wrap;html=1;absoluteArcSize=1;arcSize=14;strokeWidth=2;" vertex="1" parent="WIyWlLk6GJQsqaUBKTNV-1">
          <mxGeometry x="276.87" y="1419" width="150" height="40" as="geometry" />
        </mxCell>
        <mxCell id="n5li9rgPJ2HlH9Pd9VCV-17" value="current_room=&#39;med&#39;" style="rounded=1;whiteSpace=wrap;html=1;absoluteArcSize=1;arcSize=14;strokeWidth=2;" vertex="1" parent="WIyWlLk6GJQsqaUBKTNV-1">
          <mxGeometry x="276.87" y="1510" width="150" height="40" as="geometry" />
        </mxCell>
        <mxCell id="n5li9rgPJ2HlH9Pd9VCV-18" value="current_room=&#39;cargo&#39;" style="rounded=1;whiteSpace=wrap;html=1;absoluteArcSize=1;arcSize=14;strokeWidth=2;" vertex="1" parent="WIyWlLk6GJQsqaUBKTNV-1">
          <mxGeometry x="277.12" y="1600" width="150" height="40" as="geometry" />
        </mxCell>
        <mxCell id="n5li9rgPJ2HlH9Pd9VCV-19" value="NO" style="text;html=1;align=center;verticalAlign=middle;whiteSpace=wrap;rounded=0;" vertex="1" parent="WIyWlLk6GJQsqaUBKTNV-1">
          <mxGeometry x="106.87" y="1380" width="37" height="30" as="geometry" />
        </mxCell>
        <mxCell id="n5li9rgPJ2HlH9Pd9VCV-20" style="edgeStyle=orthogonalEdgeStyle;rounded=0;orthogonalLoop=1;jettySize=auto;html=1;exitX=0.5;exitY=1;exitDx=0;exitDy=0;exitPerimeter=0;entryX=0.5;entryY=0;entryDx=0;entryDy=0;entryPerimeter=0;" edge="1" parent="WIyWlLk6GJQsqaUBKTNV-1" source="n5li9rgPJ2HlH9Pd9VCV-11" target="n5li9rgPJ2HlH9Pd9VCV-13">
          <mxGeometry relative="1" as="geometry" />
        </mxCell>
        <mxCell id="n5li9rgPJ2HlH9Pd9VCV-21" style="edgeStyle=orthogonalEdgeStyle;rounded=0;orthogonalLoop=1;jettySize=auto;html=1;exitX=0.5;exitY=1;exitDx=0;exitDy=0;exitPerimeter=0;entryX=0.5;entryY=0;entryDx=0;entryDy=0;entryPerimeter=0;" edge="1" parent="WIyWlLk6GJQsqaUBKTNV-1" source="n5li9rgPJ2HlH9Pd9VCV-13" target="n5li9rgPJ2HlH9Pd9VCV-14">
          <mxGeometry relative="1" as="geometry" />
        </mxCell>
        <mxCell id="n5li9rgPJ2HlH9Pd9VCV-26" style="edgeStyle=orthogonalEdgeStyle;rounded=0;orthogonalLoop=1;jettySize=auto;html=1;exitX=1;exitY=0.5;exitDx=0;exitDy=0;exitPerimeter=0;entryX=0.018;entryY=0.533;entryDx=0;entryDy=0;entryPerimeter=0;" edge="1" parent="WIyWlLk6GJQsqaUBKTNV-1" source="n5li9rgPJ2HlH9Pd9VCV-13" target="n5li9rgPJ2HlH9Pd9VCV-16">
          <mxGeometry relative="1" as="geometry" />
        </mxCell>
        <mxCell id="n5li9rgPJ2HlH9Pd9VCV-27" value="NO" style="text;html=1;align=center;verticalAlign=middle;whiteSpace=wrap;rounded=0;" vertex="1" parent="WIyWlLk6GJQsqaUBKTNV-1">
          <mxGeometry x="106.87" y="1470" width="37" height="30" as="geometry" />
        </mxCell>
        <mxCell id="n5li9rgPJ2HlH9Pd9VCV-28" value="NO" style="text;html=1;align=center;verticalAlign=middle;whiteSpace=wrap;rounded=0;" vertex="1" parent="WIyWlLk6GJQsqaUBKTNV-1">
          <mxGeometry x="106.87" y="1560" width="37" height="30" as="geometry" />
        </mxCell>
        <mxCell id="n5li9rgPJ2HlH9Pd9VCV-29" value="&lt;span style=&quot;text-wrap: wrap;&quot;&gt;YES&lt;/span&gt;" style="text;html=1;align=left;verticalAlign=middle;resizable=0;points=[];autosize=1;strokeColor=none;fillColor=none;" vertex="1" parent="WIyWlLk6GJQsqaUBKTNV-1">
          <mxGeometry x="-210" y="1320" width="50" height="30" as="geometry" />
        </mxCell>
        <mxCell id="n5li9rgPJ2HlH9Pd9VCV-30" value="&lt;span style=&quot;text-wrap: wrap;&quot;&gt;YES&lt;/span&gt;" style="text;html=1;align=left;verticalAlign=middle;resizable=0;points=[];autosize=1;strokeColor=none;fillColor=none;" vertex="1" parent="WIyWlLk6GJQsqaUBKTNV-1">
          <mxGeometry x="-210" y="1410" width="50" height="30" as="geometry" />
        </mxCell>
        <mxCell id="n5li9rgPJ2HlH9Pd9VCV-31" value="&lt;span style=&quot;text-wrap: wrap;&quot;&gt;YES&lt;/span&gt;" style="text;html=1;align=left;verticalAlign=middle;resizable=0;points=[];autosize=1;strokeColor=none;fillColor=none;" vertex="1" parent="WIyWlLk6GJQsqaUBKTNV-1">
          <mxGeometry x="227.12" y="1320" width="50" height="30" as="geometry" />
        </mxCell>
        <mxCell id="n5li9rgPJ2HlH9Pd9VCV-32" value="&lt;span style=&quot;text-wrap: wrap;&quot;&gt;YES&lt;/span&gt;" style="text;html=1;align=left;verticalAlign=middle;resizable=0;points=[];autosize=1;strokeColor=none;fillColor=none;" vertex="1" parent="WIyWlLk6GJQsqaUBKTNV-1">
          <mxGeometry x="226.87" y="1410" width="50" height="30" as="geometry" />
        </mxCell>
        <mxCell id="n5li9rgPJ2HlH9Pd9VCV-33" value="&lt;span style=&quot;text-wrap: wrap;&quot;&gt;YES&lt;/span&gt;" style="text;html=1;align=left;verticalAlign=middle;resizable=0;points=[];autosize=1;strokeColor=none;fillColor=none;" vertex="1" parent="WIyWlLk6GJQsqaUBKTNV-1">
          <mxGeometry x="223.12" y="1500" width="50" height="30" as="geometry" />
        </mxCell>
        <mxCell id="n5li9rgPJ2HlH9Pd9VCV-34" style="edgeStyle=orthogonalEdgeStyle;rounded=0;orthogonalLoop=1;jettySize=auto;html=1;entryX=0;entryY=0.5;entryDx=0;entryDy=0;" edge="1" parent="WIyWlLk6GJQsqaUBKTNV-1" source="n5li9rgPJ2HlH9Pd9VCV-35" target="n5li9rgPJ2HlH9Pd9VCV-40">
          <mxGeometry relative="1" as="geometry" />
        </mxCell>
        <mxCell id="n5li9rgPJ2HlH9Pd9VCV-35" value="IF current_room==&#39;bridge&#39;" style="strokeWidth=2;html=1;shape=mxgraph.flowchart.decision;whiteSpace=wrap;fontSize=12;" vertex="1" parent="WIyWlLk6GJQsqaUBKTNV-1">
          <mxGeometry x="1061.87" y="1320" width="196.25" height="60" as="geometry" />
        </mxCell>
        <mxCell id="n5li9rgPJ2HlH9Pd9VCV-36" value="IF current_room==&#39;cabin&#39;" style="strokeWidth=2;html=1;shape=mxgraph.flowchart.decision;whiteSpace=wrap;fontSize=12;" vertex="1" parent="WIyWlLk6GJQsqaUBKTNV-1">
          <mxGeometry x="1061.87" y="1410" width="196.25" height="60" as="geometry" />
        </mxCell>
        <mxCell id="n5li9rgPJ2HlH9Pd9VCV-37" style="edgeStyle=orthogonalEdgeStyle;rounded=0;orthogonalLoop=1;jettySize=auto;html=1;exitX=1;exitY=0.5;exitDx=0;exitDy=0;exitPerimeter=0;entryX=0;entryY=0.5;entryDx=0;entryDy=0;" edge="1" parent="WIyWlLk6GJQsqaUBKTNV-1" source="n5li9rgPJ2HlH9Pd9VCV-39" target="n5li9rgPJ2HlH9Pd9VCV-42">
          <mxGeometry relative="1" as="geometry" />
        </mxCell>
        <mxCell id="n5li9rgPJ2HlH9Pd9VCV-82" style="edgeStyle=orthogonalEdgeStyle;rounded=0;orthogonalLoop=1;jettySize=auto;html=1;exitX=0.5;exitY=1;exitDx=0;exitDy=0;exitPerimeter=0;entryX=0.5;entryY=0;entryDx=0;entryDy=0;entryPerimeter=0;" edge="1" parent="WIyWlLk6GJQsqaUBKTNV-1" source="n5li9rgPJ2HlH9Pd9VCV-39" target="9ndEdKU9HdRyCCjR_hsN-186">
          <mxGeometry relative="1" as="geometry">
            <mxPoint x="1160" y="1685" as="targetPoint" />
          </mxGeometry>
        </mxCell>
        <mxCell id="n5li9rgPJ2HlH9Pd9VCV-39" value="IF current_room==&#39;med&#39;" style="strokeWidth=2;html=1;shape=mxgraph.flowchart.decision;whiteSpace=wrap;fontSize=12;" vertex="1" parent="WIyWlLk6GJQsqaUBKTNV-1">
          <mxGeometry x="1061.87" y="1500" width="196.25" height="60" as="geometry" />
        </mxCell>
        <mxCell id="n5li9rgPJ2HlH9Pd9VCV-40" value="current_room=&#39;galley&#39;" style="rounded=1;whiteSpace=wrap;html=1;absoluteArcSize=1;arcSize=14;strokeWidth=2;" vertex="1" parent="WIyWlLk6GJQsqaUBKTNV-1">
          <mxGeometry x="1291.7399999999998" y="1330" width="150" height="40" as="geometry" />
        </mxCell>
        <mxCell id="n5li9rgPJ2HlH9Pd9VCV-41" value="current_room=&#39;eng&#39;" style="rounded=1;whiteSpace=wrap;html=1;absoluteArcSize=1;arcSize=14;strokeWidth=2;" vertex="1" parent="WIyWlLk6GJQsqaUBKTNV-1">
          <mxGeometry x="1291.7399999999998" y="1419" width="150" height="40" as="geometry" />
        </mxCell>
        <mxCell id="n5li9rgPJ2HlH9Pd9VCV-42" value="current_room=&#39;cargo&#39;" style="rounded=1;whiteSpace=wrap;html=1;absoluteArcSize=1;arcSize=14;strokeWidth=2;" vertex="1" parent="WIyWlLk6GJQsqaUBKTNV-1">
          <mxGeometry x="1291.7399999999998" y="1510" width="150" height="40" as="geometry" />
        </mxCell>
        <mxCell id="n5li9rgPJ2HlH9Pd9VCV-44" value="NO" style="text;html=1;align=center;verticalAlign=middle;whiteSpace=wrap;rounded=0;" vertex="1" parent="WIyWlLk6GJQsqaUBKTNV-1">
          <mxGeometry x="1121.7399999999998" y="1380" width="37" height="30" as="geometry" />
        </mxCell>
        <mxCell id="n5li9rgPJ2HlH9Pd9VCV-45" style="edgeStyle=orthogonalEdgeStyle;rounded=0;orthogonalLoop=1;jettySize=auto;html=1;exitX=0.5;exitY=1;exitDx=0;exitDy=0;exitPerimeter=0;entryX=0.5;entryY=0;entryDx=0;entryDy=0;entryPerimeter=0;" edge="1" parent="WIyWlLk6GJQsqaUBKTNV-1" source="n5li9rgPJ2HlH9Pd9VCV-35" target="n5li9rgPJ2HlH9Pd9VCV-36">
          <mxGeometry relative="1" as="geometry" />
        </mxCell>
        <mxCell id="n5li9rgPJ2HlH9Pd9VCV-46" style="edgeStyle=orthogonalEdgeStyle;rounded=0;orthogonalLoop=1;jettySize=auto;html=1;exitX=0.5;exitY=1;exitDx=0;exitDy=0;exitPerimeter=0;entryX=0.5;entryY=0;entryDx=0;entryDy=0;entryPerimeter=0;" edge="1" parent="WIyWlLk6GJQsqaUBKTNV-1" source="n5li9rgPJ2HlH9Pd9VCV-36" target="n5li9rgPJ2HlH9Pd9VCV-39">
          <mxGeometry relative="1" as="geometry" />
        </mxCell>
        <mxCell id="n5li9rgPJ2HlH9Pd9VCV-47" style="edgeStyle=orthogonalEdgeStyle;rounded=0;orthogonalLoop=1;jettySize=auto;html=1;exitX=1;exitY=0.5;exitDx=0;exitDy=0;exitPerimeter=0;entryX=0.018;entryY=0.533;entryDx=0;entryDy=0;entryPerimeter=0;" edge="1" parent="WIyWlLk6GJQsqaUBKTNV-1" source="n5li9rgPJ2HlH9Pd9VCV-36" target="n5li9rgPJ2HlH9Pd9VCV-41">
          <mxGeometry relative="1" as="geometry" />
        </mxCell>
        <mxCell id="n5li9rgPJ2HlH9Pd9VCV-48" value="NO" style="text;html=1;align=center;verticalAlign=middle;whiteSpace=wrap;rounded=0;" vertex="1" parent="WIyWlLk6GJQsqaUBKTNV-1">
          <mxGeometry x="1121.7399999999998" y="1470" width="37" height="30" as="geometry" />
        </mxCell>
        <mxCell id="n5li9rgPJ2HlH9Pd9VCV-49" value="NO" style="text;html=1;align=center;verticalAlign=middle;whiteSpace=wrap;rounded=0;" vertex="1" parent="WIyWlLk6GJQsqaUBKTNV-1">
          <mxGeometry x="1121.7399999999998" y="1560" width="37" height="30" as="geometry" />
        </mxCell>
        <mxCell id="n5li9rgPJ2HlH9Pd9VCV-50" value="&lt;span style=&quot;text-wrap: wrap;&quot;&gt;YES&lt;/span&gt;" style="text;html=1;align=left;verticalAlign=middle;resizable=0;points=[];autosize=1;strokeColor=none;fillColor=none;" vertex="1" parent="WIyWlLk6GJQsqaUBKTNV-1">
          <mxGeometry x="1241.9899999999998" y="1320" width="50" height="30" as="geometry" />
        </mxCell>
        <mxCell id="n5li9rgPJ2HlH9Pd9VCV-51" value="&lt;span style=&quot;text-wrap: wrap;&quot;&gt;YES&lt;/span&gt;" style="text;html=1;align=left;verticalAlign=middle;resizable=0;points=[];autosize=1;strokeColor=none;fillColor=none;" vertex="1" parent="WIyWlLk6GJQsqaUBKTNV-1">
          <mxGeometry x="1241.7399999999998" y="1410" width="50" height="30" as="geometry" />
        </mxCell>
        <mxCell id="n5li9rgPJ2HlH9Pd9VCV-52" value="&lt;span style=&quot;text-wrap: wrap;&quot;&gt;YES&lt;/span&gt;" style="text;html=1;align=left;verticalAlign=middle;resizable=0;points=[];autosize=1;strokeColor=none;fillColor=none;" vertex="1" parent="WIyWlLk6GJQsqaUBKTNV-1">
          <mxGeometry x="1237.9899999999998" y="1500" width="50" height="30" as="geometry" />
        </mxCell>
        <mxCell id="n5li9rgPJ2HlH9Pd9VCV-54" style="edgeStyle=orthogonalEdgeStyle;rounded=0;orthogonalLoop=1;jettySize=auto;html=1;entryX=0;entryY=0.5;entryDx=0;entryDy=0;" edge="1" parent="WIyWlLk6GJQsqaUBKTNV-1" source="n5li9rgPJ2HlH9Pd9VCV-55" target="n5li9rgPJ2HlH9Pd9VCV-60">
          <mxGeometry relative="1" as="geometry" />
        </mxCell>
        <mxCell id="n5li9rgPJ2HlH9Pd9VCV-55" value="IF current_room==&#39;cargo&#39;" style="strokeWidth=2;html=1;shape=mxgraph.flowchart.decision;whiteSpace=wrap;fontSize=12;" vertex="1" parent="WIyWlLk6GJQsqaUBKTNV-1">
          <mxGeometry x="544" y="1320" width="196.25" height="60" as="geometry" />
        </mxCell>
        <mxCell id="n5li9rgPJ2HlH9Pd9VCV-56" value="IF current_room==&#39;galley&#39;" style="strokeWidth=2;html=1;shape=mxgraph.flowchart.decision;whiteSpace=wrap;fontSize=12;" vertex="1" parent="WIyWlLk6GJQsqaUBKTNV-1">
          <mxGeometry x="544" y="1410" width="196.25" height="60" as="geometry" />
        </mxCell>
        <mxCell id="n5li9rgPJ2HlH9Pd9VCV-57" style="edgeStyle=orthogonalEdgeStyle;rounded=0;orthogonalLoop=1;jettySize=auto;html=1;exitX=1;exitY=0.5;exitDx=0;exitDy=0;exitPerimeter=0;entryX=0;entryY=0.5;entryDx=0;entryDy=0;" edge="1" parent="WIyWlLk6GJQsqaUBKTNV-1" source="n5li9rgPJ2HlH9Pd9VCV-59" target="n5li9rgPJ2HlH9Pd9VCV-62">
          <mxGeometry relative="1" as="geometry" />
        </mxCell>
        <mxCell id="n5li9rgPJ2HlH9Pd9VCV-58" style="edgeStyle=orthogonalEdgeStyle;rounded=0;orthogonalLoop=1;jettySize=auto;html=1;exitX=0.5;exitY=1;exitDx=0;exitDy=0;exitPerimeter=0;entryX=0;entryY=0.5;entryDx=0;entryDy=0;" edge="1" parent="WIyWlLk6GJQsqaUBKTNV-1" source="n5li9rgPJ2HlH9Pd9VCV-59" target="n5li9rgPJ2HlH9Pd9VCV-63">
          <mxGeometry relative="1" as="geometry" />
        </mxCell>
        <mxCell id="n5li9rgPJ2HlH9Pd9VCV-59" value="IF current_room==&#39;med&#39;" style="strokeWidth=2;html=1;shape=mxgraph.flowchart.decision;whiteSpace=wrap;fontSize=12;" vertex="1" parent="WIyWlLk6GJQsqaUBKTNV-1">
          <mxGeometry x="544" y="1500" width="196.25" height="60" as="geometry" />
        </mxCell>
        <mxCell id="n5li9rgPJ2HlH9Pd9VCV-60" value="current_room=&#39;cryo&#39;" style="rounded=1;whiteSpace=wrap;html=1;absoluteArcSize=1;arcSize=14;strokeWidth=2;" vertex="1" parent="WIyWlLk6GJQsqaUBKTNV-1">
          <mxGeometry x="773.87" y="1330" width="150" height="40" as="geometry" />
        </mxCell>
        <mxCell id="n5li9rgPJ2HlH9Pd9VCV-61" value="current_room=&#39;cabin&#39;" style="rounded=1;whiteSpace=wrap;html=1;absoluteArcSize=1;arcSize=14;strokeWidth=2;" vertex="1" parent="WIyWlLk6GJQsqaUBKTNV-1">
          <mxGeometry x="773.87" y="1419" width="150" height="40" as="geometry" />
        </mxCell>
        <mxCell id="n5li9rgPJ2HlH9Pd9VCV-62" value="current_room=&#39;galley&#39;" style="rounded=1;whiteSpace=wrap;html=1;absoluteArcSize=1;arcSize=14;strokeWidth=2;" vertex="1" parent="WIyWlLk6GJQsqaUBKTNV-1">
          <mxGeometry x="773.87" y="1510" width="150" height="40" as="geometry" />
        </mxCell>
        <mxCell id="n5li9rgPJ2HlH9Pd9VCV-63" value="current_room=&#39;eng&#39;" style="rounded=1;whiteSpace=wrap;html=1;absoluteArcSize=1;arcSize=14;strokeWidth=2;" vertex="1" parent="WIyWlLk6GJQsqaUBKTNV-1">
          <mxGeometry x="774.12" y="1600" width="150" height="40" as="geometry" />
        </mxCell>
        <mxCell id="n5li9rgPJ2HlH9Pd9VCV-64" value="NO" style="text;html=1;align=center;verticalAlign=middle;whiteSpace=wrap;rounded=0;" vertex="1" parent="WIyWlLk6GJQsqaUBKTNV-1">
          <mxGeometry x="603.87" y="1380" width="37" height="30" as="geometry" />
        </mxCell>
        <mxCell id="n5li9rgPJ2HlH9Pd9VCV-66" style="edgeStyle=orthogonalEdgeStyle;rounded=0;orthogonalLoop=1;jettySize=auto;html=1;exitX=0.5;exitY=1;exitDx=0;exitDy=0;exitPerimeter=0;entryX=0.5;entryY=0;entryDx=0;entryDy=0;entryPerimeter=0;" edge="1" parent="WIyWlLk6GJQsqaUBKTNV-1" source="n5li9rgPJ2HlH9Pd9VCV-56" target="n5li9rgPJ2HlH9Pd9VCV-59">
          <mxGeometry relative="1" as="geometry" />
        </mxCell>
        <mxCell id="n5li9rgPJ2HlH9Pd9VCV-67" style="edgeStyle=orthogonalEdgeStyle;rounded=0;orthogonalLoop=1;jettySize=auto;html=1;exitX=1;exitY=0.5;exitDx=0;exitDy=0;exitPerimeter=0;entryX=0.018;entryY=0.533;entryDx=0;entryDy=0;entryPerimeter=0;" edge="1" parent="WIyWlLk6GJQsqaUBKTNV-1" source="n5li9rgPJ2HlH9Pd9VCV-56" target="n5li9rgPJ2HlH9Pd9VCV-61">
          <mxGeometry relative="1" as="geometry" />
        </mxCell>
        <mxCell id="n5li9rgPJ2HlH9Pd9VCV-68" value="NO" style="text;html=1;align=center;verticalAlign=middle;whiteSpace=wrap;rounded=0;" vertex="1" parent="WIyWlLk6GJQsqaUBKTNV-1">
          <mxGeometry x="603.87" y="1470" width="37" height="30" as="geometry" />
        </mxCell>
        <mxCell id="n5li9rgPJ2HlH9Pd9VCV-69" value="NO" style="text;html=1;align=center;verticalAlign=middle;whiteSpace=wrap;rounded=0;" vertex="1" parent="WIyWlLk6GJQsqaUBKTNV-1">
          <mxGeometry x="603.87" y="1560" width="37" height="30" as="geometry" />
        </mxCell>
        <mxCell id="n5li9rgPJ2HlH9Pd9VCV-70" value="&lt;span style=&quot;text-wrap: wrap;&quot;&gt;YES&lt;/span&gt;" style="text;html=1;align=left;verticalAlign=middle;resizable=0;points=[];autosize=1;strokeColor=none;fillColor=none;" vertex="1" parent="WIyWlLk6GJQsqaUBKTNV-1">
          <mxGeometry x="724.12" y="1320" width="50" height="30" as="geometry" />
        </mxCell>
        <mxCell id="n5li9rgPJ2HlH9Pd9VCV-71" value="&lt;span style=&quot;text-wrap: wrap;&quot;&gt;YES&lt;/span&gt;" style="text;html=1;align=left;verticalAlign=middle;resizable=0;points=[];autosize=1;strokeColor=none;fillColor=none;" vertex="1" parent="WIyWlLk6GJQsqaUBKTNV-1">
          <mxGeometry x="723.87" y="1410" width="50" height="30" as="geometry" />
        </mxCell>
        <mxCell id="n5li9rgPJ2HlH9Pd9VCV-72" value="&lt;span style=&quot;text-wrap: wrap;&quot;&gt;YES&lt;/span&gt;" style="text;html=1;align=left;verticalAlign=middle;resizable=0;points=[];autosize=1;strokeColor=none;fillColor=none;" vertex="1" parent="WIyWlLk6GJQsqaUBKTNV-1">
          <mxGeometry x="720.12" y="1500" width="50" height="30" as="geometry" />
        </mxCell>
        <mxCell id="n5li9rgPJ2HlH9Pd9VCV-73" style="edgeStyle=orthogonalEdgeStyle;rounded=0;orthogonalLoop=1;jettySize=auto;html=1;exitX=0.5;exitY=1;exitDx=0;exitDy=0;exitPerimeter=0;entryX=0.5;entryY=0;entryDx=0;entryDy=0;entryPerimeter=0;" edge="1" parent="WIyWlLk6GJQsqaUBKTNV-1" source="n5li9rgPJ2HlH9Pd9VCV-55" target="n5li9rgPJ2HlH9Pd9VCV-56">
          <mxGeometry relative="1" as="geometry" />
        </mxCell>
        <mxCell id="n5li9rgPJ2HlH9Pd9VCV-74" style="edgeStyle=orthogonalEdgeStyle;rounded=0;orthogonalLoop=1;jettySize=auto;html=1;exitX=0.5;exitY=1;exitDx=0;exitDy=0;exitPerimeter=0;entryX=0.5;entryY=0;entryDx=0;entryDy=0;entryPerimeter=0;" edge="1" parent="WIyWlLk6GJQsqaUBKTNV-1" source="ONeuCPQr-5bv9tZjdtYM-93" target="n5li9rgPJ2HlH9Pd9VCV-55">
          <mxGeometry relative="1" as="geometry" />
        </mxCell>
        <mxCell id="n5li9rgPJ2HlH9Pd9VCV-75" style="edgeStyle=orthogonalEdgeStyle;rounded=0;orthogonalLoop=1;jettySize=auto;html=1;exitX=1;exitY=0.5;exitDx=0;exitDy=0;exitPerimeter=0;entryX=0.5;entryY=0;entryDx=0;entryDy=0;entryPerimeter=0;" edge="1" parent="WIyWlLk6GJQsqaUBKTNV-1" source="ONeuCPQr-5bv9tZjdtYM-93" target="n5li9rgPJ2HlH9Pd9VCV-35">
          <mxGeometry relative="1" as="geometry" />
        </mxCell>
        <mxCell id="n5li9rgPJ2HlH9Pd9VCV-76" value="&lt;span style=&quot;text-wrap: wrap;&quot;&gt;YES&lt;/span&gt;" style="text;html=1;align=left;verticalAlign=middle;resizable=0;points=[];autosize=1;strokeColor=none;fillColor=none;" vertex="1" parent="WIyWlLk6GJQsqaUBKTNV-1">
          <mxGeometry x="156.37" y="1200" width="50" height="30" as="geometry" />
        </mxCell>
        <mxCell id="n5li9rgPJ2HlH9Pd9VCV-77" value="&lt;span style=&quot;text-wrap: wrap;&quot;&gt;YES&lt;/span&gt;" style="text;html=1;align=left;verticalAlign=middle;resizable=0;points=[];autosize=1;strokeColor=none;fillColor=none;" vertex="1" parent="WIyWlLk6GJQsqaUBKTNV-1">
          <mxGeometry x="-85" y="1200" width="50" height="30" as="geometry" />
        </mxCell>
        <mxCell id="n5li9rgPJ2HlH9Pd9VCV-78" value="&lt;span style=&quot;text-wrap: wrap;&quot;&gt;YES&lt;/span&gt;" style="text;html=1;align=left;verticalAlign=middle;resizable=0;points=[];autosize=1;strokeColor=none;fillColor=none;" vertex="1" parent="WIyWlLk6GJQsqaUBKTNV-1">
          <mxGeometry x="653.25" y="1200" width="50" height="30" as="geometry" />
        </mxCell>
        <mxCell id="n5li9rgPJ2HlH9Pd9VCV-84" value="PRINT: you should collect all the items" style="strokeWidth=2;html=1;shape=mxgraph.flowchart.display;whiteSpace=wrap;fontSize=12;" vertex="1" parent="WIyWlLk6GJQsqaUBKTNV-1">
          <mxGeometry x="1094.99" y="1785" width="130" height="68" as="geometry" />
        </mxCell>
        <mxCell id="n5li9rgPJ2HlH9Pd9VCV-85" style="edgeStyle=orthogonalEdgeStyle;rounded=0;orthogonalLoop=1;jettySize=auto;html=1;exitX=0.5;exitY=1;exitDx=0;exitDy=0;entryX=0.5;entryY=0;entryDx=0;entryDy=0;entryPerimeter=0;exitPerimeter=0;" edge="1" parent="WIyWlLk6GJQsqaUBKTNV-1" source="9ndEdKU9HdRyCCjR_hsN-186" target="n5li9rgPJ2HlH9Pd9VCV-84">
          <mxGeometry relative="1" as="geometry">
            <mxPoint x="1160" y="1740" as="sourcePoint" />
          </mxGeometry>
        </mxCell>
        <mxCell id="n5li9rgPJ2HlH9Pd9VCV-86" value="PRINT: You win!" style="strokeWidth=2;html=1;shape=mxgraph.flowchart.display;whiteSpace=wrap;fontSize=12;" vertex="1" parent="WIyWlLk6GJQsqaUBKTNV-1">
          <mxGeometry x="1348" y="1678.5" width="130" height="68" as="geometry" />
        </mxCell>
        <mxCell id="n5li9rgPJ2HlH9Pd9VCV-88" value="END" style="strokeWidth=2;html=1;shape=mxgraph.flowchart.terminator;whiteSpace=wrap;" vertex="1" parent="WIyWlLk6GJQsqaUBKTNV-1">
          <mxGeometry x="1363" y="1799" width="100" height="40" as="geometry" />
        </mxCell>
        <mxCell id="n5li9rgPJ2HlH9Pd9VCV-89" style="edgeStyle=orthogonalEdgeStyle;rounded=0;orthogonalLoop=1;jettySize=auto;html=1;exitX=0.5;exitY=1;exitDx=0;exitDy=0;exitPerimeter=0;entryX=0.5;entryY=0;entryDx=0;entryDy=0;entryPerimeter=0;" edge="1" parent="WIyWlLk6GJQsqaUBKTNV-1" source="n5li9rgPJ2HlH9Pd9VCV-86" target="n5li9rgPJ2HlH9Pd9VCV-88">
          <mxGeometry relative="1" as="geometry" />
        </mxCell>
        <mxCell id="n5li9rgPJ2HlH9Pd9VCV-90" style="edgeStyle=orthogonalEdgeStyle;rounded=0;orthogonalLoop=1;jettySize=auto;html=1;exitX=1;exitY=0.5;exitDx=0;exitDy=0;entryX=0;entryY=0.5;entryDx=0;entryDy=0;entryPerimeter=0;exitPerimeter=0;" edge="1" parent="WIyWlLk6GJQsqaUBKTNV-1" source="9ndEdKU9HdRyCCjR_hsN-186" target="n5li9rgPJ2HlH9Pd9VCV-86">
          <mxGeometry relative="1" as="geometry">
            <mxPoint x="1270.8799999999997" y="1712.5" as="sourcePoint" />
          </mxGeometry>
        </mxCell>
        <mxCell id="n5li9rgPJ2HlH9Pd9VCV-91" value="" style="verticalLabelPosition=bottom;verticalAlign=top;html=1;shape=mxgraph.flowchart.on-page_reference;" vertex="1" parent="WIyWlLk6GJQsqaUBKTNV-1">
          <mxGeometry x="478" y="579" width="60" height="60" as="geometry" />
        </mxCell>
        <mxCell id="n5li9rgPJ2HlH9Pd9VCV-93" value="" style="edgeStyle=orthogonalEdgeStyle;rounded=0;orthogonalLoop=1;jettySize=auto;html=1;exitX=0.5;exitY=0;exitDx=0;exitDy=0;exitPerimeter=0;" edge="1" parent="WIyWlLk6GJQsqaUBKTNV-1" source="ONeuCPQr-5bv9tZjdtYM-72" target="n5li9rgPJ2HlH9Pd9VCV-92">
          <mxGeometry relative="1" as="geometry">
            <mxPoint x="-40" y="610" as="targetPoint" />
            <Array as="points">
              <mxPoint x="299" y="610" />
            </Array>
            <mxPoint x="299" y="680" as="sourcePoint" />
          </mxGeometry>
        </mxCell>
        <mxCell id="n5li9rgPJ2HlH9Pd9VCV-92" value="" style="verticalLabelPosition=bottom;verticalAlign=top;html=1;shape=mxgraph.flowchart.on-page_reference;" vertex="1" parent="WIyWlLk6GJQsqaUBKTNV-1">
          <mxGeometry x="269" y="579" width="60" height="60" as="geometry" />
        </mxCell>
        <mxCell id="n5li9rgPJ2HlH9Pd9VCV-95" value="" style="edgeStyle=orthogonalEdgeStyle;rounded=0;orthogonalLoop=1;jettySize=auto;html=1;exitX=0;exitY=0.5;exitDx=0;exitDy=0;exitPerimeter=0;" edge="1" parent="WIyWlLk6GJQsqaUBKTNV-1" source="n5li9rgPJ2HlH9Pd9VCV-92" target="n5li9rgPJ2HlH9Pd9VCV-94">
          <mxGeometry relative="1" as="geometry">
            <mxPoint x="-40" y="610" as="targetPoint" />
            <Array as="points" />
            <mxPoint x="269" y="609" as="sourcePoint" />
          </mxGeometry>
        </mxCell>
        <mxCell id="n5li9rgPJ2HlH9Pd9VCV-94" value="" style="verticalLabelPosition=bottom;verticalAlign=top;html=1;shape=mxgraph.flowchart.on-page_reference;" vertex="1" parent="WIyWlLk6GJQsqaUBKTNV-1">
          <mxGeometry x="63.75" y="579" width="60" height="60" as="geometry" />
        </mxCell>
        <mxCell id="n5li9rgPJ2HlH9Pd9VCV-96" style="edgeStyle=orthogonalEdgeStyle;rounded=0;orthogonalLoop=1;jettySize=auto;html=1;exitX=0.5;exitY=0;exitDx=0;exitDy=0;exitPerimeter=0;entryX=0.5;entryY=1;entryDx=0;entryDy=0;entryPerimeter=0;" edge="1" parent="WIyWlLk6GJQsqaUBKTNV-1" source="ONeuCPQr-5bv9tZjdtYM-9" target="n5li9rgPJ2HlH9Pd9VCV-94">
          <mxGeometry relative="1" as="geometry" />
        </mxCell>
        <mxCell id="n5li9rgPJ2HlH9Pd9VCV-97" style="edgeStyle=orthogonalEdgeStyle;rounded=0;orthogonalLoop=1;jettySize=auto;html=1;exitX=0;exitY=0.5;exitDx=0;exitDy=0;exitPerimeter=0;entryX=1;entryY=0.5;entryDx=0;entryDy=0;entryPerimeter=0;" edge="1" parent="WIyWlLk6GJQsqaUBKTNV-1" source="n5li9rgPJ2HlH9Pd9VCV-94" target="T340YZ7VDrdOijKoR2L3-6">
          <mxGeometry relative="1" as="geometry" />
        </mxCell>
        <mxCell id="n5li9rgPJ2HlH9Pd9VCV-98" style="edgeStyle=orthogonalEdgeStyle;rounded=0;orthogonalLoop=1;jettySize=auto;html=1;exitX=0;exitY=0.5;exitDx=0;exitDy=0;exitPerimeter=0;entryX=1;entryY=0.5;entryDx=0;entryDy=0;entryPerimeter=0;" edge="1" parent="WIyWlLk6GJQsqaUBKTNV-1" source="n5li9rgPJ2HlH9Pd9VCV-91" target="n5li9rgPJ2HlH9Pd9VCV-92">
          <mxGeometry relative="1" as="geometry" />
        </mxCell>
        <mxCell id="n5li9rgPJ2HlH9Pd9VCV-99" value="" style="verticalLabelPosition=bottom;verticalAlign=top;html=1;shape=mxgraph.flowchart.on-page_reference;" vertex="1" parent="WIyWlLk6GJQsqaUBKTNV-1">
          <mxGeometry x="1512" y="1890" width="60" height="60" as="geometry" />
        </mxCell>
        <mxCell id="n5li9rgPJ2HlH9Pd9VCV-100" style="edgeStyle=orthogonalEdgeStyle;rounded=0;orthogonalLoop=1;jettySize=auto;html=1;exitX=0.5;exitY=0;exitDx=0;exitDy=0;exitPerimeter=0;entryX=1;entryY=0.5;entryDx=0;entryDy=0;entryPerimeter=0;" edge="1" parent="WIyWlLk6GJQsqaUBKTNV-1" source="n5li9rgPJ2HlH9Pd9VCV-101" target="n5li9rgPJ2HlH9Pd9VCV-91">
          <mxGeometry relative="1" as="geometry">
            <Array as="points" />
          </mxGeometry>
        </mxCell>
        <mxCell id="n5li9rgPJ2HlH9Pd9VCV-101" value="" style="verticalLabelPosition=bottom;verticalAlign=top;html=1;shape=mxgraph.flowchart.on-page_reference;" vertex="1" parent="WIyWlLk6GJQsqaUBKTNV-1">
          <mxGeometry x="1512" y="1409" width="60" height="60" as="geometry" />
        </mxCell>
        <mxCell id="n5li9rgPJ2HlH9Pd9VCV-103" value="" style="verticalLabelPosition=bottom;verticalAlign=top;html=1;shape=mxgraph.flowchart.on-page_reference;" vertex="1" parent="WIyWlLk6GJQsqaUBKTNV-1">
          <mxGeometry x="944" y="1890" width="60" height="60" as="geometry" />
        </mxCell>
        <mxCell id="n5li9rgPJ2HlH9Pd9VCV-104" value="" style="verticalLabelPosition=bottom;verticalAlign=top;html=1;shape=mxgraph.flowchart.on-page_reference;" vertex="1" parent="WIyWlLk6GJQsqaUBKTNV-1">
          <mxGeometry x="442.9999999999999" y="1890" width="60" height="60" as="geometry" />
        </mxCell>
        <mxCell id="n5li9rgPJ2HlH9Pd9VCV-105" value="" style="verticalLabelPosition=bottom;verticalAlign=top;html=1;shape=mxgraph.flowchart.on-page_reference;" vertex="1" parent="WIyWlLk6GJQsqaUBKTNV-1">
          <mxGeometry x="-460" y="1890" width="60" height="60" as="geometry" />
        </mxCell>
        <mxCell id="n5li9rgPJ2HlH9Pd9VCV-106" style="edgeStyle=orthogonalEdgeStyle;rounded=0;orthogonalLoop=1;jettySize=auto;html=1;exitX=0.5;exitY=1;exitDx=0;exitDy=0;entryX=1;entryY=0.5;entryDx=0;entryDy=0;entryPerimeter=0;" edge="1" parent="WIyWlLk6GJQsqaUBKTNV-1" source="n5li9rgPJ2HlH9Pd9VCV-8" target="n5li9rgPJ2HlH9Pd9VCV-105">
          <mxGeometry relative="1" as="geometry" />
        </mxCell>
        <mxCell id="n5li9rgPJ2HlH9Pd9VCV-107" style="edgeStyle=orthogonalEdgeStyle;rounded=0;orthogonalLoop=1;jettySize=auto;html=1;exitX=0;exitY=0.5;exitDx=0;exitDy=0;entryX=0.5;entryY=0;entryDx=0;entryDy=0;entryPerimeter=0;" edge="1" parent="WIyWlLk6GJQsqaUBKTNV-1" source="n5li9rgPJ2HlH9Pd9VCV-7" target="n5li9rgPJ2HlH9Pd9VCV-105">
          <mxGeometry relative="1" as="geometry" />
        </mxCell>
        <mxCell id="n5li9rgPJ2HlH9Pd9VCV-108" style="edgeStyle=orthogonalEdgeStyle;rounded=0;orthogonalLoop=1;jettySize=auto;html=1;exitX=0;exitY=0.5;exitDx=0;exitDy=0;entryX=0.145;entryY=0.145;entryDx=0;entryDy=0;entryPerimeter=0;" edge="1" parent="WIyWlLk6GJQsqaUBKTNV-1" source="n5li9rgPJ2HlH9Pd9VCV-6" target="n5li9rgPJ2HlH9Pd9VCV-105">
          <mxGeometry relative="1" as="geometry" />
        </mxCell>
        <mxCell id="n5li9rgPJ2HlH9Pd9VCV-109" style="edgeStyle=orthogonalEdgeStyle;rounded=0;orthogonalLoop=1;jettySize=auto;html=1;exitX=0.5;exitY=1;exitDx=0;exitDy=0;exitPerimeter=0;entryX=0.145;entryY=0.855;entryDx=0;entryDy=0;entryPerimeter=0;" edge="1" parent="WIyWlLk6GJQsqaUBKTNV-1" source="n5li9rgPJ2HlH9Pd9VCV-105" target="n5li9rgPJ2HlH9Pd9VCV-104">
          <mxGeometry relative="1" as="geometry">
            <Array as="points">
              <mxPoint x="-430" y="1970" />
              <mxPoint x="452" y="1970" />
              <mxPoint x="452" y="1950" />
              <mxPoint x="452" y="1950" />
            </Array>
          </mxGeometry>
        </mxCell>
        <mxCell id="n5li9rgPJ2HlH9Pd9VCV-110" style="edgeStyle=orthogonalEdgeStyle;rounded=0;orthogonalLoop=1;jettySize=auto;html=1;exitX=0.5;exitY=1;exitDx=0;exitDy=0;entryX=0;entryY=0.5;entryDx=0;entryDy=0;entryPerimeter=0;" edge="1" parent="WIyWlLk6GJQsqaUBKTNV-1" source="n5li9rgPJ2HlH9Pd9VCV-18" target="n5li9rgPJ2HlH9Pd9VCV-104">
          <mxGeometry relative="1" as="geometry" />
        </mxCell>
        <mxCell id="n5li9rgPJ2HlH9Pd9VCV-111" style="edgeStyle=orthogonalEdgeStyle;rounded=0;orthogonalLoop=1;jettySize=auto;html=1;exitX=1;exitY=0.5;exitDx=0;exitDy=0;entryX=0.145;entryY=0.145;entryDx=0;entryDy=0;entryPerimeter=0;" edge="1" parent="WIyWlLk6GJQsqaUBKTNV-1" source="n5li9rgPJ2HlH9Pd9VCV-17" target="n5li9rgPJ2HlH9Pd9VCV-104">
          <mxGeometry relative="1" as="geometry" />
        </mxCell>
        <mxCell id="n5li9rgPJ2HlH9Pd9VCV-112" style="edgeStyle=orthogonalEdgeStyle;rounded=0;orthogonalLoop=1;jettySize=auto;html=1;exitX=1;exitY=0.5;exitDx=0;exitDy=0;entryX=0.5;entryY=0;entryDx=0;entryDy=0;entryPerimeter=0;" edge="1" parent="WIyWlLk6GJQsqaUBKTNV-1" source="n5li9rgPJ2HlH9Pd9VCV-16" target="n5li9rgPJ2HlH9Pd9VCV-104">
          <mxGeometry relative="1" as="geometry" />
        </mxCell>
        <mxCell id="n5li9rgPJ2HlH9Pd9VCV-113" style="edgeStyle=orthogonalEdgeStyle;rounded=0;orthogonalLoop=1;jettySize=auto;html=1;exitX=1;exitY=0.5;exitDx=0;exitDy=0;entryX=0.855;entryY=0.145;entryDx=0;entryDy=0;entryPerimeter=0;" edge="1" parent="WIyWlLk6GJQsqaUBKTNV-1" source="n5li9rgPJ2HlH9Pd9VCV-15" target="n5li9rgPJ2HlH9Pd9VCV-104">
          <mxGeometry relative="1" as="geometry" />
        </mxCell>
        <mxCell id="n5li9rgPJ2HlH9Pd9VCV-114" style="edgeStyle=orthogonalEdgeStyle;rounded=0;orthogonalLoop=1;jettySize=auto;html=1;exitX=0.855;exitY=0.855;exitDx=0;exitDy=0;exitPerimeter=0;entryX=0.145;entryY=0.855;entryDx=0;entryDy=0;entryPerimeter=0;" edge="1" parent="WIyWlLk6GJQsqaUBKTNV-1" source="n5li9rgPJ2HlH9Pd9VCV-104" target="n5li9rgPJ2HlH9Pd9VCV-103">
          <mxGeometry relative="1" as="geometry">
            <Array as="points">
              <mxPoint x="494" y="1970" />
              <mxPoint x="953" y="1970" />
              <mxPoint x="953" y="1941" />
            </Array>
          </mxGeometry>
        </mxCell>
        <mxCell id="n5li9rgPJ2HlH9Pd9VCV-115" style="edgeStyle=orthogonalEdgeStyle;rounded=0;orthogonalLoop=1;jettySize=auto;html=1;exitX=0.5;exitY=1;exitDx=0;exitDy=0;entryX=0;entryY=0.5;entryDx=0;entryDy=0;entryPerimeter=0;" edge="1" parent="WIyWlLk6GJQsqaUBKTNV-1" source="n5li9rgPJ2HlH9Pd9VCV-63" target="n5li9rgPJ2HlH9Pd9VCV-103">
          <mxGeometry relative="1" as="geometry" />
        </mxCell>
        <mxCell id="n5li9rgPJ2HlH9Pd9VCV-116" style="edgeStyle=orthogonalEdgeStyle;rounded=0;orthogonalLoop=1;jettySize=auto;html=1;exitX=1;exitY=0.5;exitDx=0;exitDy=0;entryX=0.145;entryY=0.145;entryDx=0;entryDy=0;entryPerimeter=0;" edge="1" parent="WIyWlLk6GJQsqaUBKTNV-1" source="n5li9rgPJ2HlH9Pd9VCV-62" target="n5li9rgPJ2HlH9Pd9VCV-103">
          <mxGeometry relative="1" as="geometry" />
        </mxCell>
        <mxCell id="n5li9rgPJ2HlH9Pd9VCV-117" style="edgeStyle=orthogonalEdgeStyle;rounded=0;orthogonalLoop=1;jettySize=auto;html=1;exitX=1;exitY=0.5;exitDx=0;exitDy=0;entryX=0.5;entryY=0;entryDx=0;entryDy=0;entryPerimeter=0;" edge="1" parent="WIyWlLk6GJQsqaUBKTNV-1" source="n5li9rgPJ2HlH9Pd9VCV-61" target="n5li9rgPJ2HlH9Pd9VCV-103">
          <mxGeometry relative="1" as="geometry" />
        </mxCell>
        <mxCell id="n5li9rgPJ2HlH9Pd9VCV-118" style="edgeStyle=orthogonalEdgeStyle;rounded=0;orthogonalLoop=1;jettySize=auto;html=1;exitX=1;exitY=0.5;exitDx=0;exitDy=0;entryX=0.855;entryY=0.145;entryDx=0;entryDy=0;entryPerimeter=0;" edge="1" parent="WIyWlLk6GJQsqaUBKTNV-1" source="n5li9rgPJ2HlH9Pd9VCV-60" target="n5li9rgPJ2HlH9Pd9VCV-103">
          <mxGeometry relative="1" as="geometry" />
        </mxCell>
        <mxCell id="n5li9rgPJ2HlH9Pd9VCV-119" style="edgeStyle=orthogonalEdgeStyle;rounded=0;orthogonalLoop=1;jettySize=auto;html=1;exitX=0.855;exitY=0.855;exitDx=0;exitDy=0;exitPerimeter=0;entryX=0.5;entryY=1;entryDx=0;entryDy=0;entryPerimeter=0;" edge="1" parent="WIyWlLk6GJQsqaUBKTNV-1" source="n5li9rgPJ2HlH9Pd9VCV-103" target="n5li9rgPJ2HlH9Pd9VCV-99">
          <mxGeometry relative="1" as="geometry">
            <mxPoint x="1007.3000000000002" y="1941.3000000000002" as="sourcePoint" />
            <Array as="points">
              <mxPoint x="995" y="1970" />
              <mxPoint x="1542" y="1970" />
            </Array>
          </mxGeometry>
        </mxCell>
        <mxCell id="n5li9rgPJ2HlH9Pd9VCV-120" style="edgeStyle=orthogonalEdgeStyle;rounded=0;orthogonalLoop=1;jettySize=auto;html=1;exitX=0.5;exitY=0;exitDx=0;exitDy=0;exitPerimeter=0;entryX=0.5;entryY=1;entryDx=0;entryDy=0;entryPerimeter=0;" edge="1" parent="WIyWlLk6GJQsqaUBKTNV-1" source="n5li9rgPJ2HlH9Pd9VCV-99" target="n5li9rgPJ2HlH9Pd9VCV-101">
          <mxGeometry relative="1" as="geometry" />
        </mxCell>
        <mxCell id="n5li9rgPJ2HlH9Pd9VCV-121" style="edgeStyle=orthogonalEdgeStyle;rounded=0;orthogonalLoop=1;jettySize=auto;html=1;exitX=1;exitY=0.5;exitDx=0;exitDy=0;entryX=0.145;entryY=0.855;entryDx=0;entryDy=0;entryPerimeter=0;" edge="1" parent="WIyWlLk6GJQsqaUBKTNV-1" source="n5li9rgPJ2HlH9Pd9VCV-42" target="n5li9rgPJ2HlH9Pd9VCV-101">
          <mxGeometry relative="1" as="geometry" />
        </mxCell>
        <mxCell id="n5li9rgPJ2HlH9Pd9VCV-122" style="edgeStyle=orthogonalEdgeStyle;rounded=0;orthogonalLoop=1;jettySize=auto;html=1;exitX=1;exitY=0.5;exitDx=0;exitDy=0;entryX=0;entryY=0.5;entryDx=0;entryDy=0;entryPerimeter=0;" edge="1" parent="WIyWlLk6GJQsqaUBKTNV-1" source="n5li9rgPJ2HlH9Pd9VCV-41" target="n5li9rgPJ2HlH9Pd9VCV-101">
          <mxGeometry relative="1" as="geometry" />
        </mxCell>
        <mxCell id="n5li9rgPJ2HlH9Pd9VCV-123" style="edgeStyle=orthogonalEdgeStyle;rounded=0;orthogonalLoop=1;jettySize=auto;html=1;exitX=1;exitY=0.5;exitDx=0;exitDy=0;entryX=0.145;entryY=0.145;entryDx=0;entryDy=0;entryPerimeter=0;" edge="1" parent="WIyWlLk6GJQsqaUBKTNV-1" source="n5li9rgPJ2HlH9Pd9VCV-40" target="n5li9rgPJ2HlH9Pd9VCV-101">
          <mxGeometry relative="1" as="geometry" />
        </mxCell>
        <mxCell id="n5li9rgPJ2HlH9Pd9VCV-124" style="edgeStyle=orthogonalEdgeStyle;rounded=0;orthogonalLoop=1;jettySize=auto;html=1;exitX=0.5;exitY=1;exitDx=0;exitDy=0;exitPerimeter=0;entryX=0;entryY=0.5;entryDx=0;entryDy=0;entryPerimeter=0;" edge="1" parent="WIyWlLk6GJQsqaUBKTNV-1" source="n5li9rgPJ2HlH9Pd9VCV-84" target="n5li9rgPJ2HlH9Pd9VCV-99">
          <mxGeometry relative="1" as="geometry" />
        </mxCell>
        <mxCell id="9ndEdKU9HdRyCCjR_hsN-58" style="edgeStyle=orthogonalEdgeStyle;rounded=0;orthogonalLoop=1;jettySize=auto;html=1;exitX=0.5;exitY=1;exitDx=0;exitDy=0;exitPerimeter=0;entryX=0.5;entryY=0;entryDx=0;entryDy=0;" edge="1" parent="WIyWlLk6GJQsqaUBKTNV-1" source="9ndEdKU9HdRyCCjR_hsN-0" target="9ndEdKU9HdRyCCjR_hsN-2">
          <mxGeometry relative="1" as="geometry" />
        </mxCell>
        <mxCell id="9ndEdKU9HdRyCCjR_hsN-0" value="START ITEM PICKUP" style="strokeWidth=2;html=1;shape=mxgraph.flowchart.terminator;whiteSpace=wrap;" vertex="1" parent="WIyWlLk6GJQsqaUBKTNV-1">
          <mxGeometry x="1815" y="399.25" width="100" height="40" as="geometry" />
        </mxCell>
        <mxCell id="9ndEdKU9HdRyCCjR_hsN-56" value="" style="edgeStyle=orthogonalEdgeStyle;rounded=0;orthogonalLoop=1;jettySize=auto;html=1;" edge="1" parent="WIyWlLk6GJQsqaUBKTNV-1" source="9ndEdKU9HdRyCCjR_hsN-2" target="9ndEdKU9HdRyCCjR_hsN-17">
          <mxGeometry relative="1" as="geometry" />
        </mxCell>
        <mxCell id="9ndEdKU9HdRyCCjR_hsN-2" value="User Input:&lt;div&gt;P&lt;/div&gt;" style="shape=parallelogram;html=1;strokeWidth=2;perimeter=parallelogramPerimeter;whiteSpace=wrap;rounded=1;arcSize=12;size=0.23;" vertex="1" parent="WIyWlLk6GJQsqaUBKTNV-1">
          <mxGeometry x="1805" y="490" width="120" height="60" as="geometry" />
        </mxCell>
        <mxCell id="9ndEdKU9HdRyCCjR_hsN-13" value="PRINT: there&#39;s&lt;div style=&quot;font-size: 12px;&quot;&gt;nothing to pick up&lt;/div&gt;" style="strokeWidth=2;html=1;shape=mxgraph.flowchart.display;whiteSpace=wrap;fontSize=12;" vertex="1" parent="WIyWlLk6GJQsqaUBKTNV-1">
          <mxGeometry x="2068" y="760" width="130" height="68" as="geometry" />
        </mxCell>
        <mxCell id="9ndEdKU9HdRyCCjR_hsN-17" value="IF INPUT ==&#39;P&#39;" style="strokeWidth=2;html=1;shape=mxgraph.flowchart.decision;whiteSpace=wrap;fontSize=12;" vertex="1" parent="WIyWlLk6GJQsqaUBKTNV-1">
          <mxGeometry x="1803.75" y="610" width="122.5" height="80" as="geometry" />
        </mxCell>
        <mxCell id="9ndEdKU9HdRyCCjR_hsN-19" style="edgeStyle=orthogonalEdgeStyle;rounded=0;orthogonalLoop=1;jettySize=auto;html=1;exitX=0.298;exitY=0.804;exitDx=0;exitDy=0;exitPerimeter=0;entryX=0.5;entryY=0;entryDx=0;entryDy=0;" edge="1" parent="WIyWlLk6GJQsqaUBKTNV-1" source="9ndEdKU9HdRyCCjR_hsN-20" target="9ndEdKU9HdRyCCjR_hsN-26">
          <mxGeometry relative="1" as="geometry">
            <Array as="points">
              <mxPoint x="2031" y="710" />
              <mxPoint x="1865" y="710" />
            </Array>
          </mxGeometry>
        </mxCell>
        <mxCell id="9ndEdKU9HdRyCCjR_hsN-20" value="IF &lt;span style=&quot;background-color: initial;&quot;&gt;map.items_collected == true&lt;/span&gt;" style="strokeWidth=2;html=1;shape=mxgraph.flowchart.decision;whiteSpace=wrap;fontSize=12;" vertex="1" parent="WIyWlLk6GJQsqaUBKTNV-1">
          <mxGeometry x="1965.5" y="604" width="220" height="92" as="geometry" />
        </mxCell>
        <mxCell id="9ndEdKU9HdRyCCjR_hsN-24" value="&lt;span style=&quot;text-wrap: wrap;&quot;&gt;YES&lt;/span&gt;" style="text;html=1;align=left;verticalAlign=middle;resizable=0;points=[];autosize=1;strokeColor=none;fillColor=none;" vertex="1" parent="WIyWlLk6GJQsqaUBKTNV-1">
          <mxGeometry x="2140" y="673.5" width="50" height="30" as="geometry" />
        </mxCell>
        <mxCell id="9ndEdKU9HdRyCCjR_hsN-25" value="PRINT: you pick&lt;div&gt;up that item&lt;/div&gt;" style="strokeWidth=2;html=1;shape=mxgraph.flowchart.display;whiteSpace=wrap;fontSize=12;" vertex="1" parent="WIyWlLk6GJQsqaUBKTNV-1">
          <mxGeometry x="1800" y="866" width="130" height="85" as="geometry" />
        </mxCell>
        <mxCell id="9ndEdKU9HdRyCCjR_hsN-26" value="map.item_collected = true&lt;div&gt;item_count += 1&lt;/div&gt;" style="rounded=1;whiteSpace=wrap;html=1;absoluteArcSize=1;arcSize=14;strokeWidth=2;" vertex="1" parent="WIyWlLk6GJQsqaUBKTNV-1">
          <mxGeometry x="1775" y="760" width="180" height="66" as="geometry" />
        </mxCell>
        <mxCell id="9ndEdKU9HdRyCCjR_hsN-27" value="NO" style="text;html=1;align=center;verticalAlign=middle;whiteSpace=wrap;rounded=0;" vertex="1" parent="WIyWlLk6GJQsqaUBKTNV-1">
          <mxGeometry x="1990" y="673.5" width="37" height="30" as="geometry" />
        </mxCell>
        <mxCell id="9ndEdKU9HdRyCCjR_hsN-40" style="edgeStyle=orthogonalEdgeStyle;rounded=0;orthogonalLoop=1;jettySize=auto;html=1;entryX=0.5;entryY=0;entryDx=0;entryDy=0;entryPerimeter=0;exitX=0.76;exitY=0.761;exitDx=0;exitDy=0;exitPerimeter=0;" edge="1" parent="WIyWlLk6GJQsqaUBKTNV-1" source="9ndEdKU9HdRyCCjR_hsN-20" target="9ndEdKU9HdRyCCjR_hsN-13">
          <mxGeometry relative="1" as="geometry">
            <mxPoint x="2020" y="730" as="sourcePoint" />
          </mxGeometry>
        </mxCell>
        <mxCell id="9ndEdKU9HdRyCCjR_hsN-50" style="edgeStyle=orthogonalEdgeStyle;rounded=0;orthogonalLoop=1;jettySize=auto;html=1;exitX=0.5;exitY=1;exitDx=0;exitDy=0;entryX=0.5;entryY=0;entryDx=0;entryDy=0;entryPerimeter=0;" edge="1" parent="WIyWlLk6GJQsqaUBKTNV-1" source="9ndEdKU9HdRyCCjR_hsN-2" target="9ndEdKU9HdRyCCjR_hsN-17">
          <mxGeometry relative="1" as="geometry" />
        </mxCell>
        <mxCell id="9ndEdKU9HdRyCCjR_hsN-51" style="edgeStyle=orthogonalEdgeStyle;rounded=0;orthogonalLoop=1;jettySize=auto;html=1;exitX=0.5;exitY=1;exitDx=0;exitDy=0;entryX=0.5;entryY=0;entryDx=0;entryDy=0;entryPerimeter=0;" edge="1" parent="WIyWlLk6GJQsqaUBKTNV-1" source="9ndEdKU9HdRyCCjR_hsN-26" target="9ndEdKU9HdRyCCjR_hsN-25">
          <mxGeometry relative="1" as="geometry" />
        </mxCell>
        <mxCell id="9ndEdKU9HdRyCCjR_hsN-52" style="edgeStyle=orthogonalEdgeStyle;rounded=0;orthogonalLoop=1;jettySize=auto;html=1;exitX=1;exitY=0.5;exitDx=0;exitDy=0;exitPerimeter=0;entryX=0;entryY=0.5;entryDx=0;entryDy=0;entryPerimeter=0;" edge="1" parent="WIyWlLk6GJQsqaUBKTNV-1" source="9ndEdKU9HdRyCCjR_hsN-17" target="9ndEdKU9HdRyCCjR_hsN-20">
          <mxGeometry relative="1" as="geometry" />
        </mxCell>
        <mxCell id="9ndEdKU9HdRyCCjR_hsN-59" value="END ITEM PICKUP" style="strokeWidth=2;html=1;shape=mxgraph.flowchart.terminator;whiteSpace=wrap;" vertex="1" parent="WIyWlLk6GJQsqaUBKTNV-1">
          <mxGeometry x="2083" y="888.5" width="100" height="40" as="geometry" />
        </mxCell>
        <mxCell id="9ndEdKU9HdRyCCjR_hsN-60" style="edgeStyle=orthogonalEdgeStyle;rounded=0;orthogonalLoop=1;jettySize=auto;html=1;exitX=0.5;exitY=1;exitDx=0;exitDy=0;exitPerimeter=0;entryX=0.5;entryY=0;entryDx=0;entryDy=0;entryPerimeter=0;" edge="1" parent="WIyWlLk6GJQsqaUBKTNV-1" source="9ndEdKU9HdRyCCjR_hsN-13" target="9ndEdKU9HdRyCCjR_hsN-59">
          <mxGeometry relative="1" as="geometry" />
        </mxCell>
        <mxCell id="9ndEdKU9HdRyCCjR_hsN-61" style="edgeStyle=orthogonalEdgeStyle;rounded=0;orthogonalLoop=1;jettySize=auto;html=1;exitX=1;exitY=0.5;exitDx=0;exitDy=0;exitPerimeter=0;entryX=0;entryY=0.5;entryDx=0;entryDy=0;entryPerimeter=0;" edge="1" parent="WIyWlLk6GJQsqaUBKTNV-1" source="9ndEdKU9HdRyCCjR_hsN-25" target="9ndEdKU9HdRyCCjR_hsN-59">
          <mxGeometry relative="1" as="geometry" />
        </mxCell>
        <mxCell id="9ndEdKU9HdRyCCjR_hsN-62" value="IF INPUT==&#39;N&#39;" style="strokeWidth=2;html=1;shape=mxgraph.flowchart.decision;whiteSpace=wrap;fontSize=12;" vertex="1" parent="WIyWlLk6GJQsqaUBKTNV-1">
          <mxGeometry x="2163.75" y="1394" width="122.5" height="80" as="geometry" />
        </mxCell>
        <mxCell id="9ndEdKU9HdRyCCjR_hsN-63" value="IF INPUT==&#39;E&#39;" style="strokeWidth=2;html=1;shape=mxgraph.flowchart.decision;whiteSpace=wrap;fontSize=12;" vertex="1" parent="WIyWlLk6GJQsqaUBKTNV-1">
          <mxGeometry x="2403.87" y="1394" width="122.5" height="80" as="geometry" />
        </mxCell>
        <mxCell id="9ndEdKU9HdRyCCjR_hsN-64" value="IF INPUT==&#39;W&#39;" style="strokeWidth=2;html=1;shape=mxgraph.flowchart.decision;whiteSpace=wrap;fontSize=12;" vertex="1" parent="WIyWlLk6GJQsqaUBKTNV-1">
          <mxGeometry x="2900.75" y="1394" width="122.5" height="80" as="geometry" />
        </mxCell>
        <mxCell id="9ndEdKU9HdRyCCjR_hsN-65" value="NO" style="text;html=1;align=center;verticalAlign=middle;whiteSpace=wrap;rounded=0;" vertex="1" parent="WIyWlLk6GJQsqaUBKTNV-1">
          <mxGeometry x="2275" y="1404" width="37" height="30" as="geometry" />
        </mxCell>
        <mxCell id="9ndEdKU9HdRyCCjR_hsN-66" value="NO" style="text;html=1;align=center;verticalAlign=middle;whiteSpace=wrap;rounded=0;" vertex="1" parent="WIyWlLk6GJQsqaUBKTNV-1">
          <mxGeometry x="2516.62" y="1404" width="37" height="30" as="geometry" />
        </mxCell>
        <mxCell id="9ndEdKU9HdRyCCjR_hsN-67" value="NO" style="text;html=1;align=center;verticalAlign=middle;whiteSpace=wrap;rounded=0;" vertex="1" parent="WIyWlLk6GJQsqaUBKTNV-1">
          <mxGeometry x="3023.25" y="1404" width="37" height="30" as="geometry" />
        </mxCell>
        <mxCell id="9ndEdKU9HdRyCCjR_hsN-68" style="edgeStyle=orthogonalEdgeStyle;rounded=0;orthogonalLoop=1;jettySize=auto;html=1;exitX=1;exitY=0.5;exitDx=0;exitDy=0;exitPerimeter=0;entryX=0;entryY=0.5;entryDx=0;entryDy=0;entryPerimeter=0;" edge="1" parent="WIyWlLk6GJQsqaUBKTNV-1" source="9ndEdKU9HdRyCCjR_hsN-62" target="9ndEdKU9HdRyCCjR_hsN-63">
          <mxGeometry relative="1" as="geometry" />
        </mxCell>
        <mxCell id="9ndEdKU9HdRyCCjR_hsN-69" style="edgeStyle=orthogonalEdgeStyle;rounded=0;orthogonalLoop=1;jettySize=auto;html=1;exitX=1;exitY=0.5;exitDx=0;exitDy=0;exitPerimeter=0;entryX=0;entryY=0.5;entryDx=0;entryDy=0;entryPerimeter=0;" edge="1" parent="WIyWlLk6GJQsqaUBKTNV-1" source="9ndEdKU9HdRyCCjR_hsN-63" target="9ndEdKU9HdRyCCjR_hsN-64">
          <mxGeometry relative="1" as="geometry" />
        </mxCell>
        <mxCell id="9ndEdKU9HdRyCCjR_hsN-70" style="edgeStyle=orthogonalEdgeStyle;rounded=0;orthogonalLoop=1;jettySize=auto;html=1;exitX=0;exitY=0.5;exitDx=0;exitDy=0;exitPerimeter=0;entryX=1;entryY=0.5;entryDx=0;entryDy=0;" edge="1" parent="WIyWlLk6GJQsqaUBKTNV-1" source="9ndEdKU9HdRyCCjR_hsN-71" target="9ndEdKU9HdRyCCjR_hsN-79">
          <mxGeometry relative="1" as="geometry" />
        </mxCell>
        <mxCell id="9ndEdKU9HdRyCCjR_hsN-71" value="IF current_room==&#39;galley&#39;" style="strokeWidth=2;html=1;shape=mxgraph.flowchart.decision;whiteSpace=wrap;fontSize=12;" vertex="1" parent="WIyWlLk6GJQsqaUBKTNV-1">
          <mxGeometry x="2126.87" y="1594" width="196.25" height="60" as="geometry" />
        </mxCell>
        <mxCell id="9ndEdKU9HdRyCCjR_hsN-72" style="edgeStyle=orthogonalEdgeStyle;rounded=0;orthogonalLoop=1;jettySize=auto;html=1;exitX=0.5;exitY=1;exitDx=0;exitDy=0;exitPerimeter=0;entryX=0.5;entryY=0;entryDx=0;entryDy=0;entryPerimeter=0;" edge="1" parent="WIyWlLk6GJQsqaUBKTNV-1" source="9ndEdKU9HdRyCCjR_hsN-62" target="9ndEdKU9HdRyCCjR_hsN-71">
          <mxGeometry relative="1" as="geometry" />
        </mxCell>
        <mxCell id="9ndEdKU9HdRyCCjR_hsN-73" style="edgeStyle=orthogonalEdgeStyle;rounded=0;orthogonalLoop=1;jettySize=auto;html=1;exitX=0;exitY=0.5;exitDx=0;exitDy=0;exitPerimeter=0;entryX=1;entryY=0.5;entryDx=0;entryDy=0;" edge="1" parent="WIyWlLk6GJQsqaUBKTNV-1" source="9ndEdKU9HdRyCCjR_hsN-74" target="9ndEdKU9HdRyCCjR_hsN-80">
          <mxGeometry relative="1" as="geometry" />
        </mxCell>
        <mxCell id="9ndEdKU9HdRyCCjR_hsN-74" value="IF current_room==&#39;cargo&#39;" style="strokeWidth=2;html=1;shape=mxgraph.flowchart.decision;whiteSpace=wrap;fontSize=12;" vertex="1" parent="WIyWlLk6GJQsqaUBKTNV-1">
          <mxGeometry x="2126.88" y="1684" width="196.25" height="60" as="geometry" />
        </mxCell>
        <mxCell id="9ndEdKU9HdRyCCjR_hsN-75" style="edgeStyle=orthogonalEdgeStyle;rounded=0;orthogonalLoop=1;jettySize=auto;html=1;exitX=0.5;exitY=1;exitDx=0;exitDy=0;exitPerimeter=0;entryX=0.5;entryY=0;entryDx=0;entryDy=0;entryPerimeter=0;" edge="1" parent="WIyWlLk6GJQsqaUBKTNV-1" source="9ndEdKU9HdRyCCjR_hsN-71" target="9ndEdKU9HdRyCCjR_hsN-74">
          <mxGeometry relative="1" as="geometry" />
        </mxCell>
        <mxCell id="9ndEdKU9HdRyCCjR_hsN-76" style="edgeStyle=orthogonalEdgeStyle;rounded=0;orthogonalLoop=1;jettySize=auto;html=1;exitX=0.5;exitY=1;exitDx=0;exitDy=0;exitPerimeter=0;entryX=1;entryY=0.5;entryDx=0;entryDy=0;" edge="1" parent="WIyWlLk6GJQsqaUBKTNV-1" source="9ndEdKU9HdRyCCjR_hsN-74" target="9ndEdKU9HdRyCCjR_hsN-81">
          <mxGeometry relative="1" as="geometry">
            <mxPoint x="2225.005" y="1774" as="targetPoint" />
          </mxGeometry>
        </mxCell>
        <mxCell id="9ndEdKU9HdRyCCjR_hsN-77" value="NO" style="text;html=1;align=center;verticalAlign=middle;whiteSpace=wrap;rounded=0;" vertex="1" parent="WIyWlLk6GJQsqaUBKTNV-1">
          <mxGeometry x="2190" y="1654" width="37" height="30" as="geometry" />
        </mxCell>
        <mxCell id="9ndEdKU9HdRyCCjR_hsN-78" value="NO" style="text;html=1;align=center;verticalAlign=middle;whiteSpace=wrap;rounded=0;" vertex="1" parent="WIyWlLk6GJQsqaUBKTNV-1">
          <mxGeometry x="2190" y="1744" width="37" height="30" as="geometry" />
        </mxCell>
        <mxCell id="9ndEdKU9HdRyCCjR_hsN-79" value="current_room=&#39;bridge&#39;" style="rounded=1;whiteSpace=wrap;html=1;absoluteArcSize=1;arcSize=14;strokeWidth=2;" vertex="1" parent="WIyWlLk6GJQsqaUBKTNV-1">
          <mxGeometry x="1920" y="1604" width="150" height="40" as="geometry" />
        </mxCell>
        <mxCell id="9ndEdKU9HdRyCCjR_hsN-80" value="current_room=&#39;med&#39;" style="rounded=1;whiteSpace=wrap;html=1;absoluteArcSize=1;arcSize=14;strokeWidth=2;" vertex="1" parent="WIyWlLk6GJQsqaUBKTNV-1">
          <mxGeometry x="1920" y="1694" width="150" height="40" as="geometry" />
        </mxCell>
        <mxCell id="9ndEdKU9HdRyCCjR_hsN-81" value="current_room=&#39;cabin&#39;" style="rounded=1;whiteSpace=wrap;html=1;absoluteArcSize=1;arcSize=14;strokeWidth=2;" vertex="1" parent="WIyWlLk6GJQsqaUBKTNV-1">
          <mxGeometry x="1920" y="1784" width="150" height="40" as="geometry" />
        </mxCell>
        <mxCell id="9ndEdKU9HdRyCCjR_hsN-82" style="edgeStyle=orthogonalEdgeStyle;rounded=0;orthogonalLoop=1;jettySize=auto;html=1;entryX=0;entryY=0.5;entryDx=0;entryDy=0;" edge="1" parent="WIyWlLk6GJQsqaUBKTNV-1" source="9ndEdKU9HdRyCCjR_hsN-83" target="9ndEdKU9HdRyCCjR_hsN-89">
          <mxGeometry relative="1" as="geometry" />
        </mxCell>
        <mxCell id="9ndEdKU9HdRyCCjR_hsN-83" value="IF current_room==&#39;eng&#39;" style="strokeWidth=2;html=1;shape=mxgraph.flowchart.decision;whiteSpace=wrap;fontSize=12;" vertex="1" parent="WIyWlLk6GJQsqaUBKTNV-1">
          <mxGeometry x="2367" y="1594" width="196.25" height="60" as="geometry" />
        </mxCell>
        <mxCell id="9ndEdKU9HdRyCCjR_hsN-84" style="edgeStyle=orthogonalEdgeStyle;rounded=0;orthogonalLoop=1;jettySize=auto;html=1;exitX=0.5;exitY=1;exitDx=0;exitDy=0;exitPerimeter=0;entryX=0.5;entryY=0;entryDx=0;entryDy=0;entryPerimeter=0;" edge="1" parent="WIyWlLk6GJQsqaUBKTNV-1" source="9ndEdKU9HdRyCCjR_hsN-63" target="9ndEdKU9HdRyCCjR_hsN-83">
          <mxGeometry relative="1" as="geometry" />
        </mxCell>
        <mxCell id="9ndEdKU9HdRyCCjR_hsN-85" value="IF current_room==&#39;cabin&#39;" style="strokeWidth=2;html=1;shape=mxgraph.flowchart.decision;whiteSpace=wrap;fontSize=12;" vertex="1" parent="WIyWlLk6GJQsqaUBKTNV-1">
          <mxGeometry x="2367" y="1684" width="196.25" height="60" as="geometry" />
        </mxCell>
        <mxCell id="9ndEdKU9HdRyCCjR_hsN-86" style="edgeStyle=orthogonalEdgeStyle;rounded=0;orthogonalLoop=1;jettySize=auto;html=1;exitX=1;exitY=0.5;exitDx=0;exitDy=0;exitPerimeter=0;entryX=0;entryY=0.5;entryDx=0;entryDy=0;" edge="1" parent="WIyWlLk6GJQsqaUBKTNV-1" source="9ndEdKU9HdRyCCjR_hsN-88" target="9ndEdKU9HdRyCCjR_hsN-91">
          <mxGeometry relative="1" as="geometry" />
        </mxCell>
        <mxCell id="9ndEdKU9HdRyCCjR_hsN-87" style="edgeStyle=orthogonalEdgeStyle;rounded=0;orthogonalLoop=1;jettySize=auto;html=1;exitX=0.5;exitY=1;exitDx=0;exitDy=0;exitPerimeter=0;entryX=0;entryY=0.5;entryDx=0;entryDy=0;" edge="1" parent="WIyWlLk6GJQsqaUBKTNV-1" source="9ndEdKU9HdRyCCjR_hsN-88" target="9ndEdKU9HdRyCCjR_hsN-92">
          <mxGeometry relative="1" as="geometry" />
        </mxCell>
        <mxCell id="9ndEdKU9HdRyCCjR_hsN-88" value="IF current_room==&#39;galley&#39;" style="strokeWidth=2;html=1;shape=mxgraph.flowchart.decision;whiteSpace=wrap;fontSize=12;" vertex="1" parent="WIyWlLk6GJQsqaUBKTNV-1">
          <mxGeometry x="2367" y="1774" width="196.25" height="60" as="geometry" />
        </mxCell>
        <mxCell id="9ndEdKU9HdRyCCjR_hsN-89" value="current_room=&#39;cryo&#39;" style="rounded=1;whiteSpace=wrap;html=1;absoluteArcSize=1;arcSize=14;strokeWidth=2;" vertex="1" parent="WIyWlLk6GJQsqaUBKTNV-1">
          <mxGeometry x="2596.87" y="1604" width="150" height="40" as="geometry" />
        </mxCell>
        <mxCell id="9ndEdKU9HdRyCCjR_hsN-90" value="current_room=&#39;galley&#39;" style="rounded=1;whiteSpace=wrap;html=1;absoluteArcSize=1;arcSize=14;strokeWidth=2;" vertex="1" parent="WIyWlLk6GJQsqaUBKTNV-1">
          <mxGeometry x="2596.87" y="1693" width="150" height="40" as="geometry" />
        </mxCell>
        <mxCell id="9ndEdKU9HdRyCCjR_hsN-91" value="current_room=&#39;med&#39;" style="rounded=1;whiteSpace=wrap;html=1;absoluteArcSize=1;arcSize=14;strokeWidth=2;" vertex="1" parent="WIyWlLk6GJQsqaUBKTNV-1">
          <mxGeometry x="2596.87" y="1784" width="150" height="40" as="geometry" />
        </mxCell>
        <mxCell id="9ndEdKU9HdRyCCjR_hsN-92" value="current_room=&#39;cargo&#39;" style="rounded=1;whiteSpace=wrap;html=1;absoluteArcSize=1;arcSize=14;strokeWidth=2;" vertex="1" parent="WIyWlLk6GJQsqaUBKTNV-1">
          <mxGeometry x="2597.12" y="1874" width="150" height="40" as="geometry" />
        </mxCell>
        <mxCell id="9ndEdKU9HdRyCCjR_hsN-93" value="NO" style="text;html=1;align=center;verticalAlign=middle;whiteSpace=wrap;rounded=0;" vertex="1" parent="WIyWlLk6GJQsqaUBKTNV-1">
          <mxGeometry x="2426.87" y="1654" width="37" height="30" as="geometry" />
        </mxCell>
        <mxCell id="9ndEdKU9HdRyCCjR_hsN-94" style="edgeStyle=orthogonalEdgeStyle;rounded=0;orthogonalLoop=1;jettySize=auto;html=1;exitX=0.5;exitY=1;exitDx=0;exitDy=0;exitPerimeter=0;entryX=0.5;entryY=0;entryDx=0;entryDy=0;entryPerimeter=0;" edge="1" parent="WIyWlLk6GJQsqaUBKTNV-1" source="9ndEdKU9HdRyCCjR_hsN-83" target="9ndEdKU9HdRyCCjR_hsN-85">
          <mxGeometry relative="1" as="geometry" />
        </mxCell>
        <mxCell id="9ndEdKU9HdRyCCjR_hsN-95" style="edgeStyle=orthogonalEdgeStyle;rounded=0;orthogonalLoop=1;jettySize=auto;html=1;exitX=0.5;exitY=1;exitDx=0;exitDy=0;exitPerimeter=0;entryX=0.5;entryY=0;entryDx=0;entryDy=0;entryPerimeter=0;" edge="1" parent="WIyWlLk6GJQsqaUBKTNV-1" source="9ndEdKU9HdRyCCjR_hsN-85" target="9ndEdKU9HdRyCCjR_hsN-88">
          <mxGeometry relative="1" as="geometry" />
        </mxCell>
        <mxCell id="9ndEdKU9HdRyCCjR_hsN-96" style="edgeStyle=orthogonalEdgeStyle;rounded=0;orthogonalLoop=1;jettySize=auto;html=1;exitX=1;exitY=0.5;exitDx=0;exitDy=0;exitPerimeter=0;entryX=0.018;entryY=0.533;entryDx=0;entryDy=0;entryPerimeter=0;" edge="1" parent="WIyWlLk6GJQsqaUBKTNV-1" source="9ndEdKU9HdRyCCjR_hsN-85" target="9ndEdKU9HdRyCCjR_hsN-90">
          <mxGeometry relative="1" as="geometry" />
        </mxCell>
        <mxCell id="9ndEdKU9HdRyCCjR_hsN-97" value="NO" style="text;html=1;align=center;verticalAlign=middle;whiteSpace=wrap;rounded=0;" vertex="1" parent="WIyWlLk6GJQsqaUBKTNV-1">
          <mxGeometry x="2426.87" y="1744" width="37" height="30" as="geometry" />
        </mxCell>
        <mxCell id="9ndEdKU9HdRyCCjR_hsN-98" value="NO" style="text;html=1;align=center;verticalAlign=middle;whiteSpace=wrap;rounded=0;" vertex="1" parent="WIyWlLk6GJQsqaUBKTNV-1">
          <mxGeometry x="2426.87" y="1834" width="37" height="30" as="geometry" />
        </mxCell>
        <mxCell id="9ndEdKU9HdRyCCjR_hsN-99" value="&lt;span style=&quot;text-wrap: wrap;&quot;&gt;YES&lt;/span&gt;" style="text;html=1;align=left;verticalAlign=middle;resizable=0;points=[];autosize=1;strokeColor=none;fillColor=none;" vertex="1" parent="WIyWlLk6GJQsqaUBKTNV-1">
          <mxGeometry x="2110" y="1594" width="50" height="30" as="geometry" />
        </mxCell>
        <mxCell id="9ndEdKU9HdRyCCjR_hsN-100" value="&lt;span style=&quot;text-wrap: wrap;&quot;&gt;YES&lt;/span&gt;" style="text;html=1;align=left;verticalAlign=middle;resizable=0;points=[];autosize=1;strokeColor=none;fillColor=none;" vertex="1" parent="WIyWlLk6GJQsqaUBKTNV-1">
          <mxGeometry x="2110" y="1684" width="50" height="30" as="geometry" />
        </mxCell>
        <mxCell id="9ndEdKU9HdRyCCjR_hsN-101" value="&lt;span style=&quot;text-wrap: wrap;&quot;&gt;YES&lt;/span&gt;" style="text;html=1;align=left;verticalAlign=middle;resizable=0;points=[];autosize=1;strokeColor=none;fillColor=none;" vertex="1" parent="WIyWlLk6GJQsqaUBKTNV-1">
          <mxGeometry x="2547.12" y="1594" width="50" height="30" as="geometry" />
        </mxCell>
        <mxCell id="9ndEdKU9HdRyCCjR_hsN-102" value="&lt;span style=&quot;text-wrap: wrap;&quot;&gt;YES&lt;/span&gt;" style="text;html=1;align=left;verticalAlign=middle;resizable=0;points=[];autosize=1;strokeColor=none;fillColor=none;" vertex="1" parent="WIyWlLk6GJQsqaUBKTNV-1">
          <mxGeometry x="2546.87" y="1684" width="50" height="30" as="geometry" />
        </mxCell>
        <mxCell id="9ndEdKU9HdRyCCjR_hsN-103" value="&lt;span style=&quot;text-wrap: wrap;&quot;&gt;YES&lt;/span&gt;" style="text;html=1;align=left;verticalAlign=middle;resizable=0;points=[];autosize=1;strokeColor=none;fillColor=none;" vertex="1" parent="WIyWlLk6GJQsqaUBKTNV-1">
          <mxGeometry x="2543.12" y="1774" width="50" height="30" as="geometry" />
        </mxCell>
        <mxCell id="9ndEdKU9HdRyCCjR_hsN-104" style="edgeStyle=orthogonalEdgeStyle;rounded=0;orthogonalLoop=1;jettySize=auto;html=1;entryX=0;entryY=0.5;entryDx=0;entryDy=0;" edge="1" parent="WIyWlLk6GJQsqaUBKTNV-1" source="9ndEdKU9HdRyCCjR_hsN-105" target="9ndEdKU9HdRyCCjR_hsN-110">
          <mxGeometry relative="1" as="geometry" />
        </mxCell>
        <mxCell id="9ndEdKU9HdRyCCjR_hsN-105" value="IF current_room==&#39;bridge&#39;" style="strokeWidth=2;html=1;shape=mxgraph.flowchart.decision;whiteSpace=wrap;fontSize=12;" vertex="1" parent="WIyWlLk6GJQsqaUBKTNV-1">
          <mxGeometry x="3381.87" y="1594" width="196.25" height="60" as="geometry" />
        </mxCell>
        <mxCell id="9ndEdKU9HdRyCCjR_hsN-106" value="IF current_room==&#39;cabin&#39;" style="strokeWidth=2;html=1;shape=mxgraph.flowchart.decision;whiteSpace=wrap;fontSize=12;" vertex="1" parent="WIyWlLk6GJQsqaUBKTNV-1">
          <mxGeometry x="3381.87" y="1684" width="196.25" height="60" as="geometry" />
        </mxCell>
        <mxCell id="9ndEdKU9HdRyCCjR_hsN-107" style="edgeStyle=orthogonalEdgeStyle;rounded=0;orthogonalLoop=1;jettySize=auto;html=1;exitX=1;exitY=0.5;exitDx=0;exitDy=0;exitPerimeter=0;entryX=0;entryY=0.5;entryDx=0;entryDy=0;" edge="1" parent="WIyWlLk6GJQsqaUBKTNV-1" source="9ndEdKU9HdRyCCjR_hsN-109" target="9ndEdKU9HdRyCCjR_hsN-112">
          <mxGeometry relative="1" as="geometry" />
        </mxCell>
        <mxCell id="9ndEdKU9HdRyCCjR_hsN-108" style="edgeStyle=orthogonalEdgeStyle;rounded=0;orthogonalLoop=1;jettySize=auto;html=1;exitX=0.5;exitY=1;exitDx=0;exitDy=0;exitPerimeter=0;entryX=0.5;entryY=0;entryDx=0;entryDy=0;" edge="1" parent="WIyWlLk6GJQsqaUBKTNV-1" source="9ndEdKU9HdRyCCjR_hsN-109" target="9ndEdKU9HdRyCCjR_hsN-146">
          <mxGeometry relative="1" as="geometry" />
        </mxCell>
        <mxCell id="9ndEdKU9HdRyCCjR_hsN-109" value="IF current_room==&#39;med&#39;" style="strokeWidth=2;html=1;shape=mxgraph.flowchart.decision;whiteSpace=wrap;fontSize=12;" vertex="1" parent="WIyWlLk6GJQsqaUBKTNV-1">
          <mxGeometry x="3381.87" y="1774" width="196.25" height="60" as="geometry" />
        </mxCell>
        <mxCell id="9ndEdKU9HdRyCCjR_hsN-110" value="current_room=&#39;galley&#39;" style="rounded=1;whiteSpace=wrap;html=1;absoluteArcSize=1;arcSize=14;strokeWidth=2;" vertex="1" parent="WIyWlLk6GJQsqaUBKTNV-1">
          <mxGeometry x="3611.74" y="1604" width="150" height="40" as="geometry" />
        </mxCell>
        <mxCell id="9ndEdKU9HdRyCCjR_hsN-111" value="current_room=&#39;eng&#39;" style="rounded=1;whiteSpace=wrap;html=1;absoluteArcSize=1;arcSize=14;strokeWidth=2;" vertex="1" parent="WIyWlLk6GJQsqaUBKTNV-1">
          <mxGeometry x="3611.74" y="1693" width="150" height="40" as="geometry" />
        </mxCell>
        <mxCell id="9ndEdKU9HdRyCCjR_hsN-112" value="current_room=&#39;cargo&#39;" style="rounded=1;whiteSpace=wrap;html=1;absoluteArcSize=1;arcSize=14;strokeWidth=2;" vertex="1" parent="WIyWlLk6GJQsqaUBKTNV-1">
          <mxGeometry x="3611.74" y="1784" width="150" height="40" as="geometry" />
        </mxCell>
        <mxCell id="9ndEdKU9HdRyCCjR_hsN-113" value="NO" style="text;html=1;align=center;verticalAlign=middle;whiteSpace=wrap;rounded=0;" vertex="1" parent="WIyWlLk6GJQsqaUBKTNV-1">
          <mxGeometry x="3441.74" y="1654" width="37" height="30" as="geometry" />
        </mxCell>
        <mxCell id="9ndEdKU9HdRyCCjR_hsN-114" style="edgeStyle=orthogonalEdgeStyle;rounded=0;orthogonalLoop=1;jettySize=auto;html=1;exitX=0.5;exitY=1;exitDx=0;exitDy=0;exitPerimeter=0;entryX=0.5;entryY=0;entryDx=0;entryDy=0;entryPerimeter=0;" edge="1" parent="WIyWlLk6GJQsqaUBKTNV-1" source="9ndEdKU9HdRyCCjR_hsN-105" target="9ndEdKU9HdRyCCjR_hsN-106">
          <mxGeometry relative="1" as="geometry" />
        </mxCell>
        <mxCell id="9ndEdKU9HdRyCCjR_hsN-115" style="edgeStyle=orthogonalEdgeStyle;rounded=0;orthogonalLoop=1;jettySize=auto;html=1;exitX=0.5;exitY=1;exitDx=0;exitDy=0;exitPerimeter=0;entryX=0.5;entryY=0;entryDx=0;entryDy=0;entryPerimeter=0;" edge="1" parent="WIyWlLk6GJQsqaUBKTNV-1" source="9ndEdKU9HdRyCCjR_hsN-106" target="9ndEdKU9HdRyCCjR_hsN-109">
          <mxGeometry relative="1" as="geometry" />
        </mxCell>
        <mxCell id="9ndEdKU9HdRyCCjR_hsN-116" style="edgeStyle=orthogonalEdgeStyle;rounded=0;orthogonalLoop=1;jettySize=auto;html=1;exitX=1;exitY=0.5;exitDx=0;exitDy=0;exitPerimeter=0;entryX=0.018;entryY=0.533;entryDx=0;entryDy=0;entryPerimeter=0;" edge="1" parent="WIyWlLk6GJQsqaUBKTNV-1" source="9ndEdKU9HdRyCCjR_hsN-106" target="9ndEdKU9HdRyCCjR_hsN-111">
          <mxGeometry relative="1" as="geometry" />
        </mxCell>
        <mxCell id="9ndEdKU9HdRyCCjR_hsN-117" value="NO" style="text;html=1;align=center;verticalAlign=middle;whiteSpace=wrap;rounded=0;" vertex="1" parent="WIyWlLk6GJQsqaUBKTNV-1">
          <mxGeometry x="3441.74" y="1744" width="37" height="30" as="geometry" />
        </mxCell>
        <mxCell id="9ndEdKU9HdRyCCjR_hsN-118" value="NO" style="text;html=1;align=center;verticalAlign=middle;whiteSpace=wrap;rounded=0;" vertex="1" parent="WIyWlLk6GJQsqaUBKTNV-1">
          <mxGeometry x="3441.74" y="1834" width="37" height="30" as="geometry" />
        </mxCell>
        <mxCell id="9ndEdKU9HdRyCCjR_hsN-119" value="&lt;span style=&quot;text-wrap: wrap;&quot;&gt;YES&lt;/span&gt;" style="text;html=1;align=left;verticalAlign=middle;resizable=0;points=[];autosize=1;strokeColor=none;fillColor=none;" vertex="1" parent="WIyWlLk6GJQsqaUBKTNV-1">
          <mxGeometry x="3561.99" y="1594" width="50" height="30" as="geometry" />
        </mxCell>
        <mxCell id="9ndEdKU9HdRyCCjR_hsN-120" value="&lt;span style=&quot;text-wrap: wrap;&quot;&gt;YES&lt;/span&gt;" style="text;html=1;align=left;verticalAlign=middle;resizable=0;points=[];autosize=1;strokeColor=none;fillColor=none;" vertex="1" parent="WIyWlLk6GJQsqaUBKTNV-1">
          <mxGeometry x="3561.74" y="1684" width="50" height="30" as="geometry" />
        </mxCell>
        <mxCell id="9ndEdKU9HdRyCCjR_hsN-121" value="&lt;span style=&quot;text-wrap: wrap;&quot;&gt;YES&lt;/span&gt;" style="text;html=1;align=left;verticalAlign=middle;resizable=0;points=[];autosize=1;strokeColor=none;fillColor=none;" vertex="1" parent="WIyWlLk6GJQsqaUBKTNV-1">
          <mxGeometry x="3557.99" y="1774" width="50" height="30" as="geometry" />
        </mxCell>
        <mxCell id="9ndEdKU9HdRyCCjR_hsN-122" style="edgeStyle=orthogonalEdgeStyle;rounded=0;orthogonalLoop=1;jettySize=auto;html=1;entryX=0;entryY=0.5;entryDx=0;entryDy=0;" edge="1" parent="WIyWlLk6GJQsqaUBKTNV-1" source="9ndEdKU9HdRyCCjR_hsN-123" target="9ndEdKU9HdRyCCjR_hsN-128">
          <mxGeometry relative="1" as="geometry" />
        </mxCell>
        <mxCell id="9ndEdKU9HdRyCCjR_hsN-123" value="IF current_room==&#39;cargo&#39;" style="strokeWidth=2;html=1;shape=mxgraph.flowchart.decision;whiteSpace=wrap;fontSize=12;" vertex="1" parent="WIyWlLk6GJQsqaUBKTNV-1">
          <mxGeometry x="2864" y="1594" width="196.25" height="60" as="geometry" />
        </mxCell>
        <mxCell id="9ndEdKU9HdRyCCjR_hsN-124" value="IF current_room==&#39;galley&#39;" style="strokeWidth=2;html=1;shape=mxgraph.flowchart.decision;whiteSpace=wrap;fontSize=12;" vertex="1" parent="WIyWlLk6GJQsqaUBKTNV-1">
          <mxGeometry x="2864" y="1684" width="196.25" height="60" as="geometry" />
        </mxCell>
        <mxCell id="9ndEdKU9HdRyCCjR_hsN-125" style="edgeStyle=orthogonalEdgeStyle;rounded=0;orthogonalLoop=1;jettySize=auto;html=1;exitX=1;exitY=0.5;exitDx=0;exitDy=0;exitPerimeter=0;entryX=0;entryY=0.5;entryDx=0;entryDy=0;" edge="1" parent="WIyWlLk6GJQsqaUBKTNV-1" source="9ndEdKU9HdRyCCjR_hsN-127" target="9ndEdKU9HdRyCCjR_hsN-130">
          <mxGeometry relative="1" as="geometry" />
        </mxCell>
        <mxCell id="9ndEdKU9HdRyCCjR_hsN-126" style="edgeStyle=orthogonalEdgeStyle;rounded=0;orthogonalLoop=1;jettySize=auto;html=1;exitX=0.5;exitY=1;exitDx=0;exitDy=0;exitPerimeter=0;entryX=0;entryY=0.5;entryDx=0;entryDy=0;" edge="1" parent="WIyWlLk6GJQsqaUBKTNV-1" source="9ndEdKU9HdRyCCjR_hsN-127" target="9ndEdKU9HdRyCCjR_hsN-131">
          <mxGeometry relative="1" as="geometry" />
        </mxCell>
        <mxCell id="9ndEdKU9HdRyCCjR_hsN-127" value="IF current_room==&#39;med&#39;" style="strokeWidth=2;html=1;shape=mxgraph.flowchart.decision;whiteSpace=wrap;fontSize=12;" vertex="1" parent="WIyWlLk6GJQsqaUBKTNV-1">
          <mxGeometry x="2864" y="1774" width="196.25" height="60" as="geometry" />
        </mxCell>
        <mxCell id="9ndEdKU9HdRyCCjR_hsN-128" value="current_room=&#39;cryo&#39;" style="rounded=1;whiteSpace=wrap;html=1;absoluteArcSize=1;arcSize=14;strokeWidth=2;" vertex="1" parent="WIyWlLk6GJQsqaUBKTNV-1">
          <mxGeometry x="3093.87" y="1604" width="150" height="40" as="geometry" />
        </mxCell>
        <mxCell id="9ndEdKU9HdRyCCjR_hsN-129" value="current_room=&#39;cabin&#39;" style="rounded=1;whiteSpace=wrap;html=1;absoluteArcSize=1;arcSize=14;strokeWidth=2;" vertex="1" parent="WIyWlLk6GJQsqaUBKTNV-1">
          <mxGeometry x="3093.87" y="1693" width="150" height="40" as="geometry" />
        </mxCell>
        <mxCell id="9ndEdKU9HdRyCCjR_hsN-130" value="current_room=&#39;galley&#39;" style="rounded=1;whiteSpace=wrap;html=1;absoluteArcSize=1;arcSize=14;strokeWidth=2;" vertex="1" parent="WIyWlLk6GJQsqaUBKTNV-1">
          <mxGeometry x="3093.87" y="1784" width="150" height="40" as="geometry" />
        </mxCell>
        <mxCell id="9ndEdKU9HdRyCCjR_hsN-131" value="current_room=&#39;eng&#39;" style="rounded=1;whiteSpace=wrap;html=1;absoluteArcSize=1;arcSize=14;strokeWidth=2;" vertex="1" parent="WIyWlLk6GJQsqaUBKTNV-1">
          <mxGeometry x="3094.12" y="1874" width="150" height="40" as="geometry" />
        </mxCell>
        <mxCell id="9ndEdKU9HdRyCCjR_hsN-132" value="NO" style="text;html=1;align=center;verticalAlign=middle;whiteSpace=wrap;rounded=0;" vertex="1" parent="WIyWlLk6GJQsqaUBKTNV-1">
          <mxGeometry x="2923.87" y="1654" width="37" height="30" as="geometry" />
        </mxCell>
        <mxCell id="9ndEdKU9HdRyCCjR_hsN-133" style="edgeStyle=orthogonalEdgeStyle;rounded=0;orthogonalLoop=1;jettySize=auto;html=1;exitX=0.5;exitY=1;exitDx=0;exitDy=0;exitPerimeter=0;entryX=0.5;entryY=0;entryDx=0;entryDy=0;entryPerimeter=0;" edge="1" parent="WIyWlLk6GJQsqaUBKTNV-1" source="9ndEdKU9HdRyCCjR_hsN-124" target="9ndEdKU9HdRyCCjR_hsN-127">
          <mxGeometry relative="1" as="geometry" />
        </mxCell>
        <mxCell id="9ndEdKU9HdRyCCjR_hsN-134" style="edgeStyle=orthogonalEdgeStyle;rounded=0;orthogonalLoop=1;jettySize=auto;html=1;exitX=1;exitY=0.5;exitDx=0;exitDy=0;exitPerimeter=0;entryX=0.018;entryY=0.533;entryDx=0;entryDy=0;entryPerimeter=0;" edge="1" parent="WIyWlLk6GJQsqaUBKTNV-1" source="9ndEdKU9HdRyCCjR_hsN-124" target="9ndEdKU9HdRyCCjR_hsN-129">
          <mxGeometry relative="1" as="geometry" />
        </mxCell>
        <mxCell id="9ndEdKU9HdRyCCjR_hsN-135" value="NO" style="text;html=1;align=center;verticalAlign=middle;whiteSpace=wrap;rounded=0;" vertex="1" parent="WIyWlLk6GJQsqaUBKTNV-1">
          <mxGeometry x="2923.87" y="1744" width="37" height="30" as="geometry" />
        </mxCell>
        <mxCell id="9ndEdKU9HdRyCCjR_hsN-136" value="NO" style="text;html=1;align=center;verticalAlign=middle;whiteSpace=wrap;rounded=0;" vertex="1" parent="WIyWlLk6GJQsqaUBKTNV-1">
          <mxGeometry x="2923.87" y="1834" width="37" height="30" as="geometry" />
        </mxCell>
        <mxCell id="9ndEdKU9HdRyCCjR_hsN-137" value="&lt;span style=&quot;text-wrap: wrap;&quot;&gt;YES&lt;/span&gt;" style="text;html=1;align=left;verticalAlign=middle;resizable=0;points=[];autosize=1;strokeColor=none;fillColor=none;" vertex="1" parent="WIyWlLk6GJQsqaUBKTNV-1">
          <mxGeometry x="3044.12" y="1594" width="50" height="30" as="geometry" />
        </mxCell>
        <mxCell id="9ndEdKU9HdRyCCjR_hsN-138" value="&lt;span style=&quot;text-wrap: wrap;&quot;&gt;YES&lt;/span&gt;" style="text;html=1;align=left;verticalAlign=middle;resizable=0;points=[];autosize=1;strokeColor=none;fillColor=none;" vertex="1" parent="WIyWlLk6GJQsqaUBKTNV-1">
          <mxGeometry x="3043.87" y="1684" width="50" height="30" as="geometry" />
        </mxCell>
        <mxCell id="9ndEdKU9HdRyCCjR_hsN-139" value="&lt;span style=&quot;text-wrap: wrap;&quot;&gt;YES&lt;/span&gt;" style="text;html=1;align=left;verticalAlign=middle;resizable=0;points=[];autosize=1;strokeColor=none;fillColor=none;" vertex="1" parent="WIyWlLk6GJQsqaUBKTNV-1">
          <mxGeometry x="3040.12" y="1774" width="50" height="30" as="geometry" />
        </mxCell>
        <mxCell id="9ndEdKU9HdRyCCjR_hsN-140" style="edgeStyle=orthogonalEdgeStyle;rounded=0;orthogonalLoop=1;jettySize=auto;html=1;exitX=0.5;exitY=1;exitDx=0;exitDy=0;exitPerimeter=0;entryX=0.5;entryY=0;entryDx=0;entryDy=0;entryPerimeter=0;" edge="1" parent="WIyWlLk6GJQsqaUBKTNV-1" source="9ndEdKU9HdRyCCjR_hsN-123" target="9ndEdKU9HdRyCCjR_hsN-124">
          <mxGeometry relative="1" as="geometry" />
        </mxCell>
        <mxCell id="9ndEdKU9HdRyCCjR_hsN-141" style="edgeStyle=orthogonalEdgeStyle;rounded=0;orthogonalLoop=1;jettySize=auto;html=1;exitX=0.5;exitY=1;exitDx=0;exitDy=0;exitPerimeter=0;entryX=0.5;entryY=0;entryDx=0;entryDy=0;entryPerimeter=0;" edge="1" parent="WIyWlLk6GJQsqaUBKTNV-1" source="9ndEdKU9HdRyCCjR_hsN-64" target="9ndEdKU9HdRyCCjR_hsN-123">
          <mxGeometry relative="1" as="geometry" />
        </mxCell>
        <mxCell id="9ndEdKU9HdRyCCjR_hsN-142" style="edgeStyle=orthogonalEdgeStyle;rounded=0;orthogonalLoop=1;jettySize=auto;html=1;exitX=1;exitY=0.5;exitDx=0;exitDy=0;exitPerimeter=0;entryX=0.5;entryY=0;entryDx=0;entryDy=0;entryPerimeter=0;" edge="1" parent="WIyWlLk6GJQsqaUBKTNV-1" source="9ndEdKU9HdRyCCjR_hsN-64" target="9ndEdKU9HdRyCCjR_hsN-105">
          <mxGeometry relative="1" as="geometry" />
        </mxCell>
        <mxCell id="9ndEdKU9HdRyCCjR_hsN-143" value="&lt;span style=&quot;text-wrap: wrap;&quot;&gt;YES&lt;/span&gt;" style="text;html=1;align=left;verticalAlign=middle;resizable=0;points=[];autosize=1;strokeColor=none;fillColor=none;" vertex="1" parent="WIyWlLk6GJQsqaUBKTNV-1">
          <mxGeometry x="2476.37" y="1474" width="50" height="30" as="geometry" />
        </mxCell>
        <mxCell id="9ndEdKU9HdRyCCjR_hsN-144" value="&lt;span style=&quot;text-wrap: wrap;&quot;&gt;YES&lt;/span&gt;" style="text;html=1;align=left;verticalAlign=middle;resizable=0;points=[];autosize=1;strokeColor=none;fillColor=none;" vertex="1" parent="WIyWlLk6GJQsqaUBKTNV-1">
          <mxGeometry x="2235" y="1474" width="50" height="30" as="geometry" />
        </mxCell>
        <mxCell id="9ndEdKU9HdRyCCjR_hsN-145" value="&lt;span style=&quot;text-wrap: wrap;&quot;&gt;YES&lt;/span&gt;" style="text;html=1;align=left;verticalAlign=middle;resizable=0;points=[];autosize=1;strokeColor=none;fillColor=none;" vertex="1" parent="WIyWlLk6GJQsqaUBKTNV-1">
          <mxGeometry x="2973.25" y="1474" width="50" height="30" as="geometry" />
        </mxCell>
        <mxCell id="9ndEdKU9HdRyCCjR_hsN-146" value="LOOP:&lt;div&gt;check if map.item_collected == true&lt;/div&gt;" style="verticalLabelPosition=middle;verticalAlign=top;html=1;shape=trapezoid;perimeter=trapezoidPerimeter;whiteSpace=wrap;size=0.23;arcSize=10;flipV=1;labelPosition=center;align=center;" vertex="1" parent="WIyWlLk6GJQsqaUBKTNV-1">
          <mxGeometry x="3336" y="1959" width="288" height="55" as="geometry" />
        </mxCell>
        <mxCell id="9ndEdKU9HdRyCCjR_hsN-147" value="PRINT: you should collect all the items" style="strokeWidth=2;html=1;shape=mxgraph.flowchart.display;whiteSpace=wrap;fontSize=12;" vertex="1" parent="WIyWlLk6GJQsqaUBKTNV-1">
          <mxGeometry x="3414.99" y="2059" width="130" height="68" as="geometry" />
        </mxCell>
        <mxCell id="9ndEdKU9HdRyCCjR_hsN-148" style="edgeStyle=orthogonalEdgeStyle;rounded=0;orthogonalLoop=1;jettySize=auto;html=1;exitX=0.5;exitY=1;exitDx=0;exitDy=0;entryX=0.5;entryY=0;entryDx=0;entryDy=0;entryPerimeter=0;" edge="1" parent="WIyWlLk6GJQsqaUBKTNV-1" source="9ndEdKU9HdRyCCjR_hsN-146" target="9ndEdKU9HdRyCCjR_hsN-147">
          <mxGeometry relative="1" as="geometry" />
        </mxCell>
        <mxCell id="9ndEdKU9HdRyCCjR_hsN-152" style="edgeStyle=orthogonalEdgeStyle;rounded=0;orthogonalLoop=1;jettySize=auto;html=1;exitX=1;exitY=0.5;exitDx=0;exitDy=0;entryX=0;entryY=0.5;entryDx=0;entryDy=0;entryPerimeter=0;" edge="1" parent="WIyWlLk6GJQsqaUBKTNV-1" source="9ndEdKU9HdRyCCjR_hsN-146">
          <mxGeometry relative="1" as="geometry">
            <mxPoint x="3668" y="1986.4999999999995" as="targetPoint" />
          </mxGeometry>
        </mxCell>
        <mxCell id="9ndEdKU9HdRyCCjR_hsN-154" value="" style="verticalLabelPosition=bottom;verticalAlign=top;html=1;shape=mxgraph.flowchart.on-page_reference;" vertex="1" parent="WIyWlLk6GJQsqaUBKTNV-1">
          <mxGeometry x="3832" y="1683" width="60" height="60" as="geometry" />
        </mxCell>
        <mxCell id="9ndEdKU9HdRyCCjR_hsN-155" value="" style="verticalLabelPosition=bottom;verticalAlign=top;html=1;shape=mxgraph.flowchart.on-page_reference;" vertex="1" parent="WIyWlLk6GJQsqaUBKTNV-1">
          <mxGeometry x="3264" y="2164" width="60" height="60" as="geometry" />
        </mxCell>
        <mxCell id="9ndEdKU9HdRyCCjR_hsN-156" value="" style="verticalLabelPosition=bottom;verticalAlign=top;html=1;shape=mxgraph.flowchart.on-page_reference;" vertex="1" parent="WIyWlLk6GJQsqaUBKTNV-1">
          <mxGeometry x="2763" y="2164" width="60" height="60" as="geometry" />
        </mxCell>
        <mxCell id="9ndEdKU9HdRyCCjR_hsN-157" value="" style="verticalLabelPosition=bottom;verticalAlign=top;html=1;shape=mxgraph.flowchart.on-page_reference;" vertex="1" parent="WIyWlLk6GJQsqaUBKTNV-1">
          <mxGeometry x="1860" y="2164" width="60" height="60" as="geometry" />
        </mxCell>
        <mxCell id="9ndEdKU9HdRyCCjR_hsN-158" style="edgeStyle=orthogonalEdgeStyle;rounded=0;orthogonalLoop=1;jettySize=auto;html=1;exitX=0.5;exitY=1;exitDx=0;exitDy=0;entryX=1;entryY=0.5;entryDx=0;entryDy=0;entryPerimeter=0;" edge="1" parent="WIyWlLk6GJQsqaUBKTNV-1" source="9ndEdKU9HdRyCCjR_hsN-81" target="9ndEdKU9HdRyCCjR_hsN-157">
          <mxGeometry relative="1" as="geometry" />
        </mxCell>
        <mxCell id="9ndEdKU9HdRyCCjR_hsN-159" style="edgeStyle=orthogonalEdgeStyle;rounded=0;orthogonalLoop=1;jettySize=auto;html=1;exitX=0;exitY=0.5;exitDx=0;exitDy=0;entryX=0.5;entryY=0;entryDx=0;entryDy=0;entryPerimeter=0;" edge="1" parent="WIyWlLk6GJQsqaUBKTNV-1" source="9ndEdKU9HdRyCCjR_hsN-80" target="9ndEdKU9HdRyCCjR_hsN-157">
          <mxGeometry relative="1" as="geometry" />
        </mxCell>
        <mxCell id="9ndEdKU9HdRyCCjR_hsN-160" style="edgeStyle=orthogonalEdgeStyle;rounded=0;orthogonalLoop=1;jettySize=auto;html=1;exitX=0;exitY=0.5;exitDx=0;exitDy=0;entryX=0.145;entryY=0.145;entryDx=0;entryDy=0;entryPerimeter=0;" edge="1" parent="WIyWlLk6GJQsqaUBKTNV-1" source="9ndEdKU9HdRyCCjR_hsN-79" target="9ndEdKU9HdRyCCjR_hsN-157">
          <mxGeometry relative="1" as="geometry" />
        </mxCell>
        <mxCell id="9ndEdKU9HdRyCCjR_hsN-161" style="edgeStyle=orthogonalEdgeStyle;rounded=0;orthogonalLoop=1;jettySize=auto;html=1;exitX=0.5;exitY=1;exitDx=0;exitDy=0;exitPerimeter=0;entryX=0.145;entryY=0.855;entryDx=0;entryDy=0;entryPerimeter=0;" edge="1" parent="WIyWlLk6GJQsqaUBKTNV-1" source="9ndEdKU9HdRyCCjR_hsN-157" target="9ndEdKU9HdRyCCjR_hsN-156">
          <mxGeometry relative="1" as="geometry">
            <Array as="points">
              <mxPoint x="1890" y="2244" />
              <mxPoint x="2772" y="2244" />
              <mxPoint x="2772" y="2224" />
              <mxPoint x="2772" y="2224" />
            </Array>
          </mxGeometry>
        </mxCell>
        <mxCell id="9ndEdKU9HdRyCCjR_hsN-162" style="edgeStyle=orthogonalEdgeStyle;rounded=0;orthogonalLoop=1;jettySize=auto;html=1;exitX=0.5;exitY=1;exitDx=0;exitDy=0;entryX=0;entryY=0.5;entryDx=0;entryDy=0;entryPerimeter=0;" edge="1" parent="WIyWlLk6GJQsqaUBKTNV-1" source="9ndEdKU9HdRyCCjR_hsN-92" target="9ndEdKU9HdRyCCjR_hsN-156">
          <mxGeometry relative="1" as="geometry" />
        </mxCell>
        <mxCell id="9ndEdKU9HdRyCCjR_hsN-163" style="edgeStyle=orthogonalEdgeStyle;rounded=0;orthogonalLoop=1;jettySize=auto;html=1;exitX=1;exitY=0.5;exitDx=0;exitDy=0;entryX=0.145;entryY=0.145;entryDx=0;entryDy=0;entryPerimeter=0;" edge="1" parent="WIyWlLk6GJQsqaUBKTNV-1" source="9ndEdKU9HdRyCCjR_hsN-91" target="9ndEdKU9HdRyCCjR_hsN-156">
          <mxGeometry relative="1" as="geometry" />
        </mxCell>
        <mxCell id="9ndEdKU9HdRyCCjR_hsN-164" style="edgeStyle=orthogonalEdgeStyle;rounded=0;orthogonalLoop=1;jettySize=auto;html=1;exitX=1;exitY=0.5;exitDx=0;exitDy=0;entryX=0.5;entryY=0;entryDx=0;entryDy=0;entryPerimeter=0;" edge="1" parent="WIyWlLk6GJQsqaUBKTNV-1" source="9ndEdKU9HdRyCCjR_hsN-90" target="9ndEdKU9HdRyCCjR_hsN-156">
          <mxGeometry relative="1" as="geometry" />
        </mxCell>
        <mxCell id="9ndEdKU9HdRyCCjR_hsN-165" style="edgeStyle=orthogonalEdgeStyle;rounded=0;orthogonalLoop=1;jettySize=auto;html=1;exitX=1;exitY=0.5;exitDx=0;exitDy=0;entryX=0.855;entryY=0.145;entryDx=0;entryDy=0;entryPerimeter=0;" edge="1" parent="WIyWlLk6GJQsqaUBKTNV-1" source="9ndEdKU9HdRyCCjR_hsN-89" target="9ndEdKU9HdRyCCjR_hsN-156">
          <mxGeometry relative="1" as="geometry" />
        </mxCell>
        <mxCell id="9ndEdKU9HdRyCCjR_hsN-166" style="edgeStyle=orthogonalEdgeStyle;rounded=0;orthogonalLoop=1;jettySize=auto;html=1;exitX=0.855;exitY=0.855;exitDx=0;exitDy=0;exitPerimeter=0;entryX=0.145;entryY=0.855;entryDx=0;entryDy=0;entryPerimeter=0;" edge="1" parent="WIyWlLk6GJQsqaUBKTNV-1" source="9ndEdKU9HdRyCCjR_hsN-156" target="9ndEdKU9HdRyCCjR_hsN-155">
          <mxGeometry relative="1" as="geometry">
            <Array as="points">
              <mxPoint x="2814" y="2244" />
              <mxPoint x="3273" y="2244" />
              <mxPoint x="3273" y="2215" />
            </Array>
          </mxGeometry>
        </mxCell>
        <mxCell id="9ndEdKU9HdRyCCjR_hsN-167" style="edgeStyle=orthogonalEdgeStyle;rounded=0;orthogonalLoop=1;jettySize=auto;html=1;exitX=0.5;exitY=1;exitDx=0;exitDy=0;entryX=0;entryY=0.5;entryDx=0;entryDy=0;entryPerimeter=0;" edge="1" parent="WIyWlLk6GJQsqaUBKTNV-1" source="9ndEdKU9HdRyCCjR_hsN-131" target="9ndEdKU9HdRyCCjR_hsN-155">
          <mxGeometry relative="1" as="geometry" />
        </mxCell>
        <mxCell id="9ndEdKU9HdRyCCjR_hsN-168" style="edgeStyle=orthogonalEdgeStyle;rounded=0;orthogonalLoop=1;jettySize=auto;html=1;exitX=1;exitY=0.5;exitDx=0;exitDy=0;entryX=0.145;entryY=0.145;entryDx=0;entryDy=0;entryPerimeter=0;" edge="1" parent="WIyWlLk6GJQsqaUBKTNV-1" source="9ndEdKU9HdRyCCjR_hsN-130" target="9ndEdKU9HdRyCCjR_hsN-155">
          <mxGeometry relative="1" as="geometry" />
        </mxCell>
        <mxCell id="9ndEdKU9HdRyCCjR_hsN-169" style="edgeStyle=orthogonalEdgeStyle;rounded=0;orthogonalLoop=1;jettySize=auto;html=1;exitX=1;exitY=0.5;exitDx=0;exitDy=0;entryX=0.5;entryY=0;entryDx=0;entryDy=0;entryPerimeter=0;" edge="1" parent="WIyWlLk6GJQsqaUBKTNV-1" source="9ndEdKU9HdRyCCjR_hsN-129" target="9ndEdKU9HdRyCCjR_hsN-155">
          <mxGeometry relative="1" as="geometry" />
        </mxCell>
        <mxCell id="9ndEdKU9HdRyCCjR_hsN-170" style="edgeStyle=orthogonalEdgeStyle;rounded=0;orthogonalLoop=1;jettySize=auto;html=1;exitX=1;exitY=0.5;exitDx=0;exitDy=0;entryX=0.855;entryY=0.145;entryDx=0;entryDy=0;entryPerimeter=0;" edge="1" parent="WIyWlLk6GJQsqaUBKTNV-1" source="9ndEdKU9HdRyCCjR_hsN-128" target="9ndEdKU9HdRyCCjR_hsN-155">
          <mxGeometry relative="1" as="geometry" />
        </mxCell>
        <mxCell id="9ndEdKU9HdRyCCjR_hsN-171" style="edgeStyle=orthogonalEdgeStyle;rounded=0;orthogonalLoop=1;jettySize=auto;html=1;exitX=0.855;exitY=0.855;exitDx=0;exitDy=0;exitPerimeter=0;entryX=0.5;entryY=1;entryDx=0;entryDy=0;entryPerimeter=0;" edge="1" parent="WIyWlLk6GJQsqaUBKTNV-1" source="9ndEdKU9HdRyCCjR_hsN-155" target="9ndEdKU9HdRyCCjR_hsN-181">
          <mxGeometry relative="1" as="geometry">
            <mxPoint x="3327.3" y="2215.3" as="sourcePoint" />
            <Array as="points">
              <mxPoint x="3315" y="2244" />
              <mxPoint x="3862" y="2244" />
            </Array>
            <mxPoint x="3862" y="2224" as="targetPoint" />
          </mxGeometry>
        </mxCell>
        <mxCell id="9ndEdKU9HdRyCCjR_hsN-173" style="edgeStyle=orthogonalEdgeStyle;rounded=0;orthogonalLoop=1;jettySize=auto;html=1;exitX=1;exitY=0.5;exitDx=0;exitDy=0;entryX=0.145;entryY=0.855;entryDx=0;entryDy=0;entryPerimeter=0;" edge="1" parent="WIyWlLk6GJQsqaUBKTNV-1" source="9ndEdKU9HdRyCCjR_hsN-112" target="9ndEdKU9HdRyCCjR_hsN-154">
          <mxGeometry relative="1" as="geometry" />
        </mxCell>
        <mxCell id="9ndEdKU9HdRyCCjR_hsN-174" style="edgeStyle=orthogonalEdgeStyle;rounded=0;orthogonalLoop=1;jettySize=auto;html=1;exitX=1;exitY=0.5;exitDx=0;exitDy=0;entryX=0;entryY=0.5;entryDx=0;entryDy=0;entryPerimeter=0;" edge="1" parent="WIyWlLk6GJQsqaUBKTNV-1" source="9ndEdKU9HdRyCCjR_hsN-111" target="9ndEdKU9HdRyCCjR_hsN-154">
          <mxGeometry relative="1" as="geometry" />
        </mxCell>
        <mxCell id="9ndEdKU9HdRyCCjR_hsN-175" style="edgeStyle=orthogonalEdgeStyle;rounded=0;orthogonalLoop=1;jettySize=auto;html=1;exitX=1;exitY=0.5;exitDx=0;exitDy=0;entryX=0.145;entryY=0.145;entryDx=0;entryDy=0;entryPerimeter=0;" edge="1" parent="WIyWlLk6GJQsqaUBKTNV-1" source="9ndEdKU9HdRyCCjR_hsN-110" target="9ndEdKU9HdRyCCjR_hsN-154">
          <mxGeometry relative="1" as="geometry" />
        </mxCell>
        <mxCell id="9ndEdKU9HdRyCCjR_hsN-176" style="edgeStyle=orthogonalEdgeStyle;rounded=0;orthogonalLoop=1;jettySize=auto;html=1;exitX=0.5;exitY=1;exitDx=0;exitDy=0;exitPerimeter=0;entryX=0;entryY=0.5;entryDx=0;entryDy=0;entryPerimeter=0;" edge="1" parent="WIyWlLk6GJQsqaUBKTNV-1" source="9ndEdKU9HdRyCCjR_hsN-147" target="9ndEdKU9HdRyCCjR_hsN-181">
          <mxGeometry relative="1" as="geometry">
            <mxPoint x="3832" y="2194" as="targetPoint" />
          </mxGeometry>
        </mxCell>
        <mxCell id="9ndEdKU9HdRyCCjR_hsN-177" style="edgeStyle=orthogonalEdgeStyle;rounded=0;orthogonalLoop=1;jettySize=auto;html=1;exitX=0.5;exitY=1;exitDx=0;exitDy=0;exitPerimeter=0;entryX=0.5;entryY=0;entryDx=0;entryDy=0;" edge="1" parent="WIyWlLk6GJQsqaUBKTNV-1" source="9ndEdKU9HdRyCCjR_hsN-178" target="9ndEdKU9HdRyCCjR_hsN-179">
          <mxGeometry relative="1" as="geometry" />
        </mxCell>
        <mxCell id="9ndEdKU9HdRyCCjR_hsN-178" value="START ROOM MOVE" style="strokeWidth=2;html=1;shape=mxgraph.flowchart.terminator;whiteSpace=wrap;" vertex="1" parent="WIyWlLk6GJQsqaUBKTNV-1">
          <mxGeometry x="2175" y="1060" width="100" height="40" as="geometry" />
        </mxCell>
        <mxCell id="9ndEdKU9HdRyCCjR_hsN-179" value="User Input:&lt;div&gt;NESW&lt;/div&gt;" style="shape=parallelogram;html=1;strokeWidth=2;perimeter=parallelogramPerimeter;whiteSpace=wrap;rounded=1;arcSize=12;size=0.23;" vertex="1" parent="WIyWlLk6GJQsqaUBKTNV-1">
          <mxGeometry x="2165" y="1150.75" width="120" height="60" as="geometry" />
        </mxCell>
        <mxCell id="9ndEdKU9HdRyCCjR_hsN-180" style="edgeStyle=orthogonalEdgeStyle;rounded=0;orthogonalLoop=1;jettySize=auto;html=1;exitX=0.5;exitY=1;exitDx=0;exitDy=0;entryX=0.5;entryY=0;entryDx=0;entryDy=0;entryPerimeter=0;" edge="1" parent="WIyWlLk6GJQsqaUBKTNV-1" source="9ndEdKU9HdRyCCjR_hsN-188" target="9ndEdKU9HdRyCCjR_hsN-62">
          <mxGeometry relative="1" as="geometry" />
        </mxCell>
        <mxCell id="9ndEdKU9HdRyCCjR_hsN-181" value="END ROOM MOVE" style="strokeWidth=2;html=1;shape=mxgraph.flowchart.terminator;whiteSpace=wrap;" vertex="1" parent="WIyWlLk6GJQsqaUBKTNV-1">
          <mxGeometry x="3812" y="2170" width="100" height="44" as="geometry" />
        </mxCell>
        <mxCell id="9ndEdKU9HdRyCCjR_hsN-182" style="edgeStyle=orthogonalEdgeStyle;rounded=0;orthogonalLoop=1;jettySize=auto;html=1;exitX=0.5;exitY=1;exitDx=0;exitDy=0;exitPerimeter=0;entryX=0.5;entryY=0;entryDx=0;entryDy=0;entryPerimeter=0;" edge="1" parent="WIyWlLk6GJQsqaUBKTNV-1" source="9ndEdKU9HdRyCCjR_hsN-154" target="9ndEdKU9HdRyCCjR_hsN-181">
          <mxGeometry relative="1" as="geometry" />
        </mxCell>
        <mxCell id="9ndEdKU9HdRyCCjR_hsN-183" value="current_room=&#39;core&#39;" style="rounded=1;whiteSpace=wrap;html=1;absoluteArcSize=1;arcSize=14;strokeWidth=2;" vertex="1" parent="WIyWlLk6GJQsqaUBKTNV-1">
          <mxGeometry x="3670" y="1966.5" width="150" height="40" as="geometry" />
        </mxCell>
        <mxCell id="9ndEdKU9HdRyCCjR_hsN-184" style="edgeStyle=orthogonalEdgeStyle;rounded=0;orthogonalLoop=1;jettySize=auto;html=1;exitX=0.5;exitY=1;exitDx=0;exitDy=0;entryX=0.204;entryY=-0.016;entryDx=0;entryDy=0;entryPerimeter=0;" edge="1" parent="WIyWlLk6GJQsqaUBKTNV-1" source="9ndEdKU9HdRyCCjR_hsN-183" target="9ndEdKU9HdRyCCjR_hsN-181">
          <mxGeometry relative="1" as="geometry" />
        </mxCell>
        <mxCell id="9ndEdKU9HdRyCCjR_hsN-185" style="edgeStyle=orthogonalEdgeStyle;rounded=0;orthogonalLoop=1;jettySize=auto;html=1;exitX=0.5;exitY=1;exitDx=0;exitDy=0;entryX=0.5;entryY=0;entryDx=0;entryDy=0;entryPerimeter=0;" edge="1" parent="WIyWlLk6GJQsqaUBKTNV-1" source="ONeuCPQr-5bv9tZjdtYM-85" target="T340YZ7VDrdOijKoR2L3-6">
          <mxGeometry relative="1" as="geometry" />
        </mxCell>
        <mxCell id="9ndEdKU9HdRyCCjR_hsN-186" value="IF item_count==6" style="strokeWidth=2;html=1;shape=mxgraph.flowchart.decision;whiteSpace=wrap;fontSize=12;" vertex="1" parent="WIyWlLk6GJQsqaUBKTNV-1">
          <mxGeometry x="1061.86" y="1682.5" width="196.25" height="60" as="geometry" />
        </mxCell>
        <mxCell id="9ndEdKU9HdRyCCjR_hsN-189" value="" style="edgeStyle=orthogonalEdgeStyle;rounded=0;orthogonalLoop=1;jettySize=auto;html=1;exitX=0.5;exitY=1;exitDx=0;exitDy=0;entryX=0.5;entryY=0;entryDx=0;entryDy=0;entryPerimeter=0;" edge="1" parent="WIyWlLk6GJQsqaUBKTNV-1" source="9ndEdKU9HdRyCCjR_hsN-179" target="9ndEdKU9HdRyCCjR_hsN-188">
          <mxGeometry relative="1" as="geometry">
            <mxPoint x="2225" y="1211" as="sourcePoint" />
            <mxPoint x="2225" y="1394" as="targetPoint" />
          </mxGeometry>
        </mxCell>
        <mxCell id="9ndEdKU9HdRyCCjR_hsN-188" value="IF INPUT in map.direction" style="strokeWidth=2;html=1;shape=mxgraph.flowchart.decision;whiteSpace=wrap;fontSize=12;" vertex="1" parent="WIyWlLk6GJQsqaUBKTNV-1">
          <mxGeometry x="2163.76" y="1260" width="122.5" height="80" as="geometry" />
        </mxCell>
        <mxCell id="9ndEdKU9HdRyCCjR_hsN-190" value="&lt;span style=&quot;text-wrap: wrap;&quot;&gt;YES&lt;/span&gt;" style="text;html=1;align=left;verticalAlign=middle;resizable=0;points=[];autosize=1;strokeColor=none;fillColor=none;" vertex="1" parent="WIyWlLk6GJQsqaUBKTNV-1">
          <mxGeometry x="2235" y="1340" width="50" height="30" as="geometry" />
        </mxCell>
        <mxCell id="9ndEdKU9HdRyCCjR_hsN-191" value="NO" style="text;html=1;align=center;verticalAlign=middle;whiteSpace=wrap;rounded=0;" vertex="1" parent="WIyWlLk6GJQsqaUBKTNV-1">
          <mxGeometry x="2270" y="1266" width="37" height="30" as="geometry" />
        </mxCell>
        <mxCell id="9ndEdKU9HdRyCCjR_hsN-192" value="END ROOM MOVE" style="strokeWidth=2;html=1;shape=mxgraph.flowchart.terminator;whiteSpace=wrap;" vertex="1" parent="WIyWlLk6GJQsqaUBKTNV-1">
          <mxGeometry x="2496.87" y="1278" width="100" height="44" as="geometry" />
        </mxCell>
        <mxCell id="9ndEdKU9HdRyCCjR_hsN-193" style="edgeStyle=orthogonalEdgeStyle;rounded=0;orthogonalLoop=1;jettySize=auto;html=1;exitX=1;exitY=0.5;exitDx=0;exitDy=0;exitPerimeter=0;entryX=0;entryY=0.5;entryDx=0;entryDy=0;entryPerimeter=0;" edge="1" parent="WIyWlLk6GJQsqaUBKTNV-1" source="9ndEdKU9HdRyCCjR_hsN-194" target="9ndEdKU9HdRyCCjR_hsN-192">
          <mxGeometry relative="1" as="geometry" />
        </mxCell>
        <mxCell id="9ndEdKU9HdRyCCjR_hsN-195" value="" style="edgeStyle=orthogonalEdgeStyle;rounded=0;orthogonalLoop=1;jettySize=auto;html=1;exitX=1;exitY=0.5;exitDx=0;exitDy=0;exitPerimeter=0;entryX=0;entryY=0.5;entryDx=0;entryDy=0;entryPerimeter=0;" edge="1" parent="WIyWlLk6GJQsqaUBKTNV-1" source="9ndEdKU9HdRyCCjR_hsN-188" target="9ndEdKU9HdRyCCjR_hsN-194">
          <mxGeometry relative="1" as="geometry">
            <mxPoint x="2286" y="1300" as="sourcePoint" />
            <mxPoint x="2497" y="1300" as="targetPoint" />
          </mxGeometry>
        </mxCell>
        <mxCell id="9ndEdKU9HdRyCCjR_hsN-194" value="PRINT: you can&#39;t go that way" style="strokeWidth=2;html=1;shape=mxgraph.flowchart.display;whiteSpace=wrap;fontSize=12;" vertex="1" parent="WIyWlLk6GJQsqaUBKTNV-1">
          <mxGeometry x="2323.12" y="1266" width="130" height="68" as="geometry" />
        </mxCell>
        <mxCell id="9ndEdKU9HdRyCCjR_hsN-196" value="E" style="text;html=1;align=center;verticalAlign=middle;whiteSpace=wrap;rounded=0;" vertex="1" parent="WIyWlLk6GJQsqaUBKTNV-1">
          <mxGeometry x="-1040" y="600" width="20" height="30" as="geometry" />
        </mxCell>
        <mxCell id="9ndEdKU9HdRyCCjR_hsN-197" value="E" style="text;html=1;align=center;verticalAlign=middle;whiteSpace=wrap;rounded=0;" vertex="1" parent="WIyWlLk6GJQsqaUBKTNV-1">
          <mxGeometry x="-890" y="600" width="20" height="30" as="geometry" />
        </mxCell>
        <mxCell id="9ndEdKU9HdRyCCjR_hsN-198" value="E" style="text;html=1;align=center;verticalAlign=middle;whiteSpace=wrap;rounded=0;" vertex="1" parent="WIyWlLk6GJQsqaUBKTNV-1">
          <mxGeometry x="-1040" y="887.75" width="20" height="30" as="geometry" />
        </mxCell>
        <mxCell id="9ndEdKU9HdRyCCjR_hsN-199" value="E" style="text;html=1;align=center;verticalAlign=middle;whiteSpace=wrap;rounded=0;" vertex="1" parent="WIyWlLk6GJQsqaUBKTNV-1">
          <mxGeometry x="-890" y="887.75" width="20" height="30" as="geometry" />
        </mxCell>
        <mxCell id="9ndEdKU9HdRyCCjR_hsN-200" value="S" style="text;html=1;align=center;verticalAlign=middle;whiteSpace=wrap;rounded=0;" vertex="1" parent="WIyWlLk6GJQsqaUBKTNV-1">
          <mxGeometry x="-1060" y="696" width="20" height="30" as="geometry" />
        </mxCell>
        <mxCell id="9ndEdKU9HdRyCCjR_hsN-201" value="S" style="text;html=1;align=center;verticalAlign=middle;whiteSpace=wrap;rounded=0;" vertex="1" parent="WIyWlLk6GJQsqaUBKTNV-1">
          <mxGeometry x="-910" y="696" width="20" height="30" as="geometry" />
        </mxCell>
        <mxCell id="9ndEdKU9HdRyCCjR_hsN-202" value="S" style="text;html=1;align=center;verticalAlign=middle;whiteSpace=wrap;rounded=0;" vertex="1" parent="WIyWlLk6GJQsqaUBKTNV-1">
          <mxGeometry x="-910" y="544" width="20" height="30" as="geometry" />
        </mxCell>
        <mxCell id="9ndEdKU9HdRyCCjR_hsN-203" value="S" style="text;html=1;align=center;verticalAlign=middle;whiteSpace=wrap;rounded=0;" vertex="1" parent="WIyWlLk6GJQsqaUBKTNV-1">
          <mxGeometry x="-760" y="700" width="20" height="30" as="geometry" />
        </mxCell>
        <mxCell id="9ndEdKU9HdRyCCjR_hsN-204" value="N" style="text;html=1;align=center;verticalAlign=middle;whiteSpace=wrap;rounded=0;" vertex="1" parent="WIyWlLk6GJQsqaUBKTNV-1">
          <mxGeometry x="-1140" y="858.5" width="20" height="30" as="geometry" />
        </mxCell>
        <mxCell id="9ndEdKU9HdRyCCjR_hsN-205" value="N" style="text;html=1;align=center;verticalAlign=middle;whiteSpace=wrap;rounded=0;" vertex="1" parent="WIyWlLk6GJQsqaUBKTNV-1">
          <mxGeometry x="-840" y="858.5" width="20" height="30" as="geometry" />
        </mxCell>
        <mxCell id="9ndEdKU9HdRyCCjR_hsN-206" value="N" style="text;html=1;align=center;verticalAlign=middle;whiteSpace=wrap;rounded=0;" vertex="1" parent="WIyWlLk6GJQsqaUBKTNV-1">
          <mxGeometry x="-990" y="574" width="20" height="30" as="geometry" />
        </mxCell>
        <mxCell id="9ndEdKU9HdRyCCjR_hsN-207" value="N" style="text;html=1;align=center;verticalAlign=middle;whiteSpace=wrap;rounded=0;" vertex="1" parent="WIyWlLk6GJQsqaUBKTNV-1">
          <mxGeometry x="-990" y="720" width="20" height="30" as="geometry" />
        </mxCell>
        <mxCell id="9ndEdKU9HdRyCCjR_hsN-208" value="W" style="text;html=1;align=center;verticalAlign=middle;whiteSpace=wrap;rounded=0;" vertex="1" parent="WIyWlLk6GJQsqaUBKTNV-1">
          <mxGeometry x="-1010" y="673.5" width="20" height="30" as="geometry" />
        </mxCell>
        <mxCell id="9ndEdKU9HdRyCCjR_hsN-209" value="W" style="text;html=1;align=center;verticalAlign=middle;whiteSpace=wrap;rounded=0;" vertex="1" parent="WIyWlLk6GJQsqaUBKTNV-1">
          <mxGeometry x="-860" y="673.5" width="20" height="30" as="geometry" />
        </mxCell>
        <mxCell id="9ndEdKU9HdRyCCjR_hsN-210" value="W" style="text;html=1;align=center;verticalAlign=middle;whiteSpace=wrap;rounded=0;" vertex="1" parent="WIyWlLk6GJQsqaUBKTNV-1">
          <mxGeometry x="-1010" y="957.75" width="20" height="30" as="geometry" />
        </mxCell>
        <mxCell id="9ndEdKU9HdRyCCjR_hsN-211" value="W" style="text;html=1;align=center;verticalAlign=middle;whiteSpace=wrap;rounded=0;" vertex="1" parent="WIyWlLk6GJQsqaUBKTNV-1">
          <mxGeometry x="-860" y="957.75" width="20" height="30" as="geometry" />
        </mxCell>
        <mxCell id="9ndEdKU9HdRyCCjR_hsN-232" value="START" style="strokeWidth=2;html=1;shape=mxgraph.flowchart.terminator;whiteSpace=wrap;" vertex="1" parent="WIyWlLk6GJQsqaUBKTNV-1">
          <mxGeometry x="-1547.5" y="2360" width="100" height="40" as="geometry" />
        </mxCell>
        <mxCell id="9ndEdKU9HdRyCCjR_hsN-238" style="edgeStyle=orthogonalEdgeStyle;rounded=0;orthogonalLoop=1;jettySize=auto;html=1;exitX=0.5;exitY=1;exitDx=0;exitDy=0;exitPerimeter=0;entryX=0.5;entryY=0;entryDx=0;entryDy=0;" edge="1" parent="WIyWlLk6GJQsqaUBKTNV-1" source="9ndEdKU9HdRyCCjR_hsN-233" target="9ndEdKU9HdRyCCjR_hsN-237">
          <mxGeometry relative="1" as="geometry" />
        </mxCell>
        <mxCell id="9ndEdKU9HdRyCCjR_hsN-233" value="Initialize variables:&lt;div&gt;&lt;span style=&quot;background-color: initial;&quot;&gt;current_room: string&lt;/span&gt;&lt;br&gt;&lt;/div&gt;&lt;div&gt;global map: Dictionary&lt;/div&gt;&lt;div&gt;of Dictionaries&lt;/div&gt;&lt;div&gt;inventory: array&lt;/div&gt;" style="strokeWidth=2;html=1;shape=mxgraph.flowchart.stored_data;whiteSpace=wrap;" vertex="1" parent="WIyWlLk6GJQsqaUBKTNV-1">
          <mxGeometry x="-1575" y="2450" width="155" height="97" as="geometry" />
        </mxCell>
        <mxCell id="9ndEdKU9HdRyCCjR_hsN-234" style="edgeStyle=orthogonalEdgeStyle;rounded=0;orthogonalLoop=1;jettySize=auto;html=1;exitX=0.5;exitY=1;exitDx=0;exitDy=0;exitPerimeter=0;entryX=0.5;entryY=0;entryDx=0;entryDy=0;entryPerimeter=0;" edge="1" parent="WIyWlLk6GJQsqaUBKTNV-1" source="9ndEdKU9HdRyCCjR_hsN-232" target="9ndEdKU9HdRyCCjR_hsN-233">
          <mxGeometry relative="1" as="geometry" />
        </mxCell>
        <mxCell id="9ndEdKU9HdRyCCjR_hsN-235" value="" style="strokeWidth=2;html=1;shape=mxgraph.flowchart.annotation_2;align=left;labelPosition=right;pointerEvents=1;rotation=-180;" vertex="1" parent="WIyWlLk6GJQsqaUBKTNV-1">
          <mxGeometry x="-1405.5" y="2437.75" width="50" height="121.5" as="geometry" />
        </mxCell>
        <mxCell id="9ndEdKU9HdRyCCjR_hsN-236" value="map =&amp;nbsp;&lt;span style=&quot;background-color: initial;&quot;&gt;[&#39;room_name&#39;, &#39;room_desc&#39;,&amp;nbsp;&lt;/span&gt;&lt;span style=&quot;background-color: initial;&quot;&gt;&#39;north&#39;, &#39;south&#39;, &#39;east&#39;, &#39;west&#39;, &#39;item&#39;, &#39;item_desc&#39;]&lt;/span&gt;" style="text;html=1;align=left;verticalAlign=middle;whiteSpace=wrap;rounded=0;" vertex="1" parent="WIyWlLk6GJQsqaUBKTNV-1">
          <mxGeometry x="-1347" y="2483.5" width="464.5" height="30" as="geometry" />
        </mxCell>
        <mxCell id="9ndEdKU9HdRyCCjR_hsN-240" style="edgeStyle=orthogonalEdgeStyle;rounded=0;orthogonalLoop=1;jettySize=auto;html=1;exitX=1;exitY=0.5;exitDx=0;exitDy=0;entryX=0;entryY=0.5;entryDx=0;entryDy=0;" edge="1" parent="WIyWlLk6GJQsqaUBKTNV-1" source="9ndEdKU9HdRyCCjR_hsN-237" target="9ndEdKU9HdRyCCjR_hsN-239">
          <mxGeometry relative="1" as="geometry" />
        </mxCell>
        <mxCell id="9ndEdKU9HdRyCCjR_hsN-237" value="current_room = &#39;Cryochamber&#39;" style="rounded=1;whiteSpace=wrap;html=1;absoluteArcSize=1;arcSize=14;strokeWidth=2;" vertex="1" parent="WIyWlLk6GJQsqaUBKTNV-1">
          <mxGeometry x="-1602.5" y="2600" width="210" height="50" as="geometry" />
        </mxCell>
        <mxCell id="9ndEdKU9HdRyCCjR_hsN-267" style="edgeStyle=orthogonalEdgeStyle;rounded=0;orthogonalLoop=1;jettySize=auto;html=1;exitX=0.5;exitY=1;exitDx=0;exitDy=0;entryX=0.5;entryY=0;entryDx=0;entryDy=0;" edge="1" parent="WIyWlLk6GJQsqaUBKTNV-1" source="9ndEdKU9HdRyCCjR_hsN-239" target="9ndEdKU9HdRyCCjR_hsN-266">
          <mxGeometry relative="1" as="geometry" />
        </mxCell>
        <mxCell id="9ndEdKU9HdRyCCjR_hsN-239" value="call function: print_options&lt;div&gt;Print the room name, its description, and available options&lt;/div&gt;" style="verticalLabelPosition=middle;verticalAlign=middle;html=1;shape=process;whiteSpace=wrap;rounded=1;size=0.14;arcSize=6;labelPosition=center;align=center;" vertex="1" parent="WIyWlLk6GJQsqaUBKTNV-1">
          <mxGeometry x="-1322.5" y="2580" width="210" height="90" as="geometry" />
        </mxCell>
        <mxCell id="9ndEdKU9HdRyCCjR_hsN-269" style="edgeStyle=orthogonalEdgeStyle;rounded=0;orthogonalLoop=1;jettySize=auto;html=1;exitX=0.5;exitY=1;exitDx=0;exitDy=0;entryX=0.5;entryY=0;entryDx=0;entryDy=0;" edge="1" parent="WIyWlLk6GJQsqaUBKTNV-1" source="9ndEdKU9HdRyCCjR_hsN-266" target="9ndEdKU9HdRyCCjR_hsN-268">
          <mxGeometry relative="1" as="geometry" />
        </mxCell>
        <mxCell id="9ndEdKU9HdRyCCjR_hsN-266" value="INPUT: user_input" style="shape=parallelogram;html=1;strokeWidth=2;perimeter=parallelogramPerimeter;whiteSpace=wrap;rounded=1;arcSize=12;size=0.23;" vertex="1" parent="WIyWlLk6GJQsqaUBKTNV-1">
          <mxGeometry x="-1580" y="2740" width="165" height="50" as="geometry" />
        </mxCell>
        <mxCell id="9ndEdKU9HdRyCCjR_hsN-398" style="edgeStyle=orthogonalEdgeStyle;rounded=0;orthogonalLoop=1;jettySize=auto;html=1;exitX=1;exitY=0.5;exitDx=0;exitDy=0;entryX=0.75;entryY=1;entryDx=0;entryDy=0;" edge="1" parent="WIyWlLk6GJQsqaUBKTNV-1" source="9ndEdKU9HdRyCCjR_hsN-268" target="9ndEdKU9HdRyCCjR_hsN-239">
          <mxGeometry relative="1" as="geometry" />
        </mxCell>
        <mxCell id="9ndEdKU9HdRyCCjR_hsN-268" value="call function: verify_option&lt;div&gt;checks the user input to&lt;/div&gt;&lt;div&gt;see if it&#39;s valid&lt;/div&gt;" style="verticalLabelPosition=middle;verticalAlign=middle;html=1;shape=process;whiteSpace=wrap;rounded=1;size=0.14;arcSize=6;labelPosition=center;align=center;" vertex="1" parent="WIyWlLk6GJQsqaUBKTNV-1">
          <mxGeometry x="-1605" y="2823" width="215" height="90" as="geometry" />
        </mxCell>
        <mxCell id="9ndEdKU9HdRyCCjR_hsN-273" style="edgeStyle=orthogonalEdgeStyle;rounded=0;orthogonalLoop=1;jettySize=auto;html=1;exitX=1;exitY=0.5;exitDx=0;exitDy=0;exitPerimeter=0;entryX=0;entryY=0.5;entryDx=0;entryDy=0;" edge="1" parent="WIyWlLk6GJQsqaUBKTNV-1">
          <mxGeometry relative="1" as="geometry">
            <mxPoint x="218.8700000000008" y="3050.875" as="sourcePoint" />
          </mxGeometry>
        </mxCell>
        <mxCell id="9ndEdKU9HdRyCCjR_hsN-277" style="edgeStyle=orthogonalEdgeStyle;rounded=0;orthogonalLoop=1;jettySize=auto;html=1;exitX=1;exitY=0.5;exitDx=0;exitDy=0;entryX=0;entryY=0.5;entryDx=0;entryDy=0;entryPerimeter=0;" edge="1" parent="WIyWlLk6GJQsqaUBKTNV-1">
          <mxGeometry relative="1" as="geometry">
            <mxPoint x="448.170000000001" y="3050.875" as="sourcePoint" />
          </mxGeometry>
        </mxCell>
        <mxCell id="9ndEdKU9HdRyCCjR_hsN-279" style="edgeStyle=orthogonalEdgeStyle;rounded=0;orthogonalLoop=1;jettySize=auto;html=1;exitX=0.5;exitY=0;exitDx=0;exitDy=0;exitPerimeter=0;entryX=0.498;entryY=1.005;entryDx=0;entryDy=0;entryPerimeter=0;" edge="1" parent="WIyWlLk6GJQsqaUBKTNV-1">
          <mxGeometry relative="1" as="geometry">
            <Array as="points">
              <mxPoint x="587.87" y="2980" />
              <mxPoint x="378.87" y="2980" />
            </Array>
            <mxPoint x="378.5100000000002" y="3012.8737499999997" as="targetPoint" />
          </mxGeometry>
        </mxCell>
        <mxCell id="9ndEdKU9HdRyCCjR_hsN-280" style="edgeStyle=orthogonalEdgeStyle;rounded=0;orthogonalLoop=1;jettySize=auto;html=1;exitX=0.5;exitY=1;exitDx=0;exitDy=0;entryX=0.5;entryY=0;entryDx=0;entryDy=0;entryPerimeter=0;" edge="1" parent="WIyWlLk6GJQsqaUBKTNV-1">
          <mxGeometry relative="1" as="geometry">
            <mxPoint x="378.8700000000008" y="3088.5" as="sourcePoint" />
          </mxGeometry>
        </mxCell>
        <mxCell id="9ndEdKU9HdRyCCjR_hsN-282" style="edgeStyle=orthogonalEdgeStyle;rounded=0;orthogonalLoop=1;jettySize=auto;html=1;exitX=0.5;exitY=1;exitDx=0;exitDy=0;exitPerimeter=0;entryX=0.5;entryY=0;entryDx=0;entryDy=0;entryPerimeter=0;" edge="1" parent="WIyWlLk6GJQsqaUBKTNV-1">
          <mxGeometry relative="1" as="geometry">
            <mxPoint x="378.8700000000008" y="3179.25" as="sourcePoint" />
          </mxGeometry>
        </mxCell>
        <mxCell id="9ndEdKU9HdRyCCjR_hsN-287" style="edgeStyle=orthogonalEdgeStyle;rounded=0;orthogonalLoop=1;jettySize=auto;html=1;exitX=0.5;exitY=1;exitDx=0;exitDy=0;exitPerimeter=0;entryX=0.5;entryY=0;entryDx=0;entryDy=0;entryPerimeter=0;" edge="1" parent="WIyWlLk6GJQsqaUBKTNV-1">
          <mxGeometry relative="1" as="geometry">
            <mxPoint x="378.8700000000008" y="3290" as="sourcePoint" />
          </mxGeometry>
        </mxCell>
        <mxCell id="9ndEdKU9HdRyCCjR_hsN-288" style="edgeStyle=orthogonalEdgeStyle;rounded=0;orthogonalLoop=1;jettySize=auto;html=1;exitX=1;exitY=0.5;exitDx=0;exitDy=0;exitPerimeter=0;entryX=0;entryY=0.5;entryDx=0;entryDy=0;entryPerimeter=0;" edge="1" parent="WIyWlLk6GJQsqaUBKTNV-1">
          <mxGeometry relative="1" as="geometry">
            <mxPoint x="456.3700000000008" y="3250" as="sourcePoint" />
          </mxGeometry>
        </mxCell>
        <mxCell id="9ndEdKU9HdRyCCjR_hsN-289" style="edgeStyle=orthogonalEdgeStyle;rounded=0;orthogonalLoop=1;jettySize=auto;html=1;exitX=1;exitY=0.5;exitDx=0;exitDy=0;exitPerimeter=0;entryX=0.5;entryY=1;entryDx=0;entryDy=0;entryPerimeter=0;" edge="1" parent="WIyWlLk6GJQsqaUBKTNV-1">
          <mxGeometry relative="1" as="geometry">
            <mxPoint x="460.1200000000008" y="3362" as="sourcePoint" />
          </mxGeometry>
        </mxCell>
        <mxCell id="9ndEdKU9HdRyCCjR_hsN-339" style="edgeStyle=orthogonalEdgeStyle;rounded=0;orthogonalLoop=1;jettySize=auto;html=1;exitX=0.5;exitY=1;exitDx=0;exitDy=0;entryX=0.5;entryY=0;entryDx=0;entryDy=0;entryPerimeter=0;" edge="1" parent="WIyWlLk6GJQsqaUBKTNV-1" source="9ndEdKU9HdRyCCjR_hsN-268" target="9ndEdKU9HdRyCCjR_hsN-340">
          <mxGeometry relative="1" as="geometry">
            <mxPoint x="-1496.875" y="2944" as="targetPoint" />
          </mxGeometry>
        </mxCell>
        <mxCell id="9ndEdKU9HdRyCCjR_hsN-343" style="edgeStyle=orthogonalEdgeStyle;rounded=0;orthogonalLoop=1;jettySize=auto;html=1;exitX=1;exitY=0.5;exitDx=0;exitDy=0;exitPerimeter=0;entryX=0;entryY=0.5;entryDx=0;entryDy=0;" edge="1" parent="WIyWlLk6GJQsqaUBKTNV-1" source="9ndEdKU9HdRyCCjR_hsN-340" target="9ndEdKU9HdRyCCjR_hsN-342">
          <mxGeometry relative="1" as="geometry" />
        </mxCell>
        <mxCell id="9ndEdKU9HdRyCCjR_hsN-403" style="edgeStyle=orthogonalEdgeStyle;rounded=0;orthogonalLoop=1;jettySize=auto;html=1;exitX=0.5;exitY=1;exitDx=0;exitDy=0;exitPerimeter=0;entryX=0.5;entryY=0;entryDx=0;entryDy=0;" edge="1" parent="WIyWlLk6GJQsqaUBKTNV-1" source="9ndEdKU9HdRyCCjR_hsN-340" target="9ndEdKU9HdRyCCjR_hsN-402">
          <mxGeometry relative="1" as="geometry">
            <mxPoint x="-1497.5049999999999" y="3041" as="sourcePoint" />
          </mxGeometry>
        </mxCell>
        <mxCell id="9ndEdKU9HdRyCCjR_hsN-340" value="IF user_input == &#39;Pickup&#39;" style="strokeWidth=2;html=1;shape=mxgraph.flowchart.decision;whiteSpace=wrap;" vertex="1" parent="WIyWlLk6GJQsqaUBKTNV-1">
          <mxGeometry x="-1589.06" y="2958" width="183.12" height="60" as="geometry" />
        </mxCell>
        <mxCell id="9ndEdKU9HdRyCCjR_hsN-342" value="call function: pickup_item&lt;div&gt;Verifies the item can be&lt;/div&gt;&lt;div&gt;picked up, and picks it up&lt;/div&gt;" style="verticalLabelPosition=middle;verticalAlign=middle;html=1;shape=process;whiteSpace=wrap;rounded=1;size=0.14;arcSize=6;labelPosition=center;align=center;" vertex="1" parent="WIyWlLk6GJQsqaUBKTNV-1">
          <mxGeometry x="-1355.5" y="2955.5" width="215" height="65" as="geometry" />
        </mxCell>
        <mxCell id="9ndEdKU9HdRyCCjR_hsN-344" value="YES" style="text;html=1;align=center;verticalAlign=middle;whiteSpace=wrap;rounded=0;" vertex="1" parent="WIyWlLk6GJQsqaUBKTNV-1">
          <mxGeometry x="-1429.5" y="2990.5" width="37" height="30" as="geometry" />
        </mxCell>
        <mxCell id="9ndEdKU9HdRyCCjR_hsN-367" value="" style="group" connectable="0" vertex="1" parent="WIyWlLk6GJQsqaUBKTNV-1">
          <mxGeometry x="-782.5" y="2360" width="915" height="553" as="geometry" />
        </mxCell>
        <mxCell id="9ndEdKU9HdRyCCjR_hsN-241" value="def print_options(current_room, inventory)" style="verticalLabelPosition=middle;verticalAlign=top;html=1;shape=process;whiteSpace=wrap;rounded=1;size=0.14;arcSize=6;labelPosition=center;align=center;" vertex="1" parent="9ndEdKU9HdRyCCjR_hsN-367">
          <mxGeometry width="915" height="553" as="geometry" />
        </mxCell>
        <mxCell id="9ndEdKU9HdRyCCjR_hsN-252" style="edgeStyle=orthogonalEdgeStyle;rounded=0;orthogonalLoop=1;jettySize=auto;html=1;exitX=1;exitY=0.5;exitDx=0;exitDy=0;exitPerimeter=0;entryX=0;entryY=0.5;entryDx=0;entryDy=0;" edge="1" parent="9ndEdKU9HdRyCCjR_hsN-367" source="9ndEdKU9HdRyCCjR_hsN-242" target="9ndEdKU9HdRyCCjR_hsN-243">
          <mxGeometry relative="1" as="geometry" />
        </mxCell>
        <mxCell id="9ndEdKU9HdRyCCjR_hsN-242" value="PRINT: You are in the {current_room}. {map.room_desc}. Your current options are:" style="strokeWidth=2;html=1;shape=mxgraph.flowchart.display;whiteSpace=wrap;" vertex="1" parent="9ndEdKU9HdRyCCjR_hsN-367">
          <mxGeometry x="156.87" y="121.02938596491231" width="150" height="108.90219298245614" as="geometry" />
        </mxCell>
        <mxCell id="9ndEdKU9HdRyCCjR_hsN-243" value="FOR LOOP:&lt;div&gt;check {current_room}&#39;s&lt;/div&gt;&lt;div&gt;different directions&lt;/div&gt;" style="verticalLabelPosition=middle;verticalAlign=middle;html=1;shape=trapezoid;perimeter=trapezoidPerimeter;whiteSpace=wrap;size=0.23;arcSize=10;flipV=1;labelPosition=center;align=center;" vertex="1" parent="9ndEdKU9HdRyCCjR_hsN-367">
          <mxGeometry x="376.87" y="138.97763157894724" width="180" height="73.00570175438597" as="geometry" />
        </mxCell>
        <mxCell id="9ndEdKU9HdRyCCjR_hsN-244" value="PRINT: In the {direction},&lt;div&gt;you see {room}&lt;/div&gt;" style="strokeWidth=2;html=1;shape=mxgraph.flowchart.display;whiteSpace=wrap;" vertex="1" parent="9ndEdKU9HdRyCCjR_hsN-367">
          <mxGeometry x="594.37" y="136.66861403508756" width="162.5" height="77.6140350877193" as="geometry" />
        </mxCell>
        <mxCell id="9ndEdKU9HdRyCCjR_hsN-246" style="edgeStyle=orthogonalEdgeStyle;rounded=0;orthogonalLoop=1;jettySize=auto;html=1;exitX=1;exitY=0.5;exitDx=0;exitDy=0;entryX=0;entryY=0.5;entryDx=0;entryDy=0;entryPerimeter=0;" edge="1" parent="9ndEdKU9HdRyCCjR_hsN-367" source="9ndEdKU9HdRyCCjR_hsN-243" target="9ndEdKU9HdRyCCjR_hsN-244">
          <mxGeometry relative="1" as="geometry" />
        </mxCell>
        <mxCell id="9ndEdKU9HdRyCCjR_hsN-248" value="LOOP END" style="strokeWidth=2;html=1;shape=mxgraph.flowchart.loop_limit;whiteSpace=wrap;" vertex="1" parent="9ndEdKU9HdRyCCjR_hsN-367">
          <mxGeometry x="416.87" y="241.81622807017538" width="100" height="58.21052631578947" as="geometry" />
        </mxCell>
        <mxCell id="9ndEdKU9HdRyCCjR_hsN-250" style="edgeStyle=orthogonalEdgeStyle;rounded=0;orthogonalLoop=1;jettySize=auto;html=1;exitX=0.5;exitY=0;exitDx=0;exitDy=0;exitPerimeter=0;entryX=0.498;entryY=1.005;entryDx=0;entryDy=0;entryPerimeter=0;" edge="1" parent="9ndEdKU9HdRyCCjR_hsN-367" source="9ndEdKU9HdRyCCjR_hsN-244" target="9ndEdKU9HdRyCCjR_hsN-243">
          <mxGeometry relative="1" as="geometry">
            <Array as="points">
              <mxPoint x="675.87" y="106.71929824561403" />
              <mxPoint x="466.87" y="106.71929824561403" />
            </Array>
          </mxGeometry>
        </mxCell>
        <mxCell id="9ndEdKU9HdRyCCjR_hsN-253" style="edgeStyle=orthogonalEdgeStyle;rounded=0;orthogonalLoop=1;jettySize=auto;html=1;exitX=0.5;exitY=1;exitDx=0;exitDy=0;entryX=0.5;entryY=0;entryDx=0;entryDy=0;entryPerimeter=0;" edge="1" parent="9ndEdKU9HdRyCCjR_hsN-367" source="9ndEdKU9HdRyCCjR_hsN-243" target="9ndEdKU9HdRyCCjR_hsN-248">
          <mxGeometry relative="1" as="geometry" />
        </mxCell>
        <mxCell id="9ndEdKU9HdRyCCjR_hsN-254" value="IF current_room&#39;s&lt;div&gt;item in inventory&lt;/div&gt;" style="strokeWidth=2;html=1;shape=mxgraph.flowchart.decision;whiteSpace=wrap;" vertex="1" parent="9ndEdKU9HdRyCCjR_hsN-367">
          <mxGeometry x="389.37" y="329.85964912280724" width="155" height="77.6140350877193" as="geometry" />
        </mxCell>
        <mxCell id="9ndEdKU9HdRyCCjR_hsN-255" style="edgeStyle=orthogonalEdgeStyle;rounded=0;orthogonalLoop=1;jettySize=auto;html=1;exitX=0.5;exitY=1;exitDx=0;exitDy=0;exitPerimeter=0;entryX=0.5;entryY=0;entryDx=0;entryDy=0;entryPerimeter=0;" edge="1" parent="9ndEdKU9HdRyCCjR_hsN-367" source="9ndEdKU9HdRyCCjR_hsN-248" target="9ndEdKU9HdRyCCjR_hsN-254">
          <mxGeometry relative="1" as="geometry" />
        </mxCell>
        <mxCell id="9ndEdKU9HdRyCCjR_hsN-256" value="EXIT" style="strokeWidth=2;html=1;shape=mxgraph.flowchart.terminator;whiteSpace=wrap;" vertex="1" parent="9ndEdKU9HdRyCCjR_hsN-367">
          <mxGeometry x="625.62" y="349.26315789473665" width="100" height="38.80701754385965" as="geometry" />
        </mxCell>
        <mxCell id="9ndEdKU9HdRyCCjR_hsN-257" value="START" style="strokeWidth=2;html=1;shape=mxgraph.flowchart.terminator;whiteSpace=wrap;" vertex="1" parent="9ndEdKU9HdRyCCjR_hsN-367">
          <mxGeometry x="181.87" y="48.508771929824434" width="100" height="38.80701754385965" as="geometry" />
        </mxCell>
        <mxCell id="9ndEdKU9HdRyCCjR_hsN-258" style="edgeStyle=orthogonalEdgeStyle;rounded=0;orthogonalLoop=1;jettySize=auto;html=1;exitX=0.5;exitY=1;exitDx=0;exitDy=0;exitPerimeter=0;entryX=0.5;entryY=0;entryDx=0;entryDy=0;entryPerimeter=0;" edge="1" parent="9ndEdKU9HdRyCCjR_hsN-367" source="9ndEdKU9HdRyCCjR_hsN-257" target="9ndEdKU9HdRyCCjR_hsN-242">
          <mxGeometry relative="1" as="geometry" />
        </mxCell>
        <mxCell id="9ndEdKU9HdRyCCjR_hsN-259" value="PRINT: You see {item}" style="strokeWidth=2;html=1;shape=mxgraph.flowchart.display;whiteSpace=wrap;" vertex="1" parent="9ndEdKU9HdRyCCjR_hsN-367">
          <mxGeometry x="385.62" y="438.5192982456142" width="162.5" height="77.6140350877193" as="geometry" />
        </mxCell>
        <mxCell id="9ndEdKU9HdRyCCjR_hsN-260" style="edgeStyle=orthogonalEdgeStyle;rounded=0;orthogonalLoop=1;jettySize=auto;html=1;exitX=0.5;exitY=1;exitDx=0;exitDy=0;exitPerimeter=0;entryX=0.5;entryY=0;entryDx=0;entryDy=0;entryPerimeter=0;" edge="1" parent="9ndEdKU9HdRyCCjR_hsN-367" source="9ndEdKU9HdRyCCjR_hsN-254" target="9ndEdKU9HdRyCCjR_hsN-259">
          <mxGeometry relative="1" as="geometry" />
        </mxCell>
        <mxCell id="9ndEdKU9HdRyCCjR_hsN-261" style="edgeStyle=orthogonalEdgeStyle;rounded=0;orthogonalLoop=1;jettySize=auto;html=1;exitX=1;exitY=0.5;exitDx=0;exitDy=0;exitPerimeter=0;entryX=0;entryY=0.5;entryDx=0;entryDy=0;entryPerimeter=0;" edge="1" parent="9ndEdKU9HdRyCCjR_hsN-367" source="9ndEdKU9HdRyCCjR_hsN-254" target="9ndEdKU9HdRyCCjR_hsN-256">
          <mxGeometry relative="1" as="geometry" />
        </mxCell>
        <mxCell id="9ndEdKU9HdRyCCjR_hsN-262" style="edgeStyle=orthogonalEdgeStyle;rounded=0;orthogonalLoop=1;jettySize=auto;html=1;exitX=1;exitY=0.5;exitDx=0;exitDy=0;exitPerimeter=0;entryX=0.5;entryY=1;entryDx=0;entryDy=0;entryPerimeter=0;" edge="1" parent="9ndEdKU9HdRyCCjR_hsN-367" source="9ndEdKU9HdRyCCjR_hsN-259" target="9ndEdKU9HdRyCCjR_hsN-256">
          <mxGeometry relative="1" as="geometry" />
        </mxCell>
        <mxCell id="9ndEdKU9HdRyCCjR_hsN-263" value="NO" style="text;html=1;align=center;verticalAlign=middle;whiteSpace=wrap;rounded=0;" vertex="1" parent="9ndEdKU9HdRyCCjR_hsN-367">
          <mxGeometry x="431.87" y="397.77192982456154" width="37" height="29.105263157894736" as="geometry" />
        </mxCell>
        <mxCell id="9ndEdKU9HdRyCCjR_hsN-264" value="&lt;span style=&quot;text-wrap: wrap;&quot;&gt;YES&lt;/span&gt;" style="text;html=1;align=left;verticalAlign=middle;resizable=0;points=[];autosize=1;strokeColor=none;fillColor=none;" vertex="1" parent="9ndEdKU9HdRyCCjR_hsN-367">
          <mxGeometry x="532.37" y="368.6666666666665" width="50" height="30" as="geometry" />
        </mxCell>
        <mxCell id="9ndEdKU9HdRyCCjR_hsN-370" style="edgeStyle=orthogonalEdgeStyle;rounded=0;orthogonalLoop=1;jettySize=auto;html=1;exitX=0.5;exitY=0;exitDx=0;exitDy=0;exitPerimeter=0;entryX=1;entryY=0.5;entryDx=0;entryDy=0;" edge="1" parent="WIyWlLk6GJQsqaUBKTNV-1" source="9ndEdKU9HdRyCCjR_hsN-369" target="9ndEdKU9HdRyCCjR_hsN-239">
          <mxGeometry relative="1" as="geometry" />
        </mxCell>
        <mxCell id="9ndEdKU9HdRyCCjR_hsN-369" value="IF current_room == &#39;Core&#39;" style="strokeWidth=2;html=1;shape=mxgraph.flowchart.decision;whiteSpace=wrap;" vertex="1" parent="WIyWlLk6GJQsqaUBKTNV-1">
          <mxGeometry x="-1062.5" y="2948" width="180" height="80" as="geometry" />
        </mxCell>
        <mxCell id="9ndEdKU9HdRyCCjR_hsN-371" value="NO" style="text;html=1;align=center;verticalAlign=middle;whiteSpace=wrap;rounded=0;" vertex="1" parent="WIyWlLk6GJQsqaUBKTNV-1">
          <mxGeometry x="-971.39" y="2923" width="37" height="30" as="geometry" />
        </mxCell>
        <mxCell id="9ndEdKU9HdRyCCjR_hsN-376" style="edgeStyle=orthogonalEdgeStyle;rounded=0;orthogonalLoop=1;jettySize=auto;html=1;exitX=1;exitY=0.5;exitDx=0;exitDy=0;entryX=1;entryY=0.75;entryDx=0;entryDy=0;" edge="1" parent="WIyWlLk6GJQsqaUBKTNV-1" source="9ndEdKU9HdRyCCjR_hsN-342" target="9ndEdKU9HdRyCCjR_hsN-239">
          <mxGeometry relative="1" as="geometry" />
        </mxCell>
        <mxCell id="9ndEdKU9HdRyCCjR_hsN-378" value="IF len(inventory) == 6" style="strokeWidth=2;html=1;shape=mxgraph.flowchart.decision;whiteSpace=wrap;" vertex="1" parent="WIyWlLk6GJQsqaUBKTNV-1">
          <mxGeometry x="-1580" y="3240" width="165" height="100" as="geometry" />
        </mxCell>
        <mxCell id="9ndEdKU9HdRyCCjR_hsN-380" value="PRINT: You kill the&lt;div&gt;alien! You win!&lt;/div&gt;" style="strokeWidth=2;html=1;shape=mxgraph.flowchart.display;whiteSpace=wrap;" vertex="1" parent="WIyWlLk6GJQsqaUBKTNV-1">
          <mxGeometry x="-1362.25" y="3248.5" width="154.5" height="83" as="geometry" />
        </mxCell>
        <mxCell id="9ndEdKU9HdRyCCjR_hsN-381" value="PRINT: You didn&#39;t make&lt;div&gt;the weapon and the&lt;/div&gt;&lt;div&gt;alien attacks you!&lt;/div&gt;&lt;div&gt;Game over.&lt;/div&gt;" style="strokeWidth=2;html=1;shape=mxgraph.flowchart.display;whiteSpace=wrap;" vertex="1" parent="WIyWlLk6GJQsqaUBKTNV-1">
          <mxGeometry x="-1390" y="3360" width="210" height="83" as="geometry" />
        </mxCell>
        <mxCell id="9ndEdKU9HdRyCCjR_hsN-382" style="edgeStyle=orthogonalEdgeStyle;rounded=0;orthogonalLoop=1;jettySize=auto;html=1;exitX=0.5;exitY=1;exitDx=0;exitDy=0;exitPerimeter=0;entryX=0;entryY=0.5;entryDx=0;entryDy=0;entryPerimeter=0;" edge="1" parent="WIyWlLk6GJQsqaUBKTNV-1" source="9ndEdKU9HdRyCCjR_hsN-378" target="9ndEdKU9HdRyCCjR_hsN-381">
          <mxGeometry relative="1" as="geometry" />
        </mxCell>
        <mxCell id="9ndEdKU9HdRyCCjR_hsN-383" style="edgeStyle=orthogonalEdgeStyle;rounded=0;orthogonalLoop=1;jettySize=auto;html=1;exitX=1;exitY=0.5;exitDx=0;exitDy=0;exitPerimeter=0;entryX=0;entryY=0.5;entryDx=0;entryDy=0;entryPerimeter=0;" edge="1" parent="WIyWlLk6GJQsqaUBKTNV-1" source="9ndEdKU9HdRyCCjR_hsN-378" target="9ndEdKU9HdRyCCjR_hsN-380">
          <mxGeometry relative="1" as="geometry" />
        </mxCell>
        <mxCell id="9ndEdKU9HdRyCCjR_hsN-384" value="END" style="strokeWidth=2;html=1;shape=mxgraph.flowchart.terminator;whiteSpace=wrap;" vertex="1" parent="WIyWlLk6GJQsqaUBKTNV-1">
          <mxGeometry x="-1160.36" y="3320" width="100" height="40" as="geometry" />
        </mxCell>
        <mxCell id="9ndEdKU9HdRyCCjR_hsN-385" style="edgeStyle=orthogonalEdgeStyle;rounded=0;orthogonalLoop=1;jettySize=auto;html=1;exitX=1;exitY=0.5;exitDx=0;exitDy=0;exitPerimeter=0;entryX=0.5;entryY=0;entryDx=0;entryDy=0;entryPerimeter=0;" edge="1" parent="WIyWlLk6GJQsqaUBKTNV-1" source="9ndEdKU9HdRyCCjR_hsN-380" target="9ndEdKU9HdRyCCjR_hsN-384">
          <mxGeometry relative="1" as="geometry" />
        </mxCell>
        <mxCell id="9ndEdKU9HdRyCCjR_hsN-386" style="edgeStyle=orthogonalEdgeStyle;rounded=0;orthogonalLoop=1;jettySize=auto;html=1;exitX=1;exitY=0.5;exitDx=0;exitDy=0;exitPerimeter=0;entryX=0.5;entryY=1;entryDx=0;entryDy=0;entryPerimeter=0;" edge="1" parent="WIyWlLk6GJQsqaUBKTNV-1" source="9ndEdKU9HdRyCCjR_hsN-381" target="9ndEdKU9HdRyCCjR_hsN-384">
          <mxGeometry relative="1" as="geometry" />
        </mxCell>
        <mxCell id="9ndEdKU9HdRyCCjR_hsN-395" value="" style="group" connectable="0" vertex="1" parent="WIyWlLk6GJQsqaUBKTNV-1">
          <mxGeometry x="-786.25" y="2932.25" width="910" height="532.5" as="geometry" />
        </mxCell>
        <mxCell id="9ndEdKU9HdRyCCjR_hsN-338" value="def pickup_item(current_room, inventory)" style="verticalLabelPosition=middle;verticalAlign=top;html=1;shape=process;whiteSpace=wrap;rounded=1;size=0.14;arcSize=6;labelPosition=center;align=center;container=0;" vertex="1" parent="9ndEdKU9HdRyCCjR_hsN-395">
          <mxGeometry width="910" height="532.5" as="geometry" />
        </mxCell>
        <mxCell id="9ndEdKU9HdRyCCjR_hsN-345" value="START" style="strokeWidth=2;html=1;shape=mxgraph.flowchart.terminator;whiteSpace=wrap;container=0;" vertex="1" parent="9ndEdKU9HdRyCCjR_hsN-395">
          <mxGeometry x="186.87" y="46.498771929824215" width="100" height="38.80701754385965" as="geometry" />
        </mxCell>
        <mxCell id="9ndEdKU9HdRyCCjR_hsN-352" value="IF current_room&#39;s&lt;div&gt;item in inventory&lt;/div&gt;" style="strokeWidth=2;html=1;shape=mxgraph.flowchart.decision;whiteSpace=wrap;container=0;" vertex="1" parent="9ndEdKU9HdRyCCjR_hsN-395">
          <mxGeometry x="160.62" y="116.30964912280706" width="155" height="77.6140350877193" as="geometry" />
        </mxCell>
        <mxCell id="9ndEdKU9HdRyCCjR_hsN-363" style="edgeStyle=orthogonalEdgeStyle;rounded=0;orthogonalLoop=1;jettySize=auto;html=1;exitX=0.5;exitY=1;exitDx=0;exitDy=0;exitPerimeter=0;" edge="1" parent="9ndEdKU9HdRyCCjR_hsN-395" source="9ndEdKU9HdRyCCjR_hsN-354" target="9ndEdKU9HdRyCCjR_hsN-362">
          <mxGeometry relative="1" as="geometry" />
        </mxCell>
        <mxCell id="9ndEdKU9HdRyCCjR_hsN-354" value="PRINT: You pick up {item}" style="strokeWidth=2;html=1;shape=mxgraph.flowchart.display;whiteSpace=wrap;container=0;" vertex="1" parent="9ndEdKU9HdRyCCjR_hsN-395">
          <mxGeometry x="156.87" y="224.96929824561403" width="162.5" height="77.6140350877193" as="geometry" />
        </mxCell>
        <mxCell id="9ndEdKU9HdRyCCjR_hsN-355" style="edgeStyle=orthogonalEdgeStyle;rounded=0;orthogonalLoop=1;jettySize=auto;html=1;exitX=0.5;exitY=1;exitDx=0;exitDy=0;exitPerimeter=0;entryX=0.5;entryY=0;entryDx=0;entryDy=0;entryPerimeter=0;" edge="1" parent="9ndEdKU9HdRyCCjR_hsN-395" source="9ndEdKU9HdRyCCjR_hsN-352" target="9ndEdKU9HdRyCCjR_hsN-354">
          <mxGeometry relative="1" as="geometry" />
        </mxCell>
        <mxCell id="9ndEdKU9HdRyCCjR_hsN-356" style="edgeStyle=orthogonalEdgeStyle;rounded=0;orthogonalLoop=1;jettySize=auto;html=1;exitX=1;exitY=0.5;exitDx=0;exitDy=0;exitPerimeter=0;entryX=0;entryY=0.5;entryDx=0;entryDy=0;entryPerimeter=0;" edge="1" parent="9ndEdKU9HdRyCCjR_hsN-395" source="9ndEdKU9HdRyCCjR_hsN-352">
          <mxGeometry relative="1" as="geometry">
            <mxPoint x="396.8699999999999" y="155.11666666666588" as="targetPoint" />
          </mxGeometry>
        </mxCell>
        <mxCell id="9ndEdKU9HdRyCCjR_hsN-358" value="NO" style="text;html=1;align=center;verticalAlign=middle;whiteSpace=wrap;rounded=0;container=0;" vertex="1" parent="9ndEdKU9HdRyCCjR_hsN-395">
          <mxGeometry x="203.12" y="184.22192982456136" width="37" height="29.105263157894736" as="geometry" />
        </mxCell>
        <mxCell id="9ndEdKU9HdRyCCjR_hsN-359" value="&lt;span style=&quot;text-wrap: wrap;&quot;&gt;YES&lt;/span&gt;" style="text;html=1;align=left;verticalAlign=middle;resizable=0;points=[];autosize=1;strokeColor=none;fillColor=none;container=0;" vertex="1" parent="9ndEdKU9HdRyCCjR_hsN-395">
          <mxGeometry x="303.62" y="155.11666666666633" width="50" height="30" as="geometry" />
        </mxCell>
        <mxCell id="9ndEdKU9HdRyCCjR_hsN-360" style="edgeStyle=orthogonalEdgeStyle;rounded=0;orthogonalLoop=1;jettySize=auto;html=1;exitX=0.5;exitY=1;exitDx=0;exitDy=0;exitPerimeter=0;entryX=0.5;entryY=0;entryDx=0;entryDy=0;entryPerimeter=0;" edge="1" parent="9ndEdKU9HdRyCCjR_hsN-395" source="9ndEdKU9HdRyCCjR_hsN-345" target="9ndEdKU9HdRyCCjR_hsN-352">
          <mxGeometry relative="1" as="geometry" />
        </mxCell>
        <mxCell id="9ndEdKU9HdRyCCjR_hsN-361" value="PRINT: You already&lt;div&gt;have {item}&lt;/div&gt;" style="strokeWidth=2;html=1;shape=mxgraph.flowchart.display;whiteSpace=wrap;container=0;" vertex="1" parent="9ndEdKU9HdRyCCjR_hsN-395">
          <mxGeometry x="397.5" y="116.30929824561417" width="162.5" height="77.6140350877193" as="geometry" />
        </mxCell>
        <mxCell id="9ndEdKU9HdRyCCjR_hsN-362" value="append item to inventory" style="rounded=1;whiteSpace=wrap;html=1;absoluteArcSize=1;arcSize=14;strokeWidth=2;container=0;" vertex="1" parent="9ndEdKU9HdRyCCjR_hsN-395">
          <mxGeometry x="156.39999999999998" y="332.5" width="163.44" height="45" as="geometry" />
        </mxCell>
        <mxCell id="9ndEdKU9HdRyCCjR_hsN-364" value="EXIT" style="strokeWidth=2;html=1;shape=mxgraph.flowchart.terminator;whiteSpace=wrap;container=0;" vertex="1" parent="9ndEdKU9HdRyCCjR_hsN-395">
          <mxGeometry x="620" y="335.5931578947366" width="100" height="38.80701754385965" as="geometry" />
        </mxCell>
        <mxCell id="9ndEdKU9HdRyCCjR_hsN-365" style="edgeStyle=orthogonalEdgeStyle;rounded=0;orthogonalLoop=1;jettySize=auto;html=1;exitX=1;exitY=0.5;exitDx=0;exitDy=0;exitPerimeter=0;entryX=0.5;entryY=0;entryDx=0;entryDy=0;entryPerimeter=0;" edge="1" parent="9ndEdKU9HdRyCCjR_hsN-395" source="9ndEdKU9HdRyCCjR_hsN-361" target="9ndEdKU9HdRyCCjR_hsN-364">
          <mxGeometry relative="1" as="geometry" />
        </mxCell>
        <mxCell id="9ndEdKU9HdRyCCjR_hsN-387" value="IF len(inventory) == 6" style="strokeWidth=2;html=1;shape=mxgraph.flowchart.decision;whiteSpace=wrap;" vertex="1" parent="9ndEdKU9HdRyCCjR_hsN-395">
          <mxGeometry x="396.25" y="305" width="165" height="100" as="geometry" />
        </mxCell>
        <mxCell id="9ndEdKU9HdRyCCjR_hsN-388" style="edgeStyle=orthogonalEdgeStyle;rounded=0;orthogonalLoop=1;jettySize=auto;html=1;exitX=1;exitY=0.5;exitDx=0;exitDy=0;entryX=0;entryY=0.5;entryDx=0;entryDy=0;entryPerimeter=0;" edge="1" parent="9ndEdKU9HdRyCCjR_hsN-395" source="9ndEdKU9HdRyCCjR_hsN-362" target="9ndEdKU9HdRyCCjR_hsN-387">
          <mxGeometry relative="1" as="geometry" />
        </mxCell>
        <mxCell id="9ndEdKU9HdRyCCjR_hsN-389" value="NO" style="text;html=1;align=center;verticalAlign=middle;whiteSpace=wrap;rounded=0;container=0;" vertex="1" parent="9ndEdKU9HdRyCCjR_hsN-395">
          <mxGeometry x="550" y="348.39192982456143" width="37" height="29.105263157894736" as="geometry" />
        </mxCell>
        <mxCell id="9ndEdKU9HdRyCCjR_hsN-390" value="&lt;span style=&quot;text-wrap: wrap;&quot;&gt;YES&lt;/span&gt;" style="text;html=1;align=left;verticalAlign=middle;resizable=0;points=[];autosize=1;strokeColor=none;fillColor=none;container=0;" vertex="1" parent="9ndEdKU9HdRyCCjR_hsN-395">
          <mxGeometry x="440" y="392.49666666666644" width="50" height="30" as="geometry" />
        </mxCell>
        <mxCell id="9ndEdKU9HdRyCCjR_hsN-391" style="edgeStyle=orthogonalEdgeStyle;rounded=0;orthogonalLoop=1;jettySize=auto;html=1;exitX=1;exitY=0.5;exitDx=0;exitDy=0;entryX=0;entryY=0.5;entryDx=0;entryDy=0;entryPerimeter=0;exitPerimeter=0;" edge="1" parent="9ndEdKU9HdRyCCjR_hsN-395" source="9ndEdKU9HdRyCCjR_hsN-387" target="9ndEdKU9HdRyCCjR_hsN-364">
          <mxGeometry relative="1" as="geometry" />
        </mxCell>
        <mxCell id="9ndEdKU9HdRyCCjR_hsN-392" value="PRINT: You assemble&lt;div&gt;the weapon and you&#39;re&lt;/div&gt;&lt;div&gt;ready to face the alien!&lt;/div&gt;" style="strokeWidth=2;html=1;shape=mxgraph.flowchart.display;whiteSpace=wrap;container=0;" vertex="1" parent="9ndEdKU9HdRyCCjR_hsN-395">
          <mxGeometry x="588.75" y="422.4992982456142" width="162.5" height="77.6140350877193" as="geometry" />
        </mxCell>
        <mxCell id="9ndEdKU9HdRyCCjR_hsN-393" style="edgeStyle=orthogonalEdgeStyle;rounded=0;orthogonalLoop=1;jettySize=auto;html=1;exitX=0.5;exitY=0;exitDx=0;exitDy=0;exitPerimeter=0;entryX=0.5;entryY=1;entryDx=0;entryDy=0;entryPerimeter=0;" edge="1" parent="9ndEdKU9HdRyCCjR_hsN-395" source="9ndEdKU9HdRyCCjR_hsN-392" target="9ndEdKU9HdRyCCjR_hsN-364">
          <mxGeometry relative="1" as="geometry" />
        </mxCell>
        <mxCell id="9ndEdKU9HdRyCCjR_hsN-394" style="edgeStyle=orthogonalEdgeStyle;rounded=0;orthogonalLoop=1;jettySize=auto;html=1;exitX=0.5;exitY=1;exitDx=0;exitDy=0;exitPerimeter=0;entryX=0;entryY=0.5;entryDx=0;entryDy=0;entryPerimeter=0;" edge="1" parent="9ndEdKU9HdRyCCjR_hsN-395" source="9ndEdKU9HdRyCCjR_hsN-387" target="9ndEdKU9HdRyCCjR_hsN-392">
          <mxGeometry relative="1" as="geometry" />
        </mxCell>
        <mxCell id="9ndEdKU9HdRyCCjR_hsN-396" value="TRUE" style="text;html=1;align=center;verticalAlign=middle;whiteSpace=wrap;rounded=0;" vertex="1" parent="WIyWlLk6GJQsqaUBKTNV-1">
          <mxGeometry x="-1542.5" y="2913" width="37" height="30" as="geometry" />
        </mxCell>
        <mxCell id="9ndEdKU9HdRyCCjR_hsN-397" value="FALSE" style="text;html=1;align=center;verticalAlign=middle;whiteSpace=wrap;rounded=0;" vertex="1" parent="WIyWlLk6GJQsqaUBKTNV-1">
          <mxGeometry x="-1384" y="2870" width="37" height="30" as="geometry" />
        </mxCell>
        <mxCell id="9ndEdKU9HdRyCCjR_hsN-401" style="edgeStyle=orthogonalEdgeStyle;rounded=0;orthogonalLoop=1;jettySize=auto;html=1;exitX=0.757;exitY=0.753;exitDx=0;exitDy=0;exitPerimeter=0;" edge="1" parent="WIyWlLk6GJQsqaUBKTNV-1" source="9ndEdKU9HdRyCCjR_hsN-369">
          <mxGeometry relative="1" as="geometry">
            <mxPoint x="-1497.5" y="3240" as="targetPoint" />
            <Array as="points">
              <mxPoint x="-926.5" y="3200" />
              <mxPoint x="-1497.5" y="3200" />
            </Array>
          </mxGeometry>
        </mxCell>
        <mxCell id="9ndEdKU9HdRyCCjR_hsN-408" style="edgeStyle=orthogonalEdgeStyle;rounded=0;orthogonalLoop=1;jettySize=auto;html=1;exitX=1;exitY=0.5;exitDx=0;exitDy=0;entryX=0;entryY=0.5;entryDx=0;entryDy=0;" edge="1" parent="WIyWlLk6GJQsqaUBKTNV-1" source="9ndEdKU9HdRyCCjR_hsN-402" target="9ndEdKU9HdRyCCjR_hsN-406">
          <mxGeometry relative="1" as="geometry" />
        </mxCell>
        <mxCell id="9ndEdKU9HdRyCCjR_hsN-402" value="call function: move_rooms&lt;div&gt;returns the next room&lt;/div&gt;" style="verticalLabelPosition=middle;verticalAlign=middle;html=1;shape=process;whiteSpace=wrap;rounded=1;size=0.14;arcSize=6;labelPosition=center;align=center;" vertex="1" parent="WIyWlLk6GJQsqaUBKTNV-1">
          <mxGeometry x="-1605" y="3061" width="215" height="90" as="geometry" />
        </mxCell>
        <mxCell id="9ndEdKU9HdRyCCjR_hsN-404" value="NO" style="text;html=1;align=center;verticalAlign=middle;whiteSpace=wrap;rounded=0;" vertex="1" parent="WIyWlLk6GJQsqaUBKTNV-1">
          <mxGeometry x="-1532.5" y="3011" width="37" height="30" as="geometry" />
        </mxCell>
        <mxCell id="9ndEdKU9HdRyCCjR_hsN-405" value="YES" style="text;html=1;align=center;verticalAlign=middle;whiteSpace=wrap;rounded=0;" vertex="1" parent="WIyWlLk6GJQsqaUBKTNV-1">
          <mxGeometry x="-962.5" y="3020.5" width="37" height="30" as="geometry" />
        </mxCell>
        <mxCell id="9ndEdKU9HdRyCCjR_hsN-406" value="current_room = move_rooms()" style="rounded=1;whiteSpace=wrap;html=1;absoluteArcSize=1;arcSize=14;strokeWidth=2;" vertex="1" parent="WIyWlLk6GJQsqaUBKTNV-1">
          <mxGeometry x="-1345.75" y="3079" width="195.5" height="54" as="geometry" />
        </mxCell>
        <mxCell id="9ndEdKU9HdRyCCjR_hsN-407" style="edgeStyle=orthogonalEdgeStyle;rounded=0;orthogonalLoop=1;jettySize=auto;html=1;exitX=1;exitY=0.5;exitDx=0;exitDy=0;entryX=0.259;entryY=0.747;entryDx=0;entryDy=0;entryPerimeter=0;" edge="1" parent="WIyWlLk6GJQsqaUBKTNV-1" source="9ndEdKU9HdRyCCjR_hsN-406" target="9ndEdKU9HdRyCCjR_hsN-369">
          <mxGeometry relative="1" as="geometry" />
        </mxCell>
        <mxCell id="9ndEdKU9HdRyCCjR_hsN-409" value="" style="group" connectable="0" vertex="1" parent="WIyWlLk6GJQsqaUBKTNV-1">
          <mxGeometry x="186" y="3030" width="910" height="337" as="geometry" />
        </mxCell>
        <mxCell id="9ndEdKU9HdRyCCjR_hsN-272" value="def verify_options(current_room, user_input)" style="verticalLabelPosition=middle;verticalAlign=top;html=1;shape=process;whiteSpace=wrap;rounded=1;size=0.14;arcSize=6;labelPosition=center;align=center;" vertex="1" parent="9ndEdKU9HdRyCCjR_hsN-409">
          <mxGeometry width="910" height="337" as="geometry" />
        </mxCell>
        <mxCell id="9ndEdKU9HdRyCCjR_hsN-284" value="START" style="strokeWidth=2;html=1;shape=mxgraph.flowchart.terminator;whiteSpace=wrap;" vertex="1" parent="9ndEdKU9HdRyCCjR_hsN-409">
          <mxGeometry x="194.19000000000005" y="47" width="100" height="40" as="geometry" />
        </mxCell>
        <mxCell id="9ndEdKU9HdRyCCjR_hsN-309" value="" style="edgeStyle=orthogonalEdgeStyle;rounded=0;orthogonalLoop=1;jettySize=auto;html=1;exitX=0.5;exitY=1;exitDx=0;exitDy=0;exitPerimeter=0;entryX=0.5;entryY=0;entryDx=0;entryDy=0;entryPerimeter=0;" edge="1" parent="9ndEdKU9HdRyCCjR_hsN-409" source="9ndEdKU9HdRyCCjR_hsN-284" target="9ndEdKU9HdRyCCjR_hsN-308">
          <mxGeometry relative="1" as="geometry">
            <mxPoint x="244.44000000000005" y="87" as="sourcePoint" />
            <mxPoint x="244.44000000000005" y="187" as="targetPoint" />
          </mxGeometry>
        </mxCell>
        <mxCell id="9ndEdKU9HdRyCCjR_hsN-308" value="IF user_input in&lt;div&gt;map.room_name&lt;/div&gt;&lt;div&gt;dictionary&lt;/div&gt;" style="strokeWidth=2;html=1;shape=mxgraph.flowchart.decision;whiteSpace=wrap;" vertex="1" parent="9ndEdKU9HdRyCCjR_hsN-409">
          <mxGeometry x="164.34000000000003" y="114.5" width="159.7" height="95.5" as="geometry" />
        </mxCell>
        <mxCell id="9ndEdKU9HdRyCCjR_hsN-310" value="NO" style="text;html=1;align=center;verticalAlign=middle;whiteSpace=wrap;rounded=0;" vertex="1" parent="9ndEdKU9HdRyCCjR_hsN-409">
          <mxGeometry x="313" y="158.5" width="37" height="30" as="geometry" />
        </mxCell>
        <mxCell id="9ndEdKU9HdRyCCjR_hsN-311" value="YES" style="text;html=1;align=center;verticalAlign=middle;whiteSpace=wrap;rounded=0;" vertex="1" parent="9ndEdKU9HdRyCCjR_hsN-409">
          <mxGeometry x="200" y="201" width="37" height="30" as="geometry" />
        </mxCell>
        <mxCell id="9ndEdKU9HdRyCCjR_hsN-318" style="edgeStyle=orthogonalEdgeStyle;rounded=0;orthogonalLoop=1;jettySize=auto;html=1;exitX=0.5;exitY=1;exitDx=0;exitDy=0;exitPerimeter=0;entryX=0;entryY=0.5;entryDx=0;entryDy=0;entryPerimeter=0;" edge="1" parent="9ndEdKU9HdRyCCjR_hsN-409" source="9ndEdKU9HdRyCCjR_hsN-312" target="9ndEdKU9HdRyCCjR_hsN-317">
          <mxGeometry relative="1" as="geometry" />
        </mxCell>
        <mxCell id="9ndEdKU9HdRyCCjR_hsN-312" value="PRINT: Invalid&lt;div&gt;input,&lt;span style=&quot;background-color: initial;&quot;&gt;&amp;nbsp;try again&lt;/span&gt;&lt;/div&gt;" style="strokeWidth=2;html=1;shape=mxgraph.flowchart.display;whiteSpace=wrap;" vertex="1" parent="9ndEdKU9HdRyCCjR_hsN-409">
          <mxGeometry x="570.11" y="127.25" width="130" height="70" as="geometry" />
        </mxCell>
        <mxCell id="9ndEdKU9HdRyCCjR_hsN-313" style="edgeStyle=orthogonalEdgeStyle;rounded=0;orthogonalLoop=1;jettySize=auto;html=1;exitX=1;exitY=0.5;exitDx=0;exitDy=0;exitPerimeter=0;entryX=0;entryY=0.5;entryDx=0;entryDy=0;entryPerimeter=0;" edge="1" parent="9ndEdKU9HdRyCCjR_hsN-409" source="9ndEdKU9HdRyCCjR_hsN-319" target="9ndEdKU9HdRyCCjR_hsN-312">
          <mxGeometry relative="1" as="geometry" />
        </mxCell>
        <mxCell id="9ndEdKU9HdRyCCjR_hsN-317" value="RETURN false" style="verticalLabelPosition=middle;verticalAlign=middle;html=1;strokeWidth=2;shape=mxgraph.arrows2.arrow;dy=0.6;dx=40;notch=0;labelPosition=center;align=left;" vertex="1" parent="9ndEdKU9HdRyCCjR_hsN-409">
          <mxGeometry x="661.42" y="221.6300000000001" width="93.5" height="80" as="geometry" />
        </mxCell>
        <mxCell id="9ndEdKU9HdRyCCjR_hsN-319" value="IF INPUT == &#39;Pickup&#39;" style="strokeWidth=2;html=1;shape=mxgraph.flowchart.decision;whiteSpace=wrap;" vertex="1" parent="9ndEdKU9HdRyCCjR_hsN-409">
          <mxGeometry x="373.23" y="132.25" width="156.25" height="60" as="geometry" />
        </mxCell>
        <mxCell id="9ndEdKU9HdRyCCjR_hsN-320" style="edgeStyle=orthogonalEdgeStyle;rounded=0;orthogonalLoop=1;jettySize=auto;html=1;entryX=0;entryY=0.5;entryDx=0;entryDy=0;entryPerimeter=0;" edge="1" parent="9ndEdKU9HdRyCCjR_hsN-409" source="9ndEdKU9HdRyCCjR_hsN-308" target="9ndEdKU9HdRyCCjR_hsN-319">
          <mxGeometry relative="1" as="geometry" />
        </mxCell>
        <mxCell id="9ndEdKU9HdRyCCjR_hsN-323" value="NO" style="text;html=1;align=center;verticalAlign=middle;whiteSpace=wrap;rounded=0;" vertex="1" parent="9ndEdKU9HdRyCCjR_hsN-409">
          <mxGeometry x="514.11" y="158.5" width="37" height="30" as="geometry" />
        </mxCell>
        <mxCell id="9ndEdKU9HdRyCCjR_hsN-332" value="RETURN true" style="verticalLabelPosition=middle;verticalAlign=middle;html=1;strokeWidth=2;shape=mxgraph.arrows2.arrow;dy=0.6;dx=40;notch=0;labelPosition=center;align=left;" vertex="1" parent="9ndEdKU9HdRyCCjR_hsN-409">
          <mxGeometry x="489.92" y="221.6300000000001" width="93.5" height="80" as="geometry" />
        </mxCell>
        <mxCell id="9ndEdKU9HdRyCCjR_hsN-333" style="edgeStyle=orthogonalEdgeStyle;rounded=0;orthogonalLoop=1;jettySize=auto;html=1;exitX=0.5;exitY=1;exitDx=0;exitDy=0;exitPerimeter=0;entryX=-0.007;entryY=0.39;entryDx=0;entryDy=0;entryPerimeter=0;" edge="1" parent="9ndEdKU9HdRyCCjR_hsN-409" source="9ndEdKU9HdRyCCjR_hsN-319" target="9ndEdKU9HdRyCCjR_hsN-332">
          <mxGeometry relative="1" as="geometry" />
        </mxCell>
        <mxCell id="9ndEdKU9HdRyCCjR_hsN-334" style="edgeStyle=orthogonalEdgeStyle;rounded=0;orthogonalLoop=1;jettySize=auto;html=1;exitX=0.5;exitY=1;exitDx=0;exitDy=0;exitPerimeter=0;entryX=-0.008;entryY=0.598;entryDx=0;entryDy=0;entryPerimeter=0;" edge="1" parent="9ndEdKU9HdRyCCjR_hsN-409" source="9ndEdKU9HdRyCCjR_hsN-308" target="9ndEdKU9HdRyCCjR_hsN-332">
          <mxGeometry relative="1" as="geometry" />
        </mxCell>
        <mxCell id="9ndEdKU9HdRyCCjR_hsN-336" value="YES" style="text;html=1;align=center;verticalAlign=middle;whiteSpace=wrap;rounded=0;" vertex="1" parent="9ndEdKU9HdRyCCjR_hsN-409">
          <mxGeometry x="412.45000000000005" y="185.6300000000001" width="37" height="30" as="geometry" />
        </mxCell>
        <mxCell id="9ndEdKU9HdRyCCjR_hsN-446" value="" style="group" connectable="0" vertex="1" parent="WIyWlLk6GJQsqaUBKTNV-1">
          <mxGeometry x="171.37" y="2360" width="928.63" height="640" as="geometry" />
        </mxCell>
        <mxCell id="9ndEdKU9HdRyCCjR_hsN-399" value="def move_rooms(current_room, user_input)" style="verticalLabelPosition=middle;verticalAlign=top;html=1;shape=process;whiteSpace=wrap;rounded=1;size=0.14;arcSize=6;labelPosition=center;align=center;" vertex="1" parent="9ndEdKU9HdRyCCjR_hsN-446">
          <mxGeometry width="928.63" height="640" as="geometry" />
        </mxCell>
        <mxCell id="9ndEdKU9HdRyCCjR_hsN-411" value="IF user_input == &#39;North&#39;" style="strokeWidth=2;html=1;shape=mxgraph.flowchart.decision;whiteSpace=wrap;" vertex="1" parent="9ndEdKU9HdRyCCjR_hsN-446">
          <mxGeometry x="157.63" y="133.5" width="165" height="100" as="geometry" />
        </mxCell>
        <mxCell id="9ndEdKU9HdRyCCjR_hsN-412" value="START" style="strokeWidth=2;html=1;shape=mxgraph.flowchart.terminator;whiteSpace=wrap;" vertex="1" parent="9ndEdKU9HdRyCCjR_hsN-446">
          <mxGeometry x="190.13" y="60" width="100" height="40" as="geometry" />
        </mxCell>
        <mxCell id="9ndEdKU9HdRyCCjR_hsN-413" style="edgeStyle=orthogonalEdgeStyle;rounded=0;orthogonalLoop=1;jettySize=auto;html=1;exitX=0.5;exitY=1;exitDx=0;exitDy=0;exitPerimeter=0;entryX=0.5;entryY=0;entryDx=0;entryDy=0;entryPerimeter=0;" edge="1" parent="9ndEdKU9HdRyCCjR_hsN-446" source="9ndEdKU9HdRyCCjR_hsN-412" target="9ndEdKU9HdRyCCjR_hsN-411">
          <mxGeometry relative="1" as="geometry" />
        </mxCell>
        <mxCell id="9ndEdKU9HdRyCCjR_hsN-414" value="IF user_input == &#39;East&#39;" style="strokeWidth=2;html=1;shape=mxgraph.flowchart.decision;whiteSpace=wrap;" vertex="1" parent="9ndEdKU9HdRyCCjR_hsN-446">
          <mxGeometry x="157.63" y="260" width="165" height="100" as="geometry" />
        </mxCell>
        <mxCell id="9ndEdKU9HdRyCCjR_hsN-415" value="IF user_input == &#39;South&#39;" style="strokeWidth=2;html=1;shape=mxgraph.flowchart.decision;whiteSpace=wrap;" vertex="1" parent="9ndEdKU9HdRyCCjR_hsN-446">
          <mxGeometry x="157.63" y="390" width="165" height="100" as="geometry" />
        </mxCell>
        <mxCell id="9ndEdKU9HdRyCCjR_hsN-418" value="RETURN new room" style="verticalLabelPosition=middle;verticalAlign=middle;html=1;strokeWidth=2;shape=mxgraph.arrows2.arrow;dy=0.6;dx=40;notch=0;labelPosition=center;align=left;" vertex="1" parent="9ndEdKU9HdRyCCjR_hsN-446">
          <mxGeometry x="646.6300000000001" y="331.75" width="126" height="80" as="geometry" />
        </mxCell>
        <mxCell id="9ndEdKU9HdRyCCjR_hsN-422" style="edgeStyle=orthogonalEdgeStyle;rounded=0;orthogonalLoop=1;jettySize=auto;html=1;exitX=1;exitY=0.5;exitDx=0;exitDy=0;exitPerimeter=0;entryX=0;entryY=0;entryDx=43;entryDy=24;entryPerimeter=0;" edge="1" parent="9ndEdKU9HdRyCCjR_hsN-446" source="9ndEdKU9HdRyCCjR_hsN-435" target="9ndEdKU9HdRyCCjR_hsN-418">
          <mxGeometry relative="1" as="geometry" />
        </mxCell>
        <mxCell id="9ndEdKU9HdRyCCjR_hsN-423" style="edgeStyle=orthogonalEdgeStyle;rounded=0;orthogonalLoop=1;jettySize=auto;html=1;exitX=0.5;exitY=1;exitDx=0;exitDy=0;exitPerimeter=0;entryX=0.5;entryY=0;entryDx=0;entryDy=0;entryPerimeter=0;" edge="1" parent="9ndEdKU9HdRyCCjR_hsN-446" source="9ndEdKU9HdRyCCjR_hsN-411" target="9ndEdKU9HdRyCCjR_hsN-414">
          <mxGeometry relative="1" as="geometry" />
        </mxCell>
        <mxCell id="9ndEdKU9HdRyCCjR_hsN-425" style="edgeStyle=orthogonalEdgeStyle;rounded=0;orthogonalLoop=1;jettySize=auto;html=1;exitX=0.5;exitY=1;exitDx=0;exitDy=0;exitPerimeter=0;entryX=0.5;entryY=0;entryDx=0;entryDy=0;entryPerimeter=0;" edge="1" parent="9ndEdKU9HdRyCCjR_hsN-446" source="9ndEdKU9HdRyCCjR_hsN-414" target="9ndEdKU9HdRyCCjR_hsN-415">
          <mxGeometry relative="1" as="geometry" />
        </mxCell>
        <mxCell id="9ndEdKU9HdRyCCjR_hsN-428" value="NO" style="text;html=1;align=center;verticalAlign=middle;whiteSpace=wrap;rounded=0;" vertex="1" parent="9ndEdKU9HdRyCCjR_hsN-446">
          <mxGeometry x="198.63" y="223.5" width="37" height="30" as="geometry" />
        </mxCell>
        <mxCell id="9ndEdKU9HdRyCCjR_hsN-429" value="NO" style="text;html=1;align=center;verticalAlign=middle;whiteSpace=wrap;rounded=0;" vertex="1" parent="9ndEdKU9HdRyCCjR_hsN-446">
          <mxGeometry x="198.63" y="350" width="37" height="30" as="geometry" />
        </mxCell>
        <mxCell id="9ndEdKU9HdRyCCjR_hsN-430" value="NO" style="text;html=1;align=center;verticalAlign=middle;whiteSpace=wrap;rounded=0;" vertex="1" parent="9ndEdKU9HdRyCCjR_hsN-446">
          <mxGeometry x="198.63" y="480" width="37" height="30" as="geometry" />
        </mxCell>
        <mxCell id="9ndEdKU9HdRyCCjR_hsN-431" value="YES" style="text;html=1;align=center;verticalAlign=middle;whiteSpace=wrap;rounded=0;" vertex="1" parent="9ndEdKU9HdRyCCjR_hsN-446">
          <mxGeometry x="304.63" y="190" width="37" height="30" as="geometry" />
        </mxCell>
        <mxCell id="9ndEdKU9HdRyCCjR_hsN-432" value="YES" style="text;html=1;align=center;verticalAlign=middle;whiteSpace=wrap;rounded=0;" vertex="1" parent="9ndEdKU9HdRyCCjR_hsN-446">
          <mxGeometry x="304.63" y="320" width="37" height="30" as="geometry" />
        </mxCell>
        <mxCell id="9ndEdKU9HdRyCCjR_hsN-433" value="YES" style="text;html=1;align=center;verticalAlign=middle;whiteSpace=wrap;rounded=0;" vertex="1" parent="9ndEdKU9HdRyCCjR_hsN-446">
          <mxGeometry x="304.63" y="443" width="37" height="30" as="geometry" />
        </mxCell>
        <mxCell id="9ndEdKU9HdRyCCjR_hsN-436" value="" style="edgeStyle=orthogonalEdgeStyle;rounded=0;orthogonalLoop=1;jettySize=auto;html=1;exitX=1;exitY=0.5;exitDx=0;exitDy=0;exitPerimeter=0;entryX=0;entryY=0.5;entryDx=0;entryDy=0;entryPerimeter=0;" edge="1" parent="9ndEdKU9HdRyCCjR_hsN-446" source="9ndEdKU9HdRyCCjR_hsN-411" target="9ndEdKU9HdRyCCjR_hsN-435">
          <mxGeometry relative="1" as="geometry">
            <mxPoint x="322.63" y="184" as="sourcePoint" />
            <mxPoint x="646.63" y="184" as="targetPoint" />
          </mxGeometry>
        </mxCell>
        <mxCell id="9ndEdKU9HdRyCCjR_hsN-435" value="find what room is North of current_room" style="rounded=1;whiteSpace=wrap;html=1;absoluteArcSize=1;arcSize=14;strokeWidth=2;" vertex="1" parent="9ndEdKU9HdRyCCjR_hsN-446">
          <mxGeometry x="401.63" y="155.25" width="167" height="56.5" as="geometry" />
        </mxCell>
        <mxCell id="9ndEdKU9HdRyCCjR_hsN-438" value="" style="edgeStyle=orthogonalEdgeStyle;rounded=0;orthogonalLoop=1;jettySize=auto;html=1;exitX=1;exitY=0.5;exitDx=0;exitDy=0;exitPerimeter=0;entryX=0;entryY=0.5;entryDx=0;entryDy=0;entryPerimeter=0;" edge="1" parent="9ndEdKU9HdRyCCjR_hsN-446" source="9ndEdKU9HdRyCCjR_hsN-414" target="9ndEdKU9HdRyCCjR_hsN-437">
          <mxGeometry relative="1" as="geometry">
            <mxPoint x="322.63" y="310" as="sourcePoint" />
            <mxPoint x="646.63" y="310" as="targetPoint" />
          </mxGeometry>
        </mxCell>
        <mxCell id="9ndEdKU9HdRyCCjR_hsN-437" value="find what room is East of current_room" style="rounded=1;whiteSpace=wrap;html=1;absoluteArcSize=1;arcSize=14;strokeWidth=2;" vertex="1" parent="9ndEdKU9HdRyCCjR_hsN-446">
          <mxGeometry x="401.63" y="281.75" width="167" height="56.5" as="geometry" />
        </mxCell>
        <mxCell id="9ndEdKU9HdRyCCjR_hsN-440" value="" style="edgeStyle=orthogonalEdgeStyle;rounded=0;orthogonalLoop=1;jettySize=auto;html=1;exitX=1;exitY=0.5;exitDx=0;exitDy=0;exitPerimeter=0;entryX=0;entryY=0.5;entryDx=0;entryDy=0;entryPerimeter=0;" edge="1" parent="9ndEdKU9HdRyCCjR_hsN-446" source="9ndEdKU9HdRyCCjR_hsN-415" target="9ndEdKU9HdRyCCjR_hsN-439">
          <mxGeometry relative="1" as="geometry">
            <mxPoint x="322.63" y="440" as="sourcePoint" />
            <mxPoint x="646.63" y="440" as="targetPoint" />
          </mxGeometry>
        </mxCell>
        <mxCell id="9ndEdKU9HdRyCCjR_hsN-439" value="find what room is South of current_room" style="rounded=1;whiteSpace=wrap;html=1;absoluteArcSize=1;arcSize=14;strokeWidth=2;" vertex="1" parent="9ndEdKU9HdRyCCjR_hsN-446">
          <mxGeometry x="401.63" y="411.75" width="167" height="56.5" as="geometry" />
        </mxCell>
        <mxCell id="9ndEdKU9HdRyCCjR_hsN-442" value="" style="edgeStyle=orthogonalEdgeStyle;rounded=0;orthogonalLoop=1;jettySize=auto;html=1;exitX=0.5;exitY=1;exitDx=0;exitDy=0;exitPerimeter=0;entryX=0;entryY=0.5;entryDx=0;entryDy=0;entryPerimeter=0;" edge="1" parent="9ndEdKU9HdRyCCjR_hsN-446" source="9ndEdKU9HdRyCCjR_hsN-415" target="9ndEdKU9HdRyCCjR_hsN-441">
          <mxGeometry relative="1" as="geometry">
            <mxPoint x="240.63" y="490" as="sourcePoint" />
            <mxPoint x="646.63" y="568" as="targetPoint" />
          </mxGeometry>
        </mxCell>
        <mxCell id="9ndEdKU9HdRyCCjR_hsN-441" value="find what room is North of current_room" style="rounded=1;whiteSpace=wrap;html=1;absoluteArcSize=1;arcSize=14;strokeWidth=2;" vertex="1" parent="9ndEdKU9HdRyCCjR_hsN-446">
          <mxGeometry x="401.88" y="539" width="167" height="56.5" as="geometry" />
        </mxCell>
        <mxCell id="9ndEdKU9HdRyCCjR_hsN-443" style="edgeStyle=orthogonalEdgeStyle;rounded=0;orthogonalLoop=1;jettySize=auto;html=1;exitX=1;exitY=0.5;exitDx=0;exitDy=0;entryX=0;entryY=0;entryDx=0;entryDy=24;entryPerimeter=0;" edge="1" parent="9ndEdKU9HdRyCCjR_hsN-446" source="9ndEdKU9HdRyCCjR_hsN-437" target="9ndEdKU9HdRyCCjR_hsN-418">
          <mxGeometry relative="1" as="geometry" />
        </mxCell>
        <mxCell id="9ndEdKU9HdRyCCjR_hsN-444" style="edgeStyle=orthogonalEdgeStyle;rounded=0;orthogonalLoop=1;jettySize=auto;html=1;exitX=1;exitY=0.5;exitDx=0;exitDy=0;entryX=0;entryY=0;entryDx=0;entryDy=56;entryPerimeter=0;" edge="1" parent="9ndEdKU9HdRyCCjR_hsN-446" source="9ndEdKU9HdRyCCjR_hsN-439" target="9ndEdKU9HdRyCCjR_hsN-418">
          <mxGeometry relative="1" as="geometry" />
        </mxCell>
        <mxCell id="9ndEdKU9HdRyCCjR_hsN-445" style="edgeStyle=orthogonalEdgeStyle;rounded=0;orthogonalLoop=1;jettySize=auto;html=1;exitX=1;exitY=0.5;exitDx=0;exitDy=0;entryX=0;entryY=0;entryDx=43;entryDy=56;entryPerimeter=0;" edge="1" parent="9ndEdKU9HdRyCCjR_hsN-446" source="9ndEdKU9HdRyCCjR_hsN-441" target="9ndEdKU9HdRyCCjR_hsN-418">
          <mxGeometry relative="1" as="geometry" />
        </mxCell>
        <mxCell id="wJCBHrnv3c0sjlbBirn3-0" value="YES" style="text;html=1;align=center;verticalAlign=middle;whiteSpace=wrap;rounded=0;" vertex="1" parent="WIyWlLk6GJQsqaUBKTNV-1">
          <mxGeometry x="-1421" y="3290" width="37" height="30" as="geometry" />
        </mxCell>
        <mxCell id="wJCBHrnv3c0sjlbBirn3-1" value="NO" style="text;html=1;align=center;verticalAlign=middle;whiteSpace=wrap;rounded=0;" vertex="1" parent="WIyWlLk6GJQsqaUBKTNV-1">
          <mxGeometry x="-1532.5" y="3337" width="37" height="30" as="geometry" />
        </mxCell>
      </root>
    </mxGraphModel>
  </diagram>
</mxfile>
